<?xml version="1.0" standalone="no"?>
<!DOCTYPE svg PUBLIC "-//W3C//DTD SVG 20010904//EN"
 "http://www.w3.org/TR/2001/REC-SVG-20010904/DTD/svg10.dtd">
<svg version="1.0" xmlns="http://www.w3.org/2000/svg"
 width="553.000000pt" height="413.000000pt" viewBox="0 0 553.000000 413.000000"
 preserveAspectRatio="xMidYMid meet">
<metadata>
Created by potrace 1.11, written by Peter Selinger 2001-2013
</metadata>
<g transform="translate(0.000000,413.000000) scale(0.100000,-0.100000)"
fill="#000000" stroke="none">
<path d="M1200 3905 c0 -10 -10 -15 -30 -15 -27 0 -30 -3 -30 -30 0 -20 -5
-30 -15 -30 -8 0 -15 -7 -15 -15 0 -8 7 -15 15 -15 11 0 15 -12 15 -45 0 -33
-4 -45 -15 -45 -8 0 -15 -7 -15 -15 0 -8 7 -15 15 -15 11 0 15 -11 15 -40 l0
-40 195 0 195 0 0 -25 0 -25 -180 0 -180 0 0 -315 0 -315 35 0 c24 0 35 -5 35
-15 0 -12 -16 -15 -85 -15 -69 0 -85 3 -85 15 0 10 11 15 35 15 l35 0 0 315 0
315 -545 0 -545 0 0 -115 c0 -108 -1 -115 -20 -115 -19 0 -20 -7 -20 -125 0
-118 1 -125 20 -125 18 0 20 -7 20 -75 l0 -75 450 0 c393 0 450 -2 450 -15 0
-12 -13 -15 -60 -15 -33 0 -60 -4 -60 -10 0 -5 -7 -10 -15 -10 -8 0 -15 5 -15
10 0 6 -132 10 -375 10 l-375 0 0 -150 c0 -143 -1 -150 -20 -150 -19 0 -20 -7
-20 -125 0 -118 1 -125 20 -125 19 0 20 -7 20 -115 l0 -115 545 0 545 0 0 85
c0 50 4 85 10 85 6 0 10 30 10 70 0 40 -4 70 -10 70 -5 0 -10 9 -10 20 0 19
-7 20 -176 20 l-176 0 6 23 c3 12 6 77 6 145 0 102 2 122 15 122 13 0 15 -21
15 -130 l0 -130 200 0 c127 0 200 -4 200 -10 0 -6 30 -10 70 -10 40 0 70 4 70
10 0 6 18 10 40 10 l40 0 0 70 c0 56 3 70 15 70 12 0 15 -14 15 -70 l0 -70
305 0 305 0 0 200 0 200 -305 0 -305 0 0 -70 c0 -56 -3 -70 -15 -70 -12 0 -15
14 -15 70 l0 70 -45 0 c-33 0 -45 4 -45 15 0 13 47 15 365 15 l365 0 0 315 0
315 -220 0 -220 0 0 25 0 25 220 0 220 0 0 145 c0 90 -4 145 -10 145 -5 0 -10
7 -10 15 0 8 -7 15 -15 15 -8 0 -15 -7 -15 -15 0 -11 -12 -15 -45 -15 -33 0
-45 4 -45 15 0 8 -7 15 -15 15 -8 0 -15 -7 -15 -15 0 -11 -12 -15 -45 -15 -33
0 -45 4 -45 15 0 8 -7 15 -15 15 -8 0 -15 -7 -15 -15 0 -11 -12 -15 -45 -15
-33 0 -45 4 -45 15 0 8 -7 15 -15 15 -8 0 -15 -7 -15 -15 0 -11 -12 -15 -45
-15 -33 0 -45 4 -45 15 0 8 -7 15 -15 15 -8 0 -15 -7 -15 -15 0 -11 -12 -15
-45 -15 -33 0 -45 4 -45 15 0 8 -7 15 -15 15 -8 0 -15 -7 -15 -15 0 -11 -12
-15 -45 -15 -33 0 -45 4 -45 15 0 8 -7 15 -15 15 -8 0 -15 -7 -15 -15 0 -11
-12 -15 -45 -15 -33 0 -45 4 -45 15 0 8 -7 15 -15 15 -8 0 -15 -7 -15 -15z"/>
<path d="M3223 3905 c-9 -10 -13 -58 -13 -165 l0 -150 220 0 c189 0 220 -2
220 -15 0 -13 -31 -15 -220 -15 l-220 0 0 -335 0 -335 295 0 295 0 -1 -32 c-2
-31 -2 -31 -6 -5 l-4 27 -290 0 -289 0 0 -190 0 -190 290 0 289 0 4 98 c3 88
3 85 5 -35 1 -73 -1 -133 -5 -133 -5 0 -8 -36 -8 -80 0 -44 3 -80 8 -80 4 0 7
-38 7 -85 l0 -85 535 0 c469 0 535 -2 535 -15 0 -11 -12 -15 -50 -15 l-50 0 0
-550 0 -550 170 0 c144 0 170 -2 170 -15 0 -13 -26 -15 -170 -15 l-170 0 0
-165 c0 -140 2 -165 15 -165 8 0 15 -4 15 -10 0 -5 11 -10 25 -10 14 0 25 5
25 10 0 6 16 10 35 10 19 0 35 -4 35 -10 0 -5 11 -10 25 -10 14 0 25 5 25 10
0 6 16 10 35 10 19 0 35 -4 35 -10 0 -5 11 -10 25 -10 14 0 25 5 25 10 0 6 16
10 35 10 19 0 35 -4 35 -10 0 -5 11 -10 25 -10 14 0 25 5 25 10 0 6 16 10 35
10 19 0 35 -4 35 -10 0 -5 11 -10 25 -10 14 0 25 5 25 10 0 6 16 10 35 10 19
0 35 -4 35 -10 0 -5 11 -10 25 -10 14 0 25 5 25 10 0 6 14 10 30 10 27 0 30 3
30 30 0 17 5 30 10 30 6 0 10 11 10 25 0 14 -4 25 -10 25 -5 0 -10 16 -10 35
0 19 5 35 10 35 6 0 10 11 10 25 0 14 -4 25 -10 25 -5 0 -10 14 -10 30 0 17 5
30 10 30 6 0 10 9 10 20 0 19 -7 20 -140 20 -118 0 -140 2 -140 15 0 13 20 15
120 15 l120 0 0 550 0 550 -240 0 c-207 0 -240 2 -240 15 0 8 9 15 20 15 18 0
20 8 23 98 l3 97 2 -97 2 -98 215 0 215 0 0 190 0 190 -214 0 -215 0 -4 -27
-4 -28 -2 27 c-1 24 -5 27 -43 31 -24 2 75 4 220 5 l262 2 0 535 0 535 -120 0
c-100 0 -120 3 -120 15 0 13 -21 15 -125 15 -104 0 -125 -2 -125 -15 0 -12
-19 -15 -110 -15 l-110 0 0 -534 0 -535 28 -4 c15 -2 -85 -4 -223 -3 l-250 1
218 2 217 3 0 535 0 535 -110 0 c-91 0 -110 3 -110 15 0 13 -21 15 -125 15
-104 0 -125 -2 -125 -15 0 -13 -21 -15 -130 -15 l-130 0 0 -535 0 -534 83 -4
82 -3 -87 -2 -88 -2 0 199 0 200 -47 4 -48 3 48 2 47 2 0 335 0 335 -120 0
c-100 0 -120 3 -120 15 0 13 28 15 195 15 l195 0 0 40 c0 22 5 40 10 40 6 0
10 11 10 25 0 14 -4 25 -10 25 -5 0 -10 16 -10 35 0 19 5 35 10 35 6 0 10 11
10 25 0 14 -4 25 -10 25 -5 0 -10 14 -10 30 0 27 -3 30 -30 30 -16 0 -30 5
-30 10 0 6 -11 10 -25 10 -14 0 -25 -4 -25 -10 0 -5 -16 -10 -35 -10 -19 0
-35 5 -35 10 0 6 -11 10 -25 10 -14 0 -25 -4 -25 -10 0 -5 -16 -10 -35 -10
-19 0 -35 5 -35 10 0 6 -11 10 -25 10 -14 0 -25 -4 -25 -10 0 -5 -16 -10 -35
-10 -19 0 -35 5 -35 10 0 6 -11 10 -25 10 -14 0 -25 -4 -25 -10 0 -5 -16 -10
-35 -10 -19 0 -35 5 -35 10 0 6 -11 10 -25 10 -14 0 -25 -4 -25 -10 0 -5 -16
-10 -35 -10 -19 0 -35 5 -35 10 0 6 -11 10 -25 10 -14 0 -25 -4 -25 -10 0 -5
-16 -10 -35 -10 -19 0 -35 5 -35 10 0 6 -11 10 -25 10 -14 0 -25 -4 -25 -10 0
-5 -16 -10 -35 -10 -19 0 -35 5 -35 10 0 15 -43 11 -57 -5z"/>
<path d="M1230 2075 c0 -13 -29 -15 -200 -15 l-200 0 0 -130 c0 -109 -2 -130
-15 -130 -13 0 -15 21 -15 130 l0 130 -375 0 -375 0 0 -70 c0 -63 -2 -70 -20
-70 -19 0 -20 -7 -20 -124 l0 -123 31 -7 c54 -11 759 -7 759 4 0 6 7 10 15 10
8 0 15 -4 15 -10 0 -6 27 -10 60 -10 47 0 60 -3 60 -15 0 -13 -57 -15 -450
-15 l-450 0 0 -325 0 -325 160 0 c153 0 160 -1 160 -20 0 -19 7 -20 125 -20
118 0 125 1 125 20 0 19 7 20 240 20 l240 0 0 325 c0 282 -2 325 -15 325 -8 0
-15 7 -15 15 0 12 16 15 85 15 69 0 85 -3 85 -15 0 -12 -13 -15 -55 -15 l-55
0 0 -325 0 -325 270 0 270 0 0 -25 0 -25 -275 0 -275 0 0 -40 c0 -29 -4 -40
-15 -40 -8 0 -15 -7 -15 -15 0 -8 7 -15 15 -15 11 0 15 -12 15 -45 0 -33 -4
-45 -15 -45 -8 0 -15 -7 -15 -15 0 -8 7 -15 15 -15 10 0 15 -10 15 -30 0 -27
3 -30 30 -30 20 0 30 -5 30 -15 0 -8 7 -15 15 -15 8 0 15 7 15 15 0 11 12 15
45 15 33 0 45 -4 45 -15 0 -8 7 -15 15 -15 8 0 15 7 15 15 0 11 12 15 45 15
33 0 45 -4 45 -15 0 -8 7 -15 15 -15 8 0 15 7 15 15 0 11 12 15 45 15 33 0 45
-4 45 -15 0 -8 7 -15 15 -15 8 0 15 7 15 15 0 11 12 15 45 15 33 0 45 -4 45
-15 0 -8 7 -15 15 -15 8 0 15 7 15 15 0 11 12 15 45 15 33 0 45 -4 45 -15 0
-8 7 -15 15 -15 8 0 15 7 15 15 0 11 12 15 45 15 33 0 45 -4 45 -15 0 -8 7
-15 15 -15 8 0 15 7 15 15 0 11 12 15 45 15 33 0 45 -4 45 -15 0 -8 7 -15 15
-15 8 0 15 7 15 15 0 8 5 15 10 15 6 0 10 55 10 145 l0 145 -140 0 -140 0 0
25 0 25 140 0 140 0 0 325 0 325 -355 0 c-309 0 -355 2 -355 15 0 11 12 15 45
15 l45 0 0 70 c0 56 3 70 15 70 12 0 15 -14 15 -70 l0 -70 295 0 295 0 0 200
0 200 -295 0 -295 0 0 -70 c0 -56 -3 -70 -15 -70 -12 0 -15 14 -15 70 l0 70
-40 0 c-29 0 -40 4 -40 15 0 12 -14 15 -70 15 -56 0 -70 -3 -70 -15z"/>
<path d="M2780 2075 c0 -12 -20 -15 -120 -15 l-120 0 0 -145 c0 -122 -2 -145
-15 -145 -13 0 -15 23 -15 145 l0 145 -195 0 -195 0 0 -295 0 -295 195 0 195
0 0 90 c0 73 3 90 15 90 12 0 15 -18 15 -105 l0 -105 -210 0 -210 0 0 -400 0
-400 90 0 c83 0 90 -1 90 -20 0 -19 7 -20 125 -20 118 0 125 1 125 20 0 19 7
20 100 20 l100 0 0 400 0 400 -45 0 c-33 0 -45 4 -45 15 0 11 12 15 45 15 l45
0 0 115 0 115 90 0 c73 0 90 -3 90 -15 0 -12 -15 -15 -75 -15 l-75 0 0 -515 0
-515 185 0 185 0 0 -25 0 -25 -190 0 -190 0 0 -134 0 -133 30 -6 c18 -4 30
-13 30 -22 0 -8 7 -15 15 -15 8 0 15 6 15 13 0 22 81 9 87 -14 6 -23 33 -25
33 -3 0 11 5 14 16 10 9 -3 27 -6 41 -6 16 0 27 -7 30 -20 6 -24 33 -27 33 -4
0 11 5 14 16 10 9 -3 26 -6 39 -6 14 0 25 -7 28 -20 6 -24 37 -27 37 -4 0 11
5 14 16 10 9 -3 27 -6 40 -6 14 0 24 -6 24 -14 0 -20 30 -29 36 -11 4 10 15
12 35 8 l29 -5 0 186 0 186 -65 0 c-63 0 -65 1 -65 25 0 24 2 25 70 25 l70 0
0 515 0 515 -180 0 c-153 0 -180 2 -180 15 0 13 27 15 180 15 l180 0 0 180 0
180 -245 0 c-211 0 -245 2 -245 15 0 12 -14 15 -70 15 -56 0 -70 -3 -70 -15z"/>
<path d="M3510 2075 c0 -10 -11 -15 -35 -15 l-35 0 0 -180 0 -180 180 0 c153
0 180 -2 180 -15 0 -13 -27 -15 -180 -15 l-180 0 0 -515 0 -515 70 0 c68 0 70
-1 70 -25 0 -24 -2 -25 -65 -25 l-65 0 0 -186 0 -187 29 6 c20 4 31 2 35 -8 6
-18 36 -9 36 11 0 8 10 14 24 14 13 0 31 3 40 6 11 4 16 1 16 -10 0 -23 31
-20 37 4 3 13 14 20 28 20 13 0 30 3 39 6 11 4 16 1 16 -10 0 -23 27 -20 33 4
3 13 14 20 30 20 14 0 32 3 41 6 11 4 16 1 16 -10 0 -22 27 -20 33 3 6 23 87
36 87 14 0 -7 7 -13 15 -13 8 0 15 7 15 15 0 9 12 18 30 21 l30 7 0 133 0 134
-190 0 -190 0 0 25 0 25 185 0 185 0 0 515 0 515 -75 0 c-60 0 -75 3 -75 15 0
12 17 15 90 15 l90 0 0 -115 0 -115 45 0 c33 0 45 -4 45 -15 0 -11 -12 -15
-45 -15 l-45 0 0 -400 0 -400 100 0 c93 0 100 -1 100 -20 0 -19 7 -20 125 -20
118 0 125 1 125 20 0 19 7 20 90 20 l90 0 0 400 0 400 -210 0 -210 0 0 105 c0
87 3 105 15 105 12 0 15 -17 15 -90 l0 -90 195 0 195 0 0 295 0 295 -195 0
-195 0 0 -145 c0 -122 -2 -145 -15 -145 -13 0 -15 23 -15 145 l0 145 -330 0
c-287 0 -330 2 -330 15 0 12 -14 15 -70 15 -56 0 -70 -3 -70 -15z"/>
</g>
</svg>
