<?xml version="1.0" standalone="no"?>
<!DOCTYPE svg PUBLIC "-//W3C//DTD SVG 20010904//EN"
 "http://www.w3.org/TR/2001/REC-SVG-20010904/DTD/svg10.dtd">
<svg version="1.0" xmlns="http://www.w3.org/2000/svg"
 width="534.000000pt" height="413.000000pt" viewBox="0 0 534.000000 413.000000"
 preserveAspectRatio="xMidYMid meet">
<metadata>
Created by potrace 1.11, written by Peter Selinger 2001-2013
</metadata>
<g transform="translate(0.000000,413.000000) scale(0.100000,-0.100000)"
fill="#000000" stroke="none">
<path d="M1840 4083 c-59 -4 -200 -23 -222 -29 -16 -5 -18 -21 -18 -159 l0
-153 -25 -4 -25 -5 0 153 c0 104 -4 154 -11 154 -6 0 -86 -25 -177 -55 -170
-57 -395 -160 -509 -234 l-63 -40 0 -221 0 -220 -25 0 -25 0 0 200 c0 182 -5
222 -24 191 -3 -5 -16 -7 -28 -3 -16 4 -20 2 -15 -10 7 -20 -38 -63 -66 -63
-14 0 -22 -6 -21 -17 2 -21 -51 -73 -74 -73 -9 0 -16 -6 -14 -13 4 -21 -36
-70 -61 -74 -14 -2 -21 -9 -19 -20 4 -22 -35 -75 -59 -81 -12 -3 -16 -11 -12
-25 3 -14 -6 -31 -32 -56 -20 -21 -34 -40 -31 -43 7 -7 -32 -83 -43 -83 -5 0
-11 -12 -13 -27 -3 -16 -9 -36 -13 -45 -7 -17 9 -18 259 -18 l266 0 0 70 c0
68 1 70 25 70 24 0 25 -2 25 -70 l0 -70 180 0 180 0 0 25 c0 23 3 25 50 25
l50 0 0 -50 c0 -47 -2 -50 -25 -50 l-25 0 0 -255 0 -255 300 0 300 0 0 -25 c0
-25 1 -25 80 -25 79 0 80 0 80 25 0 23 4 25 45 25 l45 0 0 280 0 280 -155 0
-155 0 0 50 c0 38 4 50 15 50 10 0 15 -11 15 -35 l0 -35 140 0 140 0 0 135 0
135 -140 0 -140 0 0 -50 c0 -38 -4 -50 -15 -50 -12 0 -15 14 -15 65 l0 65 155
0 155 0 0 375 0 375 -82 -2 c-46 -1 -103 -3 -128 -5z"/>
<path d="M3300 3717 l0 -377 155 0 155 0 0 -65 c0 -51 -3 -65 -15 -65 -11 0
-15 12 -15 50 l0 50 -140 0 -140 0 0 -135 0 -135 140 0 140 0 0 35 c0 24 5 35
15 35 11 0 15 -12 15 -50 l0 -50 -155 0 -155 0 0 -280 0 -280 45 0 c41 0 45
-2 45 -25 0 -25 1 -25 80 -25 79 0 80 0 80 25 l0 25 300 0 300 0 0 255 0 255
-25 0 c-23 0 -25 3 -25 50 l0 50 50 0 c47 0 50 -2 50 -25 l0 -25 180 0 180 0
0 70 c0 68 1 70 25 70 24 0 25 -2 25 -70 l0 -70 266 0 c250 0 266 1 259 18 -4
9 -10 29 -13 45 -2 15 -8 27 -13 27 -11 0 -50 76 -43 83 3 3 -11 22 -31 43
-26 25 -35 42 -32 56 4 14 0 22 -12 25 -24 6 -63 59 -59 81 2 11 -5 18 -19 20
-25 4 -65 53 -61 74 2 7 -5 13 -14 13 -23 0 -76 52 -74 73 1 11 -7 17 -21 17
-28 0 -73 43 -66 63 5 12 1 14 -15 10 -12 -4 -25 -2 -28 3 -19 31 -24 -9 -24
-191 l0 -200 -25 0 -25 0 0 220 0 221 -62 40 c-115 74 -340 177 -510 234 -91
30 -171 55 -177 55 -7 0 -11 -50 -11 -154 l0 -153 -25 5 -25 4 0 154 c0 151 0
154 -22 159 -62 14 -166 25 -290 31 l-138 7 0 -376z"/>
<path d="M1820 1815 c0 -13 -38 -15 -285 -15 l-285 0 0 -25 c0 -20 -5 -25 -25
-25 l-25 0 0 -255 0 -255 25 0 c23 0 25 -3 25 -50 l0 -50 -50 0 c-47 0 -50 2
-50 25 l0 25 -190 0 -190 0 0 -70 c0 -68 -1 -70 -25 -70 -24 0 -25 2 -25 70
l0 70 -255 0 c-140 0 -255 -3 -255 -7 1 -5 7 -19 15 -33 9 -17 10 -29 3 -37
-12 -15 -2 -33 17 -33 15 0 47 -52 44 -73 -3 -26 1 -36 14 -31 14 5 51 -52 52
-81 0 -11 6 -19 13 -17 18 3 57 -47 57 -73 0 -13 6 -20 18 -19 19 2 62 -51 62
-76 0 -8 7 -15 17 -15 21 0 58 -34 69 -63 5 -13 15 -22 22 -19 16 6 72 -42 72
-62 0 -9 7 -16 15 -16 13 0 15 28 18 178 l2 177 25 0 25 0 0 -190 0 -189 92
-60 c112 -75 248 -145 394 -205 118 -48 258 -96 280 -96 11 0 14 33 14 170 l0
170 25 0 25 0 2 -177 3 -178 65 -11 c36 -7 136 -12 223 -13 l157 -1 0 430 0
430 -155 0 -155 0 0 100 c0 82 3 100 15 100 12 0 15 -16 15 -85 l0 -85 140 0
140 0 0 210 0 210 -140 0 -140 0 0 -75 c0 -60 -3 -75 -15 -75 -12 0 -15 17
-15 90 l0 90 155 0 155 0 0 175 0 175 -35 0 c-24 0 -35 5 -35 15 0 12 -16 15
-80 15 -64 0 -80 -3 -80 -15z"/>
<path d="M2600 1815 c0 -12 -18 -15 -100 -15 l-100 0 0 -100 c0 -82 -3 -100
-15 -100 -12 0 -15 18 -15 100 l0 100 -135 0 -135 0 0 -270 0 -270 135 0 135
0 0 120 c0 100 3 120 15 120 13 0 15 -22 15 -135 l0 -135 -75 0 c-43 0 -75 -4
-75 -10 0 -6 -32 -10 -75 -10 l-75 0 0 -360 0 -360 115 0 115 0 0 -25 0 -25
-115 0 -115 0 0 -95 0 -95 40 0 c29 0 40 -4 40 -15 0 -8 7 -15 15 -15 8 0 15
7 15 15 0 11 12 15 45 15 33 0 45 -4 45 -15 0 -8 7 -15 15 -15 8 0 15 7 15 15
0 27 77 19 114 -12 17 -14 30 -31 28 -36 -2 -6 0 -17 3 -25 4 -11 8 -12 20 -2
23 19 75 -27 68 -59 -5 -22 -3 -23 21 -17 21 5 34 1 58 -19 l30 -25 39 31 c21
17 39 26 39 20 0 -6 7 -11 16 -11 11 0 15 6 11 20 -6 24 47 70 78 67 14 -1 19
3 17 15 -4 28 59 68 106 68 31 0 42 -4 42 -15 0 -8 7 -15 15 -15 8 0 15 7 15
15 0 11 12 15 45 15 33 0 45 -4 45 -15 0 -8 7 -15 15 -15 8 0 15 7 15 15 0 11
11 15 40 15 l40 0 0 95 0 95 -150 0 -150 0 0 25 0 25 150 0 150 0 0 655 0 655
-250 0 c-216 0 -250 2 -250 15 0 12 -15 15 -75 15 -60 0 -75 -3 -75 -15z"/>
<path d="M3370 1815 c0 -10 -11 -15 -35 -15 l-35 0 0 -125 c0 -104 2 -125 15
-125 8 0 15 -7 15 -15 0 -8 -7 -15 -15 -15 -13 0 -15 -30 -15 -210 l0 -210
140 0 140 0 0 135 0 135 -35 0 c-24 0 -35 5 -35 15 0 10 11 15 35 15 l35 0 0
60 0 60 -75 0 c-60 0 -75 3 -75 15 0 12 17 15 90 15 l90 0 0 -240 0 -240 -155
0 -155 0 0 -480 0 -480 158 1 c86 1 186 6 222 13 l65 11 3 178 2 177 25 0 25
0 0 -170 c0 -137 3 -170 14 -170 22 0 162 48 280 96 146 60 282 130 394 205
l92 60 0 189 0 190 25 0 25 0 2 -177 c3 -150 5 -178 18 -178 8 0 15 7 15 16 0
20 56 68 72 62 7 -3 17 6 22 19 11 29 48 63 69 63 10 0 17 7 17 15 0 25 43 78
62 76 12 -1 18 6 18 19 0 26 39 76 57 73 7 -2 13 6 13 17 1 29 38 86 52 81 13
-5 17 5 14 31 -3 21 29 73 44 73 19 0 29 18 17 33 -7 8 -6 20 3 37 8 14 14 28
15 33 0 4 -115 7 -255 7 l-255 0 0 -70 c0 -68 -1 -70 -25 -70 -24 0 -25 2 -25
70 l0 70 -190 0 -190 0 0 -25 c0 -23 -3 -25 -50 -25 l-50 0 0 50 c0 47 2 50
25 50 l25 0 0 255 0 255 -25 0 c-20 0 -25 5 -25 25 l0 25 -285 0 c-247 0 -285
2 -285 15 0 12 -16 15 -80 15 -64 0 -80 -3 -80 -15z"/>
</g>
</svg>
