<?xml version="1.0" standalone="no"?>
<!DOCTYPE svg PUBLIC "-//W3C//DTD SVG 20010904//EN"
 "http://www.w3.org/TR/2001/REC-SVG-20010904/DTD/svg10.dtd">
<svg version="1.0" xmlns="http://www.w3.org/2000/svg"
 width="534.000000pt" height="413.000000pt" viewBox="0 0 534.000000 413.000000"
 preserveAspectRatio="xMidYMid meet">
<metadata>
Created by potrace 1.11, written by Peter Selinger 2001-2013
</metadata>
<g transform="translate(0.000000,413.000000) scale(0.100000,-0.100000)"
fill="#000000" stroke="none">
<path d="M1875 4063 c-68 -3 -218 -21 -252 -30 -23 -5 -23 -8 -23 -164 l0
-158 -352 -3 c-304 -3 -360 -6 -405 -21 l-53 -18 0 -194 c0 -167 -2 -195 -15
-195 -12 0 -15 -17 -15 -90 0 -73 3 -90 15 -90 12 0 15 -14 15 -65 l0 -65 180
0 180 0 0 35 0 35 50 0 50 0 0 -35 c0 -32 2 -35 30 -35 17 0 30 -4 30 -10 0
-6 27 -10 60 -10 33 0 60 4 60 10 0 6 110 10 310 10 l310 0 -2 548 -3 547 -55
1 c-30 0 -82 -1 -115 -3z"/>
<path d="M3790 3341 l0 -371 60 0 c33 0 60 -4 60 -10 0 -6 27 -10 60 -10 33 0
60 4 60 10 0 6 14 10 30 10 28 0 30 3 30 35 l0 35 50 0 50 0 0 -35 0 -35 180
0 180 0 0 65 c0 51 3 65 15 65 12 0 15 17 15 90 0 73 -3 90 -15 90 -13 0 -15
28 -15 195 l0 194 -52 18 c-45 15 -101 18 -380 21 l-328 3 0 -370z"/>
<path d="M250 2855 c0 -78 -2 -85 -20 -85 -19 0 -20 -7 -20 -125 0 -118 1
-125 20 -125 19 0 20 -7 20 -160 0 -153 -1 -160 -20 -160 -19 0 -20 -7 -20
-125 0 -118 1 -125 20 -125 18 0 20 -7 20 -60 l0 -60 485 0 485 0 0 100 c0 60
4 100 10 100 6 0 10 27 10 60 0 33 -4 60 -10 60 -6 0 -10 37 -10 90 l0 90 -35
0 -35 0 0 50 0 50 35 0 35 0 0 255 0 255 -485 0 -485 0 0 -85z"/>
<path d="M4120 2820 c0 -73 -4 -120 -10 -120 -6 0 -10 -27 -10 -60 0 -33 4
-60 10 -60 6 0 10 -32 10 -75 l0 -75 35 0 35 0 0 -50 0 -50 -35 0 -35 0 0 -60
0 -60 485 0 485 0 0 155 c0 148 1 155 20 155 19 0 20 7 20 125 0 118 -1 125
-20 125 -18 0 -20 7 -20 85 l0 85 -485 0 -485 0 0 -120z"/>
<path d="M4120 1890 l0 -60 35 0 35 0 0 -50 0 -50 -35 0 c-32 0 -35 -2 -35
-30 0 -16 -4 -30 -10 -30 -6 0 -10 -27 -10 -60 0 -33 4 -60 10 -60 6 0 10 -62
10 -165 l0 -165 485 0 485 0 0 85 c0 78 2 85 20 85 19 0 20 7 20 125 0 118 -1
125 -20 125 -19 0 -20 7 -20 155 l0 155 -485 0 -485 0 0 -60z"/>
<path d="M250 1720 c0 -73 -2 -80 -20 -80 -19 0 -20 -7 -20 -125 0 -118 1
-125 20 -125 18 0 20 -7 20 -85 l0 -85 485 0 485 0 0 165 c0 103 4 165 10 165
6 0 10 27 10 60 0 33 -4 60 -10 60 -5 0 -10 14 -10 30 0 28 -3 30 -35 30 -33
0 -35 2 -35 35 l0 35 -450 0 -450 0 0 -80z"/>
<path d="M1400 1530 c0 -6 -32 -10 -75 -10 l-75 0 0 -200 0 -200 -50 0 -50 0
0 35 0 35 -190 0 -190 0 0 -105 c0 -98 -1 -105 -20 -105 -19 0 -20 -7 -20
-125 0 -118 1 -125 20 -125 19 0 20 -7 20 -109 l0 -108 58 -19 c50 -16 102
-18 415 -22 l357 -3 0 -174 c0 -157 2 -174 18 -179 47 -15 171 -26 295 -26
l137 0 0 555 0 555 -225 0 -225 0 0 160 0 160 -40 0 c-22 0 -40 5 -40 10 0 6
-27 10 -60 10 -33 0 -60 -4 -60 -10z"/>
<path d="M3820 1530 c0 -5 -18 -10 -40 -10 l-40 0 0 -160 0 -160 -225 0 -225
0 0 -555 0 -555 138 0 c123 0 247 11 295 26 15 5 17 22 17 179 l0 174 358 3
c312 4 364 6 415 22 l57 19 0 108 c0 102 1 109 20 109 19 0 20 7 20 125 0 118
-1 125 -20 125 -19 0 -20 7 -20 105 l0 105 -190 0 -190 0 0 -35 0 -35 -50 0
-50 0 0 200 0 200 -75 0 c-43 0 -75 4 -75 10 0 6 -27 10 -60 10 -33 0 -60 -4
-60 -10z"/>
</g>
</svg>
