<?xml version="1.0" standalone="no"?>
<!DOCTYPE svg PUBLIC "-//W3C//DTD SVG 20010904//EN"
 "http://www.w3.org/TR/2001/REC-SVG-20010904/DTD/svg10.dtd">
<svg version="1.0" xmlns="http://www.w3.org/2000/svg"
 width="534.000000pt" height="413.000000pt" viewBox="0 0 534.000000 413.000000"
 preserveAspectRatio="xMidYMid meet">
<metadata>
Created by potrace 1.11, written by Peter Selinger 2001-2013
</metadata>
<g transform="translate(0.000000,413.000000) scale(0.100000,-0.100000)"
fill="#000000" stroke="none">
<path d="M1750 3400 c0 -19 -7 -20 -105 -20 l-105 0 0 -510 0 -510 375 0 c327
0 375 -2 375 -15 0 -12 14 -15 70 -15 56 0 70 3 70 15 0 12 15 15 75 15 l75 0
0 510 c0 503 0 510 -20 510 -13 0 -20 7 -20 20 0 19 -7 20 -125 20 -118 0
-125 -1 -125 -20 0 -19 -7 -20 -145 -20 -138 0 -145 1 -145 20 0 19 -7 20
-125 20 -118 0 -125 -1 -125 -20z"/>
<path d="M2800 3400 c0 -19 -7 -20 -95 -20 l-95 0 0 -525 0 -525 70 0 c56 0
70 3 70 15 0 11 12 15 45 15 l45 0 0 200 0 200 40 0 c29 0 40 -4 40 -15 0 -9
-9 -15 -25 -15 l-25 0 0 -185 0 -185 155 0 155 0 0 185 0 185 -70 0 c-56 0
-70 3 -70 15 0 12 14 15 70 15 l70 0 0 310 0 310 -65 0 c-58 0 -65 2 -65 20 0
19 -7 20 -125 20 -118 0 -125 -1 -125 -20z"/>
<path d="M3360 3400 c0 -18 -7 -20 -65 -20 l-65 0 0 -55 c0 -30 -4 -55 -10
-55 -6 0 -10 -87 -10 -240 0 -153 4 -240 10 -240 6 0 10 -7 10 -15 0 -12 14
-15 70 -15 56 0 70 -3 70 -15 0 -12 -14 -15 -70 -15 l-70 0 0 -185 0 -185 155
0 155 0 0 185 0 185 -25 0 c-16 0 -25 6 -25 15 0 11 11 15 40 15 l40 0 0 -200
0 -200 80 0 c64 0 80 -3 80 -15 0 -12 14 -15 70 -15 56 0 70 3 70 15 0 13 20
15 120 15 l120 0 0 510 0 510 -30 0 c-23 0 -30 4 -30 20 0 19 -7 20 -125 20
-118 0 -125 -1 -125 -20 0 -19 -7 -20 -95 -20 -88 0 -95 1 -95 20 0 19 -7 20
-125 20 -118 0 -125 -1 -125 -20z"/>
<path d="M4360 3400 c0 -19 -7 -20 -100 -20 l-100 0 0 -310 0 -310 70 0 c56 0
70 -3 70 -15 0 -12 -14 -15 -70 -15 l-70 0 0 -185 0 -185 155 0 155 0 0 185 0
185 -25 0 c-16 0 -25 6 -25 15 0 11 11 15 40 15 l40 0 0 -210 0 -210 70 0 c40
0 70 4 70 10 0 6 103 10 290 10 l290 0 0 95 c0 88 1 95 20 95 19 0 20 7 20
125 0 118 -1 125 -20 125 -19 0 -20 7 -20 120 l0 120 25 0 25 0 0 125 0 125
-25 0 c-23 0 -25 4 -25 45 l0 45 -305 0 c-298 0 -305 0 -305 20 0 19 -7 20
-125 20 -118 0 -125 -1 -125 -20z"/>
<path d="M1820 2015 c0 -13 -80 -15 -660 -15 l-660 0 0 -85 c0 -69 -3 -85 -15
-85 -12 0 -15 -14 -15 -70 l0 -70 180 0 c153 0 180 -2 180 -15 0 -13 -25 -15
-165 -15 l-165 0 0 -150 c0 -143 -1 -150 -20 -150 -19 0 -20 -7 -20 -125 0
-118 1 -125 20 -125 19 0 20 -7 20 -130 l0 -130 115 0 c108 0 115 -1 115 -20
0 -19 7 -20 125 -20 118 0 125 1 125 20 0 19 7 20 115 20 l115 0 0 245 0 245
65 0 c51 0 65 -3 65 -15 0 -11 -12 -15 -50 -15 l-50 0 0 -230 0 -230 175 0
175 0 0 230 0 230 -65 0 c-51 0 -65 3 -65 15 0 12 14 15 65 15 l65 0 0 160 0
160 -320 0 c-278 0 -320 2 -320 15 0 13 55 15 435 15 380 0 435 -2 435 -15 0
-12 -18 -15 -100 -15 l-100 0 0 -160 c0 -100 4 -160 10 -160 6 0 10 -70 10
-190 l0 -190 65 0 c58 0 65 -2 65 -20 0 -19 7 -20 125 -20 118 0 125 1 125 20
0 15 7 20 25 20 l25 0 0 350 0 350 -65 0 c-51 0 -65 3 -65 15 0 12 14 15 65
15 l65 0 0 155 0 155 -55 0 c-42 0 -55 3 -55 15 0 12 -14 15 -70 15 -56 0 -70
-3 -70 -15z"/>
<path d="M2290 2015 c0 -12 -17 -15 -95 -15 l-95 0 0 -520 0 -520 110 0 c103
0 110 -1 110 -20 0 -19 7 -20 125 -20 118 0 125 1 125 20 0 15 7 20 25 20 l25
0 0 520 0 520 -95 0 c-78 0 -95 3 -95 15 0 12 -14 15 -70 15 -56 0 -70 -3 -70
-15z"/>
<path d="M3740 2015 c0 -12 -16 -15 -85 -15 l-85 0 0 -205 0 -205 -45 0 c-33
0 -45 4 -45 15 0 10 10 15 30 15 l30 0 0 190 0 190 -155 0 -155 0 0 -190 0
-190 65 0 c51 0 65 -3 65 -15 0 -12 -14 -15 -65 -15 l-65 0 0 -315 0 -315 65
0 c58 0 65 -2 65 -20 0 -19 7 -20 125 -20 118 0 125 1 125 20 0 19 7 20 110
20 103 0 110 -1 110 -20 0 -19 7 -20 125 -20 118 0 125 1 125 20 0 19 7 20
145 20 l145 0 0 405 c0 353 2 405 15 405 12 0 15 14 15 70 0 56 -3 70 -15 70
-11 0 -15 12 -15 45 l0 45 -245 0 c-211 0 -245 2 -245 15 0 12 -14 15 -70 15
-56 0 -70 -3 -70 -15z"/>
</g>
</svg>
