<?xml version="1.0" standalone="no"?>
<!DOCTYPE svg PUBLIC "-//W3C//DTD SVG 20010904//EN"
 "http://www.w3.org/TR/2001/REC-SVG-20010904/DTD/svg10.dtd">
<svg version="1.0" xmlns="http://www.w3.org/2000/svg"
 width="534.000000pt" height="413.000000pt" viewBox="0 0 534.000000 413.000000"
 preserveAspectRatio="xMidYMid meet">
<metadata>
Created by potrace 1.11, written by Peter Selinger 2001-2013
</metadata>
<g transform="translate(0.000000,413.000000) scale(0.100000,-0.100000)"
fill="#000000" stroke="none">
<path d="M1510 3940 c0 -5 -13 -10 -30 -10 -27 0 -30 -3 -30 -30 0 -16 -4 -30
-10 -30 -5 0 -10 -11 -10 -25 0 -14 5 -25 10 -25 6 0 10 -16 10 -35 0 -19 -4
-35 -10 -35 -5 0 -10 -11 -10 -25 0 -14 5 -25 10 -25 6 0 10 -18 10 -40 l0
-40 210 0 c180 0 210 -2 210 -15 0 -13 -23 -15 -145 -15 l-145 0 0 -465 0
-465 -167 2 -168 2 163 3 162 3 0 460 0 460 -80 0 c-73 0 -80 2 -80 20 0 19
-7 20 -135 20 -128 0 -135 -1 -135 -20 0 -19 -7 -20 -120 -20 l-120 0 0 -460
0 -459 98 -4 97 -3 -102 -2 -103 -2 0 465 0 465 -80 0 c-73 0 -80 2 -80 20 0
19 -7 20 -135 20 -128 0 -135 -1 -135 -20 0 -19 -7 -20 -115 -20 l-115 0 0
-635 0 -635 330 0 329 0 4 93 3 92 2 -92 2 -93 75 0 c60 0 75 -3 75 -15 0 -13
-23 -15 -150 -15 l-149 0 -4 -77 -3 -78 -2 78 -2 77 -255 0 -255 0 0 -185 0
-185 254 0 255 0 4 33 c3 24 4 21 5 -15 l2 -48 -260 0 -260 0 0 -635 0 -635
135 0 c128 0 135 -1 135 -20 0 -19 7 -20 135 -20 128 0 135 1 135 20 0 19 7
20 95 20 l95 0 0 635 0 635 -25 0 c-16 0 -25 6 -25 15 0 13 46 15 350 15 l350
0 0 35 c0 19 3 35 8 35 4 0 7 36 7 80 0 44 -3 80 -7 80 -5 0 -8 38 -8 85 l0
85 85 0 84 0 4 58 3 57 2 -57 2 -58 170 0 170 0 0 170 0 170 -169 0 -170 0 -4
-37 -4 -38 -1 37 c-2 29 -6 37 -24 41 -13 2 66 5 175 6 l197 1 0 460 0 460
-50 0 c-38 0 -50 4 -50 15 0 11 12 15 50 15 l50 0 0 155 0 155 -45 0 c-25 0
-45 5 -45 10 0 6 -11 10 -25 10 -14 0 -25 -4 -25 -10 0 -5 -16 -10 -35 -10
-19 0 -35 5 -35 10 0 6 -11 10 -25 10 -14 0 -25 -4 -25 -10 0 -5 -16 -10 -35
-10 -19 0 -35 5 -35 10 0 6 -11 10 -25 10 -14 0 -25 -4 -25 -10 0 -5 -16 -10
-35 -10 -19 0 -35 5 -35 10 0 6 -11 10 -25 10 -14 0 -25 -4 -25 -10 0 -5 -16
-10 -35 -10 -19 0 -35 5 -35 10 0 6 -11 10 -25 10 -14 0 -25 -4 -25 -10z"/>
<path d="M3290 3940 c0 -5 -20 -10 -45 -10 l-45 0 0 -155 0 -155 50 0 c38 0
50 -4 50 -15 0 -11 -12 -15 -50 -15 l-50 0 0 -460 0 -460 198 -1 c108 -1 187
-4 175 -6 -17 -3 -23 -13 -26 -41 l-4 -37 -1 38 -2 37 -170 0 -170 0 0 -170 0
-170 170 0 169 0 4 58 3 57 2 -57 2 -58 85 0 85 0 0 -85 c0 -47 -3 -85 -7 -85
-5 0 -8 -36 -8 -80 0 -44 3 -80 8 -80 4 0 7 -16 7 -35 l0 -35 300 0 300 0 0
-650 0 -650 130 0 c123 0 130 -1 130 -20 0 -19 7 -20 135 -20 128 0 135 1 135
20 0 19 7 20 125 20 l125 0 0 635 0 635 -310 0 c-269 0 -310 2 -310 15 0 11
12 15 49 15 49 0 50 1 54 33 l4 32 1 -32 2 -33 255 0 255 0 0 185 0 185 -255
0 -254 0 -4 -77 -3 -78 -2 78 -2 77 -150 0 c-127 0 -150 2 -150 15 0 12 15 15
75 15 l74 0 4 92 3 93 2 -92 2 -93 330 0 330 0 -2 633 -3 632 -92 3 c-85 2
-93 4 -93 22 0 19 -8 20 -135 20 -128 0 -135 -1 -135 -20 0 -19 -7 -20 -100
-20 l-100 0 0 -465 0 -465 -102 2 -103 2 98 3 97 4 0 459 0 460 -100 0 c-93 0
-100 1 -100 20 0 19 -7 20 -135 20 -128 0 -135 -1 -135 -20 0 -19 -7 -20 -100
-20 l-100 0 0 -460 0 -460 163 -3 162 -3 -167 -2 -168 -2 0 465 0 465 -145 0
c-122 0 -145 2 -145 15 0 13 30 15 210 15 l210 0 0 40 c0 22 5 40 10 40 6 0
10 11 10 25 0 14 -4 25 -10 25 -5 0 -10 16 -10 35 0 19 5 35 10 35 6 0 10 11
10 25 0 14 -4 25 -10 25 -5 0 -10 14 -10 30 0 27 -3 30 -30 30 -16 0 -30 5
-30 10 0 6 -11 10 -25 10 -14 0 -25 -4 -25 -10 0 -5 -16 -10 -35 -10 -19 0
-35 5 -35 10 0 6 -11 10 -25 10 -14 0 -25 -4 -25 -10 0 -5 -16 -10 -35 -10
-19 0 -35 5 -35 10 0 6 -11 10 -25 10 -14 0 -25 -4 -25 -10 0 -5 -16 -10 -35
-10 -19 0 -35 5 -35 10 0 6 -11 10 -25 10 -14 0 -25 -4 -25 -10 0 -5 -16 -10
-35 -10 -19 0 -35 5 -35 10 0 6 -11 10 -25 10 -14 0 -25 -4 -25 -10z"/>
<path d="M1930 1895 c0 -13 -21 -15 -125 -15 l-125 0 0 -65 c0 -51 -3 -65 -15
-65 -12 0 -15 14 -15 65 l0 65 -335 0 -335 0 0 -625 0 -625 110 0 110 0 0 -25
0 -25 135 0 135 0 0 25 c0 25 1 25 90 25 l90 0 0 490 c0 429 2 490 15 490 9 0
15 -9 15 -25 0 -25 0 -25 95 -25 78 0 95 -3 95 -15 0 -12 -17 -15 -95 -15
l-95 0 0 -450 0 -450 125 0 125 0 0 -25 0 -24 -145 -3 -144 -3 59 -98 c33 -54
60 -104 60 -111 0 -6 6 -18 12 -24 10 -10 10 -17 0 -32 -10 -17 -10 -21 3 -26
9 -4 19 -4 22 0 3 3 14 -8 24 -24 16 -25 25 -30 59 -30 29 0 40 -4 40 -15 0
-8 7 -15 15 -15 8 0 15 7 15 15 0 11 12 15 45 15 33 0 45 -4 45 -15 0 -8 7
-15 15 -15 8 0 15 7 15 15 0 11 12 15 44 15 36 0 47 5 61 26 9 15 22 23 30 20
18 -7 30 13 17 26 -13 13 8 58 87 188 l51 85 -145 3 -145 3 0 24 0 25 130 0
130 0 0 450 0 450 -160 0 c-136 0 -160 2 -160 15 0 13 26 15 175 15 l175 0 0
-90 c0 -89 0 -90 25 -90 16 0 25 -6 25 -15 0 -9 -9 -15 -25 -15 l-25 0 0 -360
0 -360 110 0 110 0 0 -25 0 -25 135 0 135 0 0 25 c0 24 2 25 75 25 l75 0 0
360 0 360 -225 0 c-193 0 -225 2 -225 15 0 8 7 15 15 15 12 0 15 18 15 100 0
82 3 100 15 100 12 0 15 -18 15 -100 l0 -100 195 0 195 0 0 250 0 250 -195 0
-195 0 0 -80 c0 -64 -3 -80 -15 -80 -12 0 -15 16 -15 80 l0 80 -255 0 c-220 0
-255 2 -255 15 0 12 -14 15 -70 15 -56 0 -70 -3 -70 -15z"/>
<path d="M3470 1815 c0 -78 -3 -95 -15 -95 -12 0 -15 16 -15 80 l0 80 -195 0
-195 0 0 -250 0 -250 195 0 195 0 0 100 c0 82 3 100 15 100 12 0 15 -19 15
-115 l0 -115 -210 0 -210 0 0 -360 0 -360 75 0 c73 0 75 -1 75 -25 l0 -25 135
0 135 0 0 25 0 25 225 0 225 0 0 -25 0 -24 -145 -3 -146 -3 58 -95 c67 -110
87 -158 73 -175 -12 -14 -3 -25 21 -25 9 0 24 -11 33 -25 13 -20 25 -25 56
-25 29 0 40 -4 40 -15 0 -8 7 -15 15 -15 8 0 15 7 15 15 0 11 12 15 45 15 33
0 45 -4 45 -15 0 -8 7 -15 15 -15 8 0 15 7 15 15 0 11 12 15 44 15 36 0 47 5
61 26 9 15 22 23 30 20 18 -7 31 12 17 26 -12 12 14 67 89 192 l49 81 -145 3
-145 3 0 24 0 25 120 0 120 0 0 625 0 625 -345 0 c-300 0 -345 2 -345 15 0 12
-14 15 -70 15 l-70 0 0 -95z"/>
</g>
</svg>
