<?xml version="1.0" standalone="no"?>
<!DOCTYPE svg PUBLIC "-//W3C//DTD SVG 20010904//EN"
 "http://www.w3.org/TR/2001/REC-SVG-20010904/DTD/svg10.dtd">
<svg version="1.0" xmlns="http://www.w3.org/2000/svg"
 width="534.000000pt" height="431.000000pt" viewBox="0 0 534.000000 431.000000"
 preserveAspectRatio="xMidYMid meet">
<metadata>
Created by potrace 1.11, written by Peter Selinger 2001-2013
</metadata>
<g transform="translate(0.000000,431.000000) scale(0.100000,-0.100000)"
fill="#000000" stroke="none">
<path d="M1606 4275 c-6 -17 -76 -21 -76 -5 0 16 -30 12 -36 -5 -7 -17 -84
-22 -84 -5 0 16 -30 12 -36 -5 -7 -17 -84 -22 -84 -5 0 16 -30 12 -36 -5 -9
-21 -81 -21 -86 1 -3 13 -6 13 -27 -5 -29 -25 -91 -29 -91 -6 0 21 -12 19 -33
-5 -21 -25 -87 -28 -87 -5 0 20 -17 19 -28 -1 -5 -8 -27 -18 -50 -21 -34 -5
-42 -3 -42 11 0 20 -16 21 -28 0 -5 -8 -27 -18 -50 -21 -34 -5 -42 -3 -42 11
0 9 -7 16 -15 16 -8 0 -15 -6 -15 -14 0 -7 -14 -16 -31 -20 -47 -9 -59 -7 -59
9 0 8 -7 15 -15 15 -8 0 -15 -6 -15 -14 0 -7 -14 -16 -31 -20 -47 -9 -59 -7
-59 9 0 8 -7 15 -15 15 -8 0 -15 -7 -15 -15 0 -8 -6 -15 -14 -15 -7 0 -28 -3
-45 -6 -24 -5 -31 -3 -31 10 0 9 -7 16 -15 16 -8 0 -15 -7 -15 -15 0 -8 -6
-15 -14 -15 -7 0 -28 -3 -45 -6 -24 -5 -31 -3 -31 10 0 9 -7 16 -15 16 -8 0
-15 -6 -15 -14 0 -14 -29 -26 -67 -26 -23 0 -23 -2 -23 -120 l0 -120 190 0
190 0 0 -25 0 -25 -190 0 -190 0 0 -305 c0 -298 0 -305 -20 -305 -19 0 -20 -7
-20 -125 0 -118 1 -125 20 -125 20 0 20 -7 20 -520 l0 -520 825 0 825 0 0 80
c0 64 3 80 15 80 12 0 15 14 15 70 0 56 -3 70 -15 70 -11 0 -15 12 -15 50 l0
50 -215 0 -215 0 0 35 c0 24 5 35 15 35 8 0 15 -9 15 -20 0 -19 7 -20 200 -20
l200 0 0 90 0 90 -215 0 -215 0 0 75 c0 60 3 75 15 75 12 0 15 -13 15 -60 l0
-60 200 0 200 0 0 225 0 225 -200 0 -200 0 0 -95 c0 -78 -3 -95 -15 -95 -12 0
-15 19 -15 110 l0 110 215 0 215 0 0 390 0 390 -190 0 -190 0 0 25 0 25 190 0
190 0 0 190 0 190 -45 -7 c-31 -4 -45 -2 -45 6 0 16 -37 13 -44 -4z m-386
-400 l0 -25 -250 0 -250 0 0 25 0 25 250 0 250 0 0 -25z"/>
<path d="M3690 4279 c0 -8 -15 -10 -45 -7 l-45 6 0 -189 0 -189 190 0 190 0 0
-25 0 -25 -190 0 -190 0 0 -370 0 -370 215 0 215 0 0 -110 c0 -91 -3 -110 -15
-110 -12 0 -15 17 -15 95 l0 95 -200 0 -200 0 0 -225 0 -225 200 0 200 0 0 60
c0 47 3 60 15 60 12 0 15 -15 15 -75 l0 -75 -215 0 -215 0 0 -90 0 -90 200 0
c193 0 200 1 200 20 0 11 7 20 15 20 8 0 15 -9 15 -20 0 -13 7 -20 20 -20 15
0 20 -7 20 -25 l0 -25 -235 0 -235 0 0 -60 c0 -47 -3 -60 -15 -60 -12 0 -15
-14 -15 -70 0 -56 3 -70 15 -70 12 0 15 -16 15 -80 l0 -80 185 0 185 0 0 -730
0 -730 105 0 c98 0 105 -1 105 -20 0 -19 7 -20 125 -20 118 0 125 1 125 20 0
19 7 20 175 20 168 0 175 -1 175 -20 0 -19 7 -20 125 -20 118 0 125 1 125 20
0 19 7 20 110 20 l110 0 0 275 c0 268 0 275 20 275 19 0 20 7 20 125 0 118 -1
125 -20 125 -19 0 -20 7 -20 190 0 183 1 190 20 190 19 0 20 7 20 125 0 118
-1 125 -20 125 -19 0 -20 7 -20 225 l0 225 -355 0 -355 0 0 25 0 25 355 0 355
0 0 715 0 715 -185 0 -185 0 0 25 0 25 185 0 185 0 0 119 0 118 -42 7 c-24 4
-69 8 -100 10 -31 1 -64 9 -73 16 -13 11 -18 11 -24 1 -9 -13 -91 -5 -91 10 0
13 -28 11 -32 -2 -6 -17 -88 -1 -88 17 0 8 -7 14 -15 14 -8 0 -15 -7 -15 -15
0 -9 -9 -15 -22 -15 -39 0 -68 12 -68 26 0 8 -7 14 -15 14 -8 0 -15 -7 -15
-16 0 -14 -8 -16 -42 -11 -23 3 -45 13 -50 21 -11 20 -28 21 -28 1 0 -23 -66
-20 -87 5 -21 24 -33 26 -33 5 0 -23 -66 -20 -87 5 -21 24 -33 26 -33 5 0 -11
-11 -15 -40 -15 -27 0 -43 5 -46 15 -7 17 -34 21 -34 5 0 -17 -77 -12 -84 5
-6 17 -36 21 -36 5 0 -17 -80 -12 -86 5 -7 17 -34 21 -34 5 0 -17 -77 -12 -84
5 -6 17 -36 21 -36 5 0 -5 -18 -10 -40 -10 -29 0 -40 4 -40 15 0 8 -9 15 -20
15 -11 0 -20 -5 -20 -11z m940 -404 l0 -25 -255 0 -255 0 0 25 0 25 255 0 255
0 0 -25z"/>
<path d="M1790 1915 c0 -13 -101 -15 -850 -15 l-850 0 0 -115 c0 -108 -1 -115
-20 -115 -19 0 -20 -7 -20 -125 0 -118 1 -125 20 -125 20 0 20 -7 20 -465 l0
-465 180 0 c173 0 180 -1 180 -20 0 -19 7 -20 125 -20 118 0 125 1 125 20 0
19 7 20 265 20 l265 0 0 -25 c0 -25 0 -25 -95 -25 l-96 0 3 -132 c3 -123 4
-133 23 -137 11 -2 26 -11 33 -20 10 -12 15 -13 18 -3 3 7 23 12 46 12 31 0
41 -4 45 -20 6 -24 33 -27 33 -4 0 12 6 15 23 10 12 -3 32 -6 43 -6 14 0 24
-8 28 -22 6 -22 7 -22 20 -5 20 25 86 24 93 -3 6 -23 23 -27 23 -5 0 27 86 13
93 -16 6 -21 36 -27 33 -6 -1 15 5 17 49 17 28 0 35 -4 35 -20 0 -11 7 -20 15
-20 8 0 15 7 15 15 0 11 12 15 45 15 33 0 45 -4 45 -15 0 -8 7 -15 15 -15 8 0
15 7 15 15 0 11 12 15 45 15 33 0 45 -4 45 -15 0 -8 7 -15 15 -15 8 0 15 7 15
15 0 11 12 15 45 15 33 0 45 -4 45 -15 0 -8 7 -15 15 -15 8 0 15 7 15 15 0 11
12 15 45 15 33 0 45 -4 45 -15 0 -8 7 -15 15 -15 8 0 15 7 15 15 0 11 12 15
45 15 33 0 45 -4 45 -15 0 -8 7 -15 15 -15 8 0 15 7 15 15 0 11 12 15 45 15
l45 0 0 175 0 175 -150 0 -150 0 0 25 0 25 150 0 150 0 0 355 0 355 -235 0
c-217 0 -235 1 -235 18 0 16 17 17 235 14 l235 -3 0 81 0 81 -235 -3 -235 -3
0 83 c0 66 3 82 15 82 12 0 15 -14 15 -65 l0 -65 220 0 220 0 0 240 0 240
-220 0 -220 0 0 -105 c0 -87 -3 -105 -15 -105 -12 0 -15 20 -15 120 l0 120
-70 0 c-56 0 -70 -3 -70 -15z m170 -1450 l0 -25 -240 0 -240 0 0 25 0 25 240
0 240 0 0 -25z"/>
<path d="M3070 1915 c0 -12 -15 -15 -75 -15 l-75 0 0 -105 c0 -87 -3 -105 -15
-105 -12 0 -15 18 -15 105 l0 105 -220 0 -220 0 0 -270 0 -270 220 0 220 0 0
95 c0 78 3 95 15 95 12 0 15 -19 15 -110 l0 -110 -235 0 -235 0 0 -420 0 -420
205 0 205 0 0 -25 0 -25 -205 0 -205 0 0 -175 0 -175 45 0 c33 0 45 -4 45 -15
0 -8 7 -15 15 -15 8 0 15 7 15 15 0 11 12 15 45 15 33 0 45 -4 45 -15 0 -8 7
-15 15 -15 8 0 15 7 15 15 0 11 12 15 45 15 33 0 45 -4 45 -15 0 -8 7 -15 15
-15 8 0 15 7 15 15 0 11 12 15 45 15 33 0 45 -4 45 -15 0 -8 7 -15 15 -15 8 0
15 7 15 15 0 11 12 15 45 15 33 0 45 -4 45 -15 0 -8 7 -15 15 -15 8 0 15 7 15
15 0 11 12 15 45 15 33 0 45 -4 45 -15 0 -18 55 -21 66 -4 4 8 0 9 -15 4 -15
-5 -21 -2 -21 9 0 10 9 16 24 16 13 0 32 3 42 7 14 5 16 2 11 -16 -4 -18 -2
-22 16 -19 13 2 21 10 19 17 -4 18 16 31 51 31 17 0 27 -5 27 -15 0 -8 9 -15
20 -15 13 0 20 7 20 20 0 14 7 20 24 20 13 0 31 3 40 6 12 4 16 0 16 -15 0
-32 30 -24 43 12 8 22 77 25 77 2 0 -8 9 -15 20 -15 13 0 20 7 20 20 0 14 7
20 24 20 13 0 31 3 40 6 11 4 16 1 16 -10 0 -9 8 -16 20 -16 11 0 20 7 20 15
0 8 11 17 25 21 l25 6 0 129 0 129 -45 0 c-41 0 -45 2 -45 25 l0 25 100 0 100
0 0 705 0 705 -355 0 c-309 0 -355 2 -355 15 0 12 -14 15 -70 15 -56 0 -70 -3
-70 -15z m400 -1450 l0 -25 -235 0 -235 0 0 25 0 25 235 0 235 0 0 -25z"/>
</g>
</svg>
