<?xml version="1.0" standalone="no"?>
<!DOCTYPE svg PUBLIC "-//W3C//DTD SVG 20010904//EN"
 "http://www.w3.org/TR/2001/REC-SVG-20010904/DTD/svg10.dtd">
<svg version="1.0" xmlns="http://www.w3.org/2000/svg"
 width="534.000000pt" height="413.000000pt" viewBox="0 0 534.000000 413.000000"
 preserveAspectRatio="xMidYMid meet">
<metadata>
Created by potrace 1.11, written by Peter Selinger 2001-2013
</metadata>
<g transform="translate(0.000000,413.000000) scale(0.100000,-0.100000)"
fill="#000000" stroke="none">
<path d="M1530 4035 c0 -10 -10 -15 -30 -15 -27 0 -30 -3 -30 -30 0 -20 -5
-30 -15 -30 -8 0 -15 -7 -15 -15 0 -8 7 -15 15 -15 11 0 15 -12 15 -45 0 -33
-4 -45 -15 -45 -8 0 -15 -7 -15 -15 0 -8 7 -15 15 -15 11 0 15 -11 15 -40 l0
-40 115 0 115 0 0 -25 0 -25 -110 0 -110 0 0 -505 0 -505 35 0 c24 0 35 -5 35
-15 0 -13 -31 -15 -215 -15 -184 0 -215 2 -215 15 0 13 25 15 165 15 l165 0 0
505 0 505 -110 0 c-103 0 -110 1 -110 20 0 19 -7 20 -125 20 -118 0 -125 -1
-125 -20 0 -19 -7 -20 -110 -20 l-110 0 0 -505 0 -505 110 0 c91 0 110 -3 110
-15 0 -13 -21 -15 -125 -15 l-125 0 0 520 0 520 -340 0 -340 0 0 -265 c0 -258
-1 -265 -20 -265 -19 0 -20 -7 -20 -125 0 -118 1 -125 20 -125 20 0 20 -7 20
-290 l0 -290 340 0 340 0 0 90 c0 73 3 90 15 90 12 0 15 -17 15 -90 l0 -90 65
0 c63 0 65 -1 65 -25 l0 -25 -130 0 -130 0 0 -80 c0 -64 -3 -80 -15 -80 -12 0
-15 16 -15 80 l0 80 -275 0 -275 0 0 -190 0 -190 275 0 275 0 0 40 c0 29 4 40
15 40 11 0 15 -11 15 -40 l0 -40 270 0 270 0 0 70 c0 40 4 70 10 70 6 0 10 30
10 70 0 40 -4 70 -10 70 -6 0 -10 32 -10 75 l0 75 305 0 305 0 0 55 c0 42 3
55 15 55 12 0 15 -13 15 -55 l0 -55 160 0 160 0 0 160 0 160 -160 0 -160 0 0
-35 c0 -24 -5 -35 -15 -35 -10 0 -15 11 -15 35 0 35 0 35 -45 35 -33 0 -45 4
-45 15 0 13 31 15 220 15 l220 0 0 505 0 505 -145 0 -145 0 0 25 0 25 145 0
145 0 0 145 0 145 -45 0 c-33 0 -45 4 -45 15 0 8 -7 15 -15 15 -8 0 -15 -7
-15 -15 0 -11 -12 -15 -45 -15 -33 0 -45 4 -45 15 0 8 -7 15 -15 15 -8 0 -15
-7 -15 -15 0 -11 -12 -15 -45 -15 -33 0 -45 4 -45 15 0 8 -7 15 -15 15 -8 0
-15 -7 -15 -15 0 -11 -12 -15 -45 -15 -33 0 -45 4 -45 15 0 8 -7 15 -15 15 -8
0 -15 -7 -15 -15 0 -11 -12 -15 -45 -15 -33 0 -45 4 -45 15 0 8 -7 15 -15 15
-8 0 -15 -7 -15 -15z"/>
<path d="M3280 4040 c0 -5 -20 -10 -45 -10 l-45 0 0 -155 0 -155 145 0 c122 0
145 -2 145 -15 0 -13 -23 -15 -145 -15 l-145 0 0 -515 0 -515 223 -2 c122 -1
201 -3 175 -5 -46 -4 -47 -5 -51 -41 l-4 -37 -1 38 -2 37 -170 0 -170 0 0
-170 0 -170 170 0 169 0 4 58 3 57 2 -57 2 -58 230 0 230 0 0 -65 c0 -36 -3
-65 -7 -65 -5 0 -8 -36 -8 -80 0 -44 3 -80 8 -80 4 0 7 -31 7 -70 l0 -70 265
0 c229 0 265 -2 265 -15 0 -11 -11 -15 -40 -15 l-40 0 0 -690 0 -690 125 0
c104 0 125 -2 125 -15 0 -13 21 -15 125 -15 104 0 125 2 125 15 0 13 26 15
170 15 l170 0 0 690 0 690 -300 0 c-260 0 -300 2 -300 15 0 8 4 15 9 15 6 0
12 19 14 43 l4 42 1 -42 2 -43 285 0 285 0 0 200 0 200 -285 0 -284 0 -4 -82
-3 -83 -2 83 -2 82 -145 0 c-122 0 -145 2 -145 15 0 12 16 15 80 15 l79 0 4
93 3 92 2 -92 2 -93 350 0 350 0 0 690 0 690 -120 0 c-100 0 -120 3 -120 15 0
13 -21 15 -125 15 -104 0 -125 -2 -125 -15 0 -12 -18 -15 -105 -15 l-105 0 0
-520 0 -520 -117 2 -118 2 113 3 112 4 0 514 0 515 -115 0 c-96 0 -115 3 -115
15 0 13 -21 15 -125 15 -104 0 -125 -2 -125 -15 0 -12 -19 -15 -115 -15 l-115
0 0 -515 0 -515 168 -3 c152 -2 148 -3 -43 -3 -115 0 -193 1 -172 3 l37 4 0
515 0 514 -110 0 c-91 0 -110 3 -110 15 0 12 19 15 115 15 l115 0 0 40 c0 22
5 40 10 40 6 0 10 11 10 25 0 14 -4 25 -10 25 -5 0 -10 16 -10 35 0 19 5 35
10 35 6 0 10 11 10 25 0 14 -4 25 -10 25 -5 0 -10 14 -10 30 0 27 -3 30 -30
30 -16 0 -30 5 -30 10 0 6 -11 10 -25 10 -14 0 -25 -4 -25 -10 0 -5 -16 -10
-35 -10 -19 0 -35 5 -35 10 0 6 -11 10 -25 10 -14 0 -25 -4 -25 -10 0 -5 -16
-10 -35 -10 -19 0 -35 5 -35 10 0 6 -11 10 -25 10 -14 0 -25 -4 -25 -10 0 -5
-16 -10 -35 -10 -19 0 -35 5 -35 10 0 6 -11 10 -25 10 -14 0 -25 -4 -25 -10 0
-5 -16 -10 -35 -10 -19 0 -35 5 -35 10 0 6 -11 10 -25 10 -14 0 -25 -4 -25
-10z"/>
<path d="M1290 1855 c0 -13 -76 -15 -620 -15 l-620 0 0 -215 0 -215 235 0 235
0 0 145 c0 122 2 145 15 145 13 0 15 -24 15 -160 l0 -160 -250 0 -250 0 0
-450 0 -450 105 0 c98 0 105 -1 105 -20 0 -19 7 -20 125 -20 118 0 125 1 125
20 0 20 7 20 285 20 l285 0 0 -25 0 -25 -160 0 c-153 0 -160 -1 -160 -20 0
-11 -7 -20 -15 -20 -8 0 -15 -7 -15 -15 0 -8 7 -15 15 -15 11 0 15 -12 15 -45
0 -33 -4 -45 -15 -45 -8 0 -15 -7 -15 -15 0 -8 7 -15 15 -15 10 0 15 -10 15
-30 0 -27 3 -30 30 -30 20 0 30 -5 30 -15 0 -8 7 -15 15 -15 8 0 15 7 15 15 0
11 12 15 45 15 33 0 45 -4 45 -15 0 -8 7 -15 15 -15 8 0 15 7 15 15 0 11 12
15 45 15 33 0 45 -4 45 -15 0 -8 7 -15 15 -15 8 0 15 7 15 15 0 11 12 15 45
15 33 0 45 -4 45 -15 0 -8 7 -15 15 -15 8 0 15 7 15 15 0 11 12 15 45 15 33 0
45 -4 45 -15 0 -8 7 -15 15 -15 8 0 15 7 15 15 0 11 12 15 45 15 33 0 45 -4
45 -15 0 -8 7 -15 15 -15 8 0 15 7 15 15 0 10 10 15 30 15 27 0 30 3 30 30 0
20 5 30 15 30 8 0 15 7 15 15 0 8 -7 15 -15 15 -11 0 -15 12 -15 45 0 33 4 45
15 45 8 0 15 7 15 15 0 8 -7 15 -15 15 -8 0 -15 9 -15 20 0 19 -7 20 -135 20
l-135 0 0 25 0 25 135 0 135 0 0 680 0 680 -40 0 c-29 0 -40 4 -40 15 0 12
-14 15 -70 15 -56 0 -70 -3 -70 -15z"/>
<path d="M2010 1855 c0 -13 -33 -15 -235 -15 l-235 0 0 -680 0 -680 105 0 c98
0 105 -1 105 -20 0 -19 7 -20 125 -20 118 0 125 1 125 20 0 20 7 20 315 20
l315 0 0 -25 0 -25 -165 0 -165 0 0 -40 c0 -29 -4 -40 -15 -40 -8 0 -15 -7
-15 -15 0 -8 7 -15 15 -15 11 0 15 -12 15 -45 0 -33 -4 -45 -15 -45 -8 0 -15
-7 -15 -15 0 -8 7 -15 15 -15 10 0 15 -10 15 -30 0 -27 3 -30 30 -30 20 0 30
-5 30 -15 0 -8 7 -15 15 -15 8 0 15 7 15 15 0 11 12 15 45 15 33 0 45 -4 45
-15 0 -8 7 -15 15 -15 8 0 15 7 15 15 0 11 12 15 45 15 33 0 45 -4 45 -15 0
-8 7 -15 15 -15 8 0 15 7 15 15 0 11 12 15 45 15 33 0 45 -4 45 -15 0 -8 7
-15 15 -15 8 0 15 7 15 15 0 11 12 15 45 15 33 0 45 -4 45 -15 0 -8 7 -15 15
-15 8 0 15 7 15 15 0 11 12 15 45 15 l45 0 0 145 0 145 -85 0 c-84 0 -85 0
-85 25 0 25 1 25 85 25 l85 0 0 450 0 450 -250 0 -250 0 0 160 c0 136 2 160
15 160 13 0 15 -23 15 -145 l0 -145 235 0 235 0 0 215 0 215 -405 0 c-353 0
-405 2 -405 15 0 12 -14 15 -70 15 -56 0 -70 -3 -70 -15z"/>
<path d="M3730 1855 c0 -13 -47 -15 -360 -15 l-360 0 0 -215 0 -215 235 0 235
0 0 145 c0 122 2 145 15 145 13 0 15 -24 15 -160 l0 -160 -250 0 -250 0 0
-450 0 -450 85 0 c84 0 85 0 85 -25 0 -25 -1 -25 -85 -25 l-85 0 0 -145 0
-145 45 0 c33 0 45 -4 45 -15 0 -8 7 -15 15 -15 8 0 15 7 15 15 0 11 12 15 45
15 33 0 45 -4 45 -15 0 -8 7 -15 15 -15 8 0 15 7 15 15 0 11 12 15 45 15 33 0
45 -4 45 -15 0 -8 7 -15 15 -15 8 0 15 7 15 15 0 11 12 15 45 15 33 0 45 -4
45 -15 0 -8 7 -15 15 -15 8 0 15 7 15 15 0 11 12 15 45 15 33 0 45 -4 45 -15
0 -8 7 -15 15 -15 8 0 15 7 15 15 0 10 10 15 30 15 27 0 30 3 30 30 0 20 5 30
15 30 8 0 15 7 15 15 0 8 -7 15 -15 15 -11 0 -15 12 -15 45 0 33 4 45 15 45 8
0 15 7 15 15 0 8 -7 15 -15 15 -11 0 -15 11 -15 40 l0 40 -165 0 -165 0 0 25
0 25 315 0 c308 0 315 0 315 -20 0 -19 7 -20 125 -20 118 0 125 1 125 20 0 19
7 20 105 20 l105 0 0 680 0 680 -280 0 c-242 0 -280 2 -280 15 0 12 -14 15
-70 15 -56 0 -70 -3 -70 -15z"/>
</g>
</svg>
