<?xml version="1.0" standalone="no"?>
<!DOCTYPE svg PUBLIC "-//W3C//DTD SVG 20010904//EN"
 "http://www.w3.org/TR/2001/REC-SVG-20010904/DTD/svg10.dtd">
<svg version="1.0" xmlns="http://www.w3.org/2000/svg"
 width="534.000000pt" height="431.000000pt" viewBox="0 0 534.000000 431.000000"
 preserveAspectRatio="xMidYMid meet">
<metadata>
Created by potrace 1.11, written by Peter Selinger 2001-2013
</metadata>
<g transform="translate(0.000000,431.000000) scale(0.100000,-0.100000)"
fill="#000000" stroke="none">
<path d="M470 3870 c0 -19 -7 -20 -190 -20 l-190 0 0 -305 c0 -298 0 -305 -20
-305 -19 0 -20 -7 -20 -125 0 -118 1 -125 20 -125 20 0 20 -7 20 -270 0 -263
0 -270 -20 -270 -19 0 -20 -7 -20 -125 0 -118 1 -125 20 -125 19 0 20 -7 20
-125 l0 -125 825 0 825 0 0 80 c0 64 3 80 15 80 12 0 15 14 15 70 0 56 -3 70
-15 70 -11 0 -15 12 -15 50 l0 50 -215 0 -215 0 0 35 c0 24 5 35 15 35 8 0 15
-9 15 -20 0 -19 7 -20 200 -20 l200 0 0 90 0 90 -215 0 -215 0 0 75 c0 60 3
75 15 75 12 0 15 -13 15 -60 l0 -60 200 0 200 0 0 225 0 225 -200 0 -200 0 0
-95 c0 -78 -3 -95 -15 -95 -12 0 -15 19 -15 110 l0 110 215 0 215 0 0 390 0
390 -125 0 c-118 0 -125 1 -125 20 0 19 -7 20 -125 20 -118 0 -125 -1 -125
-20 0 -19 -7 -20 -260 -20 -253 0 -260 1 -260 20 0 19 -7 20 -125 20 -118 0
-125 -1 -125 -20z"/>
<path d="M3850 3870 c0 -19 -7 -20 -125 -20 l-125 0 0 -315 0 -315 225 0 225
0 0 -85 c0 -69 -3 -85 -15 -85 -12 0 -15 14 -15 70 l0 70 -210 0 -210 0 0
-175 0 -175 210 0 210 0 0 35 c0 24 5 35 15 35 13 0 15 -23 15 -150 0 -127 -2
-150 -15 -150 -12 0 -15 18 -15 100 l0 100 -95 0 -95 0 0 -100 c0 -82 -3 -100
-15 -100 -12 0 -15 18 -15 100 l0 100 -100 0 -100 0 0 -195 0 -195 100 0 100
0 0 25 c0 16 6 25 15 25 9 0 15 -9 15 -25 0 -25 0 -25 95 -25 95 0 95 0 95 25
0 16 6 25 15 25 9 0 15 -9 15 -25 0 -14 5 -25 10 -25 6 0 10 -11 10 -25 l0
-25 -235 0 -235 0 0 -210 0 -210 185 0 185 0 0 -535 0 -535 90 0 c73 0 90 -3
90 -15 0 -12 -17 -15 -90 -15 l-90 0 0 -35 c0 -24 -5 -35 -15 -35 -12 0 -15
-14 -15 -70 0 -56 3 -70 15 -70 12 0 15 -15 15 -75 l0 -75 105 0 c98 0 105 -1
105 -20 0 -19 7 -20 125 -20 118 0 125 1 125 20 0 11 5 20 10 20 6 0 10 67 10
180 l0 180 -80 0 c-64 0 -80 3 -80 15 0 12 17 15 95 15 l95 0 0 -195 0 -195
150 0 c143 0 150 -1 150 -20 0 -19 7 -20 125 -20 118 0 125 1 125 20 0 19 7
20 110 20 l110 0 0 275 0 275 25 0 25 0 0 125 0 125 -25 0 -25 0 0 190 c0 183
1 190 20 190 19 0 20 7 20 125 0 118 -1 125 -20 125 -19 0 -20 7 -20 225 l0
225 -355 0 -355 0 0 25 0 25 355 0 355 0 0 715 0 715 -185 0 c-178 0 -185 1
-185 20 0 19 -7 20 -125 20 -118 0 -125 -1 -125 -20 0 -19 -7 -20 -265 -20
-258 0 -265 1 -265 20 0 19 -7 20 -125 20 -118 0 -125 -1 -125 -20z"/>
<path d="M1790 1915 c0 -13 -101 -15 -850 -15 l-850 0 0 -115 c0 -108 -1 -115
-20 -115 -19 0 -20 -7 -20 -125 0 -118 1 -125 20 -125 20 0 20 -7 20 -465 l0
-465 180 0 c173 0 180 -1 180 -20 0 -19 7 -20 125 -20 118 0 125 1 125 20 0
19 7 20 265 20 l265 0 0 -25 c0 -25 0 -25 -95 -25 l-95 0 0 -135 0 -135 25 0
c16 0 25 -6 25 -15 0 -8 7 -15 15 -15 8 0 15 5 15 11 0 16 73 1 83 -17 10 -17
37 -18 37 -1 0 9 12 11 40 9 26 -3 40 -9 40 -18 0 -8 2 -14 4 -14 2 0 11 -3
20 -6 11 -4 16 -1 16 10 0 10 9 16 24 16 35 0 56 -10 56 -26 0 -8 9 -14 20
-14 12 0 20 7 20 16 0 11 5 14 16 10 9 -3 26 -6 39 -6 14 0 25 -7 28 -20 6
-23 37 -27 37 -5 0 8 8 15 18 15 33 0 62 -12 62 -26 0 -8 7 -14 15 -14 8 0 15
7 15 15 0 11 12 15 45 15 33 0 45 -4 45 -15 0 -8 7 -15 15 -15 8 0 15 7 15 15
0 11 12 15 45 15 33 0 45 -4 45 -15 0 -8 7 -15 15 -15 8 0 15 7 15 15 0 11 12
15 45 15 33 0 45 -4 45 -15 0 -8 7 -15 15 -15 8 0 15 7 15 15 0 11 12 15 45
15 33 0 45 -4 45 -15 0 -8 7 -15 15 -15 8 0 15 7 15 15 0 11 12 15 45 15 33 0
45 -4 45 -15 0 -8 7 -15 15 -15 8 0 15 7 15 15 0 11 12 15 45 15 l45 0 0 175
0 175 -150 0 -150 0 0 25 0 25 150 0 150 0 0 355 0 355 -235 0 c-217 0 -235 1
-235 18 0 16 17 17 235 14 l235 -3 0 81 0 81 -235 -3 -235 -3 0 83 c0 66 3 82
15 82 12 0 15 -14 15 -65 l0 -65 220 0 220 0 0 240 0 240 -220 0 -220 0 0
-105 c0 -87 -3 -105 -15 -105 -12 0 -15 20 -15 120 l0 120 -70 0 c-56 0 -70
-3 -70 -15z m170 -1450 l0 -25 -240 0 -240 0 0 25 0 25 240 0 240 0 0 -25z"/>
<path d="M3070 1915 c0 -12 -15 -15 -75 -15 l-75 0 0 -105 c0 -87 -3 -105 -15
-105 -12 0 -15 18 -15 105 l0 105 -220 0 -220 0 0 -270 0 -270 220 0 220 0 0
95 c0 78 3 95 15 95 12 0 15 -19 15 -110 l0 -110 -235 0 -235 0 0 -420 0 -420
205 0 205 0 0 -25 0 -25 -205 0 -205 0 0 -175 0 -175 45 0 c33 0 45 -4 45 -15
0 -8 7 -15 15 -15 8 0 15 7 15 15 0 11 12 15 45 15 33 0 45 -4 45 -15 0 -8 7
-15 15 -15 8 0 15 7 15 15 0 11 12 15 45 15 33 0 45 -4 45 -15 0 -8 7 -15 15
-15 8 0 15 7 15 15 0 11 12 15 45 15 33 0 45 -4 45 -15 0 -8 7 -15 15 -15 8 0
15 7 15 15 0 11 12 15 45 15 33 0 45 -4 45 -15 0 -8 7 -15 15 -15 8 0 15 7 15
15 0 8 5 15 10 15 6 0 10 14 10 30 0 20 5 30 15 30 8 0 15 7 15 15 0 8 -7 15
-15 15 -11 0 -15 12 -15 45 0 33 4 45 15 45 8 0 15 7 15 15 0 8 -7 15 -15 15
-11 0 -15 12 -15 45 0 33 4 45 15 45 8 0 15 7 15 15 0 8 -7 15 -15 15 -8 0
-15 5 -15 10 0 6 -16 10 -35 10 -31 0 -35 3 -35 25 l0 25 175 0 175 0 0 705 0
705 -70 0 c-56 0 -70 3 -70 15 0 12 -14 15 -70 15 -56 0 -70 -3 -70 -15z"/>
</g>
</svg>
