<?xml version="1.0" standalone="no"?>
<!DOCTYPE svg PUBLIC "-//W3C//DTD SVG 20010904//EN"
 "http://www.w3.org/TR/2001/REC-SVG-20010904/DTD/svg10.dtd">
<svg version="1.0" xmlns="http://www.w3.org/2000/svg"
 width="610.000000pt" height="413.000000pt" viewBox="0 0 610.000000 413.000000"
 preserveAspectRatio="xMidYMid meet">
<metadata>
Created by potrace 1.11, written by Peter Selinger 2001-2013
</metadata>
<g transform="translate(0.000000,413.000000) scale(0.100000,-0.100000)"
fill="#000000" stroke="none">
<path d="M90 3725 c0 -10 -10 -15 -30 -15 -27 0 -30 -3 -30 -30 0 -20 -5 -30
-15 -30 -8 0 -15 -7 -15 -15 0 -8 7 -15 15 -15 11 0 15 -12 15 -45 0 -33 -4
-45 -15 -45 -8 0 -15 -7 -15 -15 0 -8 7 -15 15 -15 11 0 15 -12 15 -45 0 -33
-4 -45 -15 -45 -8 0 -15 -7 -15 -15 0 -8 7 -15 15 -15 10 0 15 -10 15 -30 0
-27 3 -30 30 -30 20 0 30 -5 30 -15 0 -8 7 -15 15 -15 8 0 15 7 15 15 0 11 12
15 45 15 33 0 45 -4 45 -15 0 -8 7 -15 15 -15 8 0 15 7 15 15 0 12 13 15 55
15 l55 0 0 -355 0 -355 180 0 180 0 0 -85 c0 -69 -3 -85 -15 -85 -12 0 -15 14
-15 70 l0 70 -165 0 -165 0 0 -195 0 -195 165 0 165 0 0 55 c0 42 3 55 15 55
12 0 15 -13 15 -55 l0 -55 195 0 c167 0 195 -2 195 -15 0 -12 14 -15 70 -15
56 0 70 3 70 15 0 13 20 15 120 15 l120 0 0 615 0 615 -50 0 c-43 0 -50 3 -50
20 0 19 -7 20 -125 20 -118 0 -125 -1 -125 -20 0 -19 -7 -20 -120 -20 -108 0
-120 2 -120 18 0 33 12 62 26 62 8 0 14 7 14 15 0 8 -7 15 -15 15 -11 0 -15
12 -15 45 0 33 4 45 15 45 8 0 15 7 15 15 0 8 -7 15 -15 15 -10 0 -15 10 -15
30 0 27 -3 30 -30 30 -20 0 -30 5 -30 15 0 8 -7 15 -15 15 -8 0 -15 -7 -15
-15 0 -11 -12 -15 -45 -15 -33 0 -45 4 -45 15 0 8 -7 15 -15 15 -8 0 -15 -7
-15 -15 0 -11 -12 -15 -45 -15 -33 0 -45 4 -45 15 0 8 -7 15 -15 15 -8 0 -15
-7 -15 -15 0 -11 -12 -15 -45 -15 -33 0 -45 4 -45 15 0 8 -7 15 -15 15 -8 0
-15 -7 -15 -15 0 -11 -12 -15 -45 -15 -33 0 -45 4 -45 15 0 8 -7 15 -15 15 -8
0 -15 -7 -15 -15 0 -11 -12 -15 -45 -15 -33 0 -45 4 -45 15 0 8 -7 15 -15 15
-8 0 -15 -7 -15 -15 0 -11 -12 -15 -45 -15 -33 0 -45 4 -45 15 0 8 -7 15 -15
15 -8 0 -15 -7 -15 -15z"/>
<path d="M2140 3715 c0 -10 -10 -15 -30 -15 -27 0 -30 -3 -30 -30 0 -20 -5
-30 -15 -30 -8 0 -15 -7 -15 -15 0 -8 7 -15 15 -15 11 0 15 -12 15 -45 0 -33
-4 -45 -15 -45 -8 0 -15 -7 -15 -15 0 -8 7 -15 15 -15 10 0 15 -11 15 -35 l0
-35 -95 0 c-88 0 -95 1 -95 20 0 19 -7 20 -125 20 -118 0 -125 -1 -125 -20 0
-18 -7 -20 -65 -20 l-65 0 0 -615 0 -615 305 0 c264 0 305 -2 305 -15 0 -12
14 -15 70 -15 l70 0 0 70 c0 56 3 70 15 70 12 0 15 -13 15 -55 l0 -55 165 0
165 0 0 195 0 195 -165 0 -165 0 0 -70 c0 -56 -3 -70 -15 -70 -12 0 -15 16
-15 85 l0 85 180 0 180 0 0 545 0 545 -45 0 c-33 0 -45 4 -45 15 0 8 -7 15
-15 15 -8 0 -15 -7 -15 -15 0 -11 -12 -15 -45 -15 -33 0 -45 4 -45 15 0 8 -7
15 -15 15 -8 0 -15 -7 -15 -15 0 -11 -12 -15 -45 -15 -33 0 -45 4 -45 15 0 8
-7 15 -15 15 -8 0 -15 -7 -15 -15 0 -11 -12 -15 -45 -15 -33 0 -45 4 -45 15 0
8 -7 15 -15 15 -8 0 -15 -7 -15 -15z"/>
<path d="M2760 3715 c0 -11 -12 -15 -45 -15 l-45 0 0 -545 0 -545 195 0 c167
0 195 -2 195 -15 0 -8 -7 -15 -15 -15 -12 0 -15 -14 -15 -70 0 -56 -3 -70 -15
-70 -12 0 -15 14 -15 70 l0 70 -165 0 -165 0 0 -195 0 -195 165 0 165 0 0 55
c0 42 3 55 15 55 12 0 15 -13 15 -55 l0 -55 55 0 c42 0 55 -3 55 -15 0 -12 14
-15 70 -15 56 0 70 3 70 15 0 13 34 15 250 15 l250 0 0 50 c0 38 4 50 15 50
11 0 15 -12 15 -50 l0 -50 295 0 295 0 0 615 0 615 -160 0 c-153 0 -160 1
-160 20 0 19 -7 20 -125 20 -118 0 -125 -1 -125 -20 0 -11 -4 -20 -10 -20 -7
0 -10 -172 -10 -495 0 -433 -2 -495 -15 -495 -8 0 -15 7 -15 15 0 13 -22 15
-135 15 -113 0 -135 2 -135 15 0 13 22 15 135 15 l135 0 0 465 0 465 -100 0
c-93 0 -100 1 -100 20 0 19 -7 20 -125 20 -118 0 -125 -1 -125 -20 0 -17 -7
-20 -50 -20 l-50 0 0 -465 0 -465 70 0 c56 0 70 -3 70 -15 0 -12 -16 -15 -85
-15 l-85 0 0 499 c0 275 3 506 6 515 3 9 12 16 20 16 8 0 14 7 14 15 0 8 -7
15 -15 15 -11 0 -15 12 -15 45 0 33 4 45 15 45 8 0 15 7 15 15 0 8 -7 15 -15
15 -10 0 -15 10 -15 30 0 27 -3 30 -30 30 -20 0 -30 5 -30 15 0 8 -7 15 -15
15 -8 0 -15 -7 -15 -15 0 -11 -12 -15 -45 -15 -33 0 -45 4 -45 15 0 8 -7 15
-15 15 -8 0 -15 -7 -15 -15 0 -11 -12 -15 -45 -15 -33 0 -45 4 -45 15 0 8 -7
15 -15 15 -8 0 -15 -7 -15 -15 0 -11 -12 -15 -45 -15 -33 0 -45 4 -45 15 0 8
-7 15 -15 15 -8 0 -15 -7 -15 -15z"/>
<path d="M1100 1815 c0 -13 -28 -15 -195 -15 l-195 0 0 -55 c0 -42 -3 -55 -15
-55 -12 0 -15 13 -15 55 l0 55 -165 0 -165 0 0 -195 0 -195 165 0 165 0 0 70
c0 56 3 70 15 70 12 0 15 -16 15 -85 l0 -85 -180 0 -180 0 0 -275 0 -275 -55
0 c-42 0 -55 3 -55 15 0 8 -7 15 -15 15 -8 0 -15 -7 -15 -15 0 -11 -12 -15
-45 -15 -33 0 -45 4 -45 15 0 8 -7 15 -15 15 -8 0 -15 -7 -15 -15 0 -10 -10
-15 -30 -15 -27 0 -30 -3 -30 -30 0 -20 -5 -30 -15 -30 -8 0 -15 -7 -15 -15 0
-8 7 -15 15 -15 11 0 15 -12 15 -45 0 -33 -4 -45 -15 -45 -8 0 -15 -7 -15 -15
0 -8 7 -15 15 -15 11 0 15 -12 15 -45 0 -33 -4 -45 -15 -45 -8 0 -15 -7 -15
-15 0 -8 7 -15 15 -15 10 0 15 -10 15 -30 0 -27 3 -30 30 -30 20 0 30 -5 30
-15 0 -8 7 -15 15 -15 8 0 15 7 15 15 0 11 12 15 45 15 33 0 45 -4 45 -15 0
-8 7 -15 15 -15 8 0 15 7 15 15 0 11 12 15 45 15 33 0 45 -4 45 -15 0 -8 7
-15 15 -15 8 0 15 7 15 15 0 11 12 15 45 15 33 0 45 -4 45 -15 0 -8 7 -15 15
-15 8 0 15 7 15 15 0 11 12 15 45 15 33 0 45 -4 45 -15 0 -8 7 -15 15 -15 8 0
15 7 15 15 0 11 12 15 45 15 33 0 45 -4 45 -15 0 -8 7 -15 15 -15 8 0 15 7 15
15 0 11 12 15 45 15 33 0 45 -4 45 -15 0 -8 7 -15 15 -15 8 0 15 7 15 15 0 10
10 15 30 15 27 0 30 3 30 30 0 20 5 30 15 30 8 0 15 7 15 15 0 8 -7 15 -15 15
-11 0 -15 12 -15 45 0 33 4 45 15 45 8 0 15 7 15 15 0 8 -7 15 -15 15 -11 0
-15 11 -15 40 l0 40 115 0 c108 0 115 -1 115 -20 0 -19 7 -20 125 -20 118 0
125 1 125 20 0 17 7 20 50 20 l50 0 0 535 0 535 -120 0 c-100 0 -120 3 -120
15 0 12 -14 15 -70 15 -56 0 -70 -3 -70 -15z"/>
<path d="M2120 1815 c0 -13 -41 -15 -305 -15 l-305 0 0 -535 0 -535 65 0 c58
0 65 -2 65 -20 0 -19 7 -20 125 -20 118 0 125 1 125 20 0 19 7 20 95 20 l95 0
0 -35 c0 -24 -5 -35 -15 -35 -8 0 -15 -7 -15 -15 0 -8 7 -15 15 -15 11 0 15
-12 15 -45 0 -33 -4 -45 -15 -45 -8 0 -15 -7 -15 -15 0 -8 7 -15 15 -15 10 0
15 -10 15 -30 0 -27 3 -30 30 -30 20 0 30 -5 30 -15 0 -8 7 -15 15 -15 8 0 15
7 15 15 0 11 12 15 45 15 33 0 45 -4 45 -15 0 -8 7 -15 15 -15 8 0 15 7 15 15
0 11 12 15 45 15 33 0 45 -4 45 -15 0 -8 7 -15 15 -15 8 0 15 7 15 15 0 11 12
15 45 15 33 0 45 -4 45 -15 0 -8 7 -15 15 -15 8 0 15 7 15 15 0 11 12 15 45
15 l45 0 0 465 0 465 -180 0 -180 0 0 85 c0 69 3 85 15 85 12 0 15 -14 15 -70
l0 -70 165 0 165 0 0 195 0 195 -165 0 -165 0 0 -55 c0 -42 -3 -55 -15 -55
-12 0 -15 14 -15 70 l0 70 -70 0 c-56 0 -70 -3 -70 -15z"/>
<path d="M3140 1815 c0 -12 -13 -15 -55 -15 l-55 0 0 -55 c0 -42 -3 -55 -15
-55 -12 0 -15 13 -15 55 l0 55 -165 0 -165 0 0 -195 0 -195 165 0 165 0 0 70
c0 56 3 70 15 70 12 0 15 -16 15 -85 l0 -85 -180 0 -180 0 0 -465 0 -465 45 0
c33 0 45 -4 45 -15 0 -8 7 -15 15 -15 8 0 15 7 15 15 0 11 12 15 45 15 33 0
45 -4 45 -15 0 -8 7 -15 15 -15 8 0 15 7 15 15 0 11 12 15 45 15 33 0 45 -4
45 -15 0 -8 7 -15 15 -15 8 0 15 7 15 15 0 11 12 15 45 15 33 0 45 -4 45 -15
0 -8 7 -15 15 -15 8 0 15 7 15 15 0 10 10 15 30 15 27 0 30 3 30 30 0 20 5 30
15 30 8 0 15 7 15 15 0 8 -7 15 -15 15 -11 0 -15 12 -15 45 0 33 4 45 15 45 8
0 15 7 15 15 0 8 -7 15 -15 15 -10 0 -15 11 -15 35 l0 35 60 0 c53 0 60 -2 60
-20 0 -19 7 -20 125 -20 118 0 125 1 125 20 0 19 7 20 100 20 l100 0 0 535 0
535 -250 0 c-216 0 -250 2 -250 15 0 12 -14 15 -70 15 -56 0 -70 -3 -70 -15z"/>
<path d="M4360 1690 c0 -118 -2 -140 -15 -140 -13 0 -15 21 -15 125 l0 125
-260 0 -260 0 0 -535 c0 -350 3 -535 10 -535 6 0 10 -9 10 -20 0 -19 7 -20
125 -20 118 0 125 1 125 20 0 19 7 20 125 20 l125 0 0 340 c0 296 2 340 15
340 13 0 15 -21 15 -130 l0 -130 70 0 c56 0 70 -3 70 -15 0 -12 -14 -15 -70
-15 l-70 0 0 -195 0 -195 175 0 175 0 0 195 0 195 -40 0 c-29 0 -40 4 -40 15
0 12 13 15 55 15 l55 0 0 -210 0 -210 375 0 375 0 0 150 0 150 25 0 25 0 0
-150 0 -150 115 0 c108 0 115 1 115 20 0 11 7 20 15 20 8 0 15 7 15 15 0 8 -7
15 -15 15 -11 0 -15 12 -15 45 0 33 4 45 15 45 8 0 15 7 15 15 0 8 -7 15 -15
15 -11 0 -15 12 -15 45 0 33 4 45 15 45 8 0 15 7 15 15 0 8 -7 15 -15 15 -11
0 -15 12 -15 45 0 33 4 45 15 45 8 0 15 7 15 15 0 8 -7 15 -15 15 -11 0 -15
12 -15 45 0 33 4 45 15 45 8 0 15 7 15 15 0 8 -7 15 -15 15 -11 0 -15 12 -15
45 0 33 4 45 15 45 8 0 15 7 15 15 0 8 -7 15 -15 15 -11 0 -15 12 -15 45 0 33
4 45 15 45 8 0 15 7 15 15 0 8 -7 15 -15 15 -11 0 -15 12 -15 45 0 33 4 45 15
45 8 0 15 7 15 15 0 8 -7 15 -15 15 -11 0 -15 12 -15 45 0 33 4 45 15 45 8 0
15 7 15 15 0 8 -7 15 -15 15 -8 0 -15 9 -15 20 0 19 -7 20 -115 20 l-115 0 0
-135 0 -135 -25 0 -25 0 0 135 0 135 -375 0 -375 0 0 -125 c0 -104 -2 -125
-15 -125 -13 0 -15 21 -15 125 l0 125 -105 0 c-87 0 -105 3 -105 15 0 12 -14
15 -70 15 l-70 0 0 -140z m380 -330 l0 -50 375 0 375 0 0 40 c0 36 3 40 25 40
l25 0 0 -110 0 -110 -25 0 c-24 0 -25 3 -25 55 l0 55 -390 0 -390 0 0 65 c0
51 3 65 15 65 11 0 15 -12 15 -50z"/>
</g>
</svg>
