<?xml version="1.0" standalone="no"?>
<!DOCTYPE svg PUBLIC "-//W3C//DTD SVG 20010904//EN"
 "http://www.w3.org/TR/2001/REC-SVG-20010904/DTD/svg10.dtd">
<svg version="1.0" xmlns="http://www.w3.org/2000/svg"
 width="535.000000pt" height="413.000000pt" viewBox="0 0 535.000000 413.000000"
 preserveAspectRatio="xMidYMid meet">
<metadata>
Created by potrace 1.11, written by Peter Selinger 2001-2013
</metadata>
<g transform="translate(0.000000,413.000000) scale(0.100000,-0.100000)"
fill="#000000" stroke="none">
<path d="M1799 4080 c-169 -16 -321 -51 -516 -122 l-83 -30 0 -739 0 -739 300
0 300 0 0 -25 0 -25 -275 0 -275 0 0 -25 c0 -20 -5 -25 -25 -25 l-25 0 0 -250
0 -250 25 0 c23 0 25 -3 25 -50 0 -47 -2 -50 -25 -50 l-25 0 0 -255 0 -255 25
0 c23 0 25 -3 25 -50 0 -47 -2 -50 -25 -50 l-25 0 0 -435 0 -436 48 -20 c220
-95 382 -130 620 -137 l182 -4 0 456 0 456 -155 0 -155 0 0 75 c0 60 3 75 15
75 12 0 15 -13 15 -60 l0 -60 140 0 140 0 0 185 0 185 -140 0 -140 0 0 -75 c0
-60 -3 -75 -15 -75 -12 0 -15 17 -15 90 l0 90 155 0 155 0 0 270 c0 173 4 270
10 270 6 0 10 37 10 90 0 53 -4 90 -10 90 -6 0 -10 102 -10 285 l0 285 -155 0
-155 0 0 145 c0 122 2 145 15 145 13 0 15 -21 15 -130 l0 -130 140 0 140 0 0
230 0 230 -140 0 -140 0 0 -50 c0 -38 -4 -50 -15 -50 -12 0 -15 14 -15 65 l0
65 155 0 155 0 0 415 0 415 -82 -1 c-46 -1 -121 -5 -169 -9z"/>
<path d="M3300 3676 l0 -416 155 0 155 0 0 -65 c0 -51 -3 -65 -15 -65 -11 0
-15 12 -15 50 l0 50 -140 0 -140 0 0 -230 0 -230 140 0 140 0 0 130 c0 109 2
130 15 130 13 0 15 -23 15 -145 l0 -145 -155 0 -155 0 0 -285 c0 -183 -4 -285
-10 -285 -6 0 -10 -37 -10 -90 0 -75 3 -90 16 -90 14 0 15 -23 8 -220 -6 -200
-5 -220 10 -220 9 0 16 -7 16 -15 0 -8 -7 -15 -15 -15 -13 0 -15 -30 -15 -210
l0 -210 140 0 140 0 0 135 0 135 -35 0 c-24 0 -35 5 -35 15 0 10 11 15 35 15
l35 0 0 60 0 60 -75 0 c-60 0 -75 3 -75 15 0 12 17 15 90 15 l90 0 0 -240 0
-240 -155 0 -155 0 0 -481 0 -481 183 4 c237 7 399 42 620 137 l47 20 0 436 0
435 -25 0 c-23 0 -25 3 -25 50 0 47 2 50 25 50 l25 0 0 255 0 255 -25 0 c-23
0 -25 3 -25 50 0 47 2 50 25 50 l25 0 0 250 0 250 -25 0 c-20 0 -25 5 -25 25
l0 25 -275 0 -275 0 0 25 0 25 300 0 300 0 0 739 0 739 -83 30 c-227 82 -395
117 -625 128 l-142 7 0 -417z"/>
<path d="M2600 1815 c0 -12 -18 -15 -100 -15 l-100 0 0 -100 c0 -82 -3 -100
-15 -100 -12 0 -15 18 -15 100 l0 100 -135 0 -135 0 0 -270 0 -270 135 0 135
0 0 120 c0 100 3 120 15 120 13 0 15 -22 15 -135 l0 -135 -75 0 c-43 0 -75 -4
-75 -10 0 -6 -32 -10 -75 -10 l-75 0 0 -360 0 -360 115 0 115 0 0 -25 0 -25
-115 0 -115 0 0 -95 0 -95 40 0 c29 0 40 -4 40 -15 0 -8 7 -15 15 -15 8 0 15
7 15 15 0 11 12 15 45 15 33 0 45 -4 45 -15 0 -8 7 -15 15 -15 8 0 15 7 15 15
0 27 77 19 114 -12 17 -14 30 -31 28 -36 -2 -6 0 -17 3 -25 4 -11 8 -12 20 -2
23 19 75 -27 68 -59 -5 -22 -3 -23 21 -17 21 5 34 1 58 -19 l30 -25 39 31 c21
17 39 26 39 20 0 -6 7 -11 16 -11 11 0 15 6 11 20 -6 24 47 70 78 67 14 -1 19
3 17 15 -4 28 59 68 106 68 31 0 42 -4 42 -15 0 -8 7 -15 15 -15 8 0 15 7 15
15 0 11 12 15 45 15 33 0 45 -4 45 -15 0 -8 7 -15 15 -15 8 0 15 7 15 15 0 11
11 15 40 15 l40 0 0 95 0 95 -150 0 -150 0 0 25 0 25 150 0 150 0 0 655 0 655
-250 0 c-216 0 -250 2 -250 15 0 12 -15 15 -75 15 -60 0 -75 -3 -75 -15z"/>
</g>
</svg>
