<?xml version="1.0" standalone="no"?>
<!DOCTYPE svg PUBLIC "-//W3C//DTD SVG 20010904//EN"
 "http://www.w3.org/TR/2001/REC-SVG-20010904/DTD/svg10.dtd">
<svg version="1.0" xmlns="http://www.w3.org/2000/svg"
 width="562.000000pt" height="413.000000pt" viewBox="0 0 562.000000 413.000000"
 preserveAspectRatio="xMidYMid meet">
<metadata>
Created by potrace 1.11, written by Peter Selinger 2001-2013
</metadata>
<g transform="translate(0.000000,413.000000) scale(0.100000,-0.100000)"
fill="#000000" stroke="none">
<path d="M1320 3930 c0 -5 -13 -10 -30 -10 -27 0 -30 -3 -30 -30 0 -16 -4 -30
-10 -30 -5 0 -10 -11 -10 -25 0 -14 5 -25 10 -25 6 0 10 -16 10 -35 0 -19 -4
-35 -10 -35 -5 0 -10 -11 -10 -25 0 -14 5 -25 10 -25 6 0 10 -18 10 -40 l0
-40 210 0 c180 0 210 -2 210 -15 0 -13 -23 -15 -145 -15 l-145 0 0 -465 0
-465 -167 2 -168 2 163 3 162 3 0 460 0 460 -85 0 c-69 0 -85 3 -85 15 0 13
-21 15 -125 15 -104 0 -125 -2 -125 -15 0 -13 -21 -15 -125 -15 l-125 0 0
-460 0 -459 98 -4 97 -3 -102 -2 -103 -2 0 465 0 465 -85 0 c-69 0 -85 3 -85
15 0 13 -21 15 -125 15 -104 0 -125 -2 -125 -15 0 -12 -20 -15 -120 -15 l-120
0 0 -635 0 -635 330 0 329 0 4 93 3 92 2 -92 2 -93 75 0 c60 0 75 -3 75 -15 0
-13 -23 -15 -150 -15 l-149 0 -4 -77 -3 -78 -2 78 -2 77 -255 0 -255 0 0 -185
0 -185 254 0 255 0 4 33 c3 24 4 21 5 -15 l2 -48 -260 0 -260 0 0 -635 0 -635
140 0 c118 0 140 -2 140 -15 0 -13 21 -15 125 -15 104 0 125 2 125 15 0 12 18
15 100 15 l100 0 0 635 0 635 -25 0 c-16 0 -25 6 -25 15 0 13 46 15 350 15
l350 0 0 35 c0 19 3 35 8 35 4 0 7 36 7 80 0 44 -3 80 -7 80 -5 0 -8 38 -8 85
l0 85 85 0 84 0 4 58 3 57 2 -57 2 -58 170 0 170 0 0 170 0 170 -169 0 -170 0
-4 -37 -4 -38 -1 37 c-2 29 -6 37 -24 41 -13 2 66 5 175 6 l197 1 0 460 0 460
-50 0 c-38 0 -50 4 -50 15 0 11 12 15 50 15 l50 0 0 155 0 155 -45 0 c-25 0
-45 5 -45 10 0 6 -11 10 -25 10 -14 0 -25 -4 -25 -10 0 -5 -16 -10 -35 -10
-19 0 -35 5 -35 10 0 6 -11 10 -25 10 -14 0 -25 -4 -25 -10 0 -5 -16 -10 -35
-10 -19 0 -35 5 -35 10 0 6 -11 10 -25 10 -14 0 -25 -4 -25 -10 0 -5 -16 -10
-35 -10 -19 0 -35 5 -35 10 0 6 -11 10 -25 10 -14 0 -25 -4 -25 -10 0 -5 -16
-10 -35 -10 -19 0 -35 5 -35 10 0 6 -11 10 -25 10 -14 0 -25 -4 -25 -10z"/>
<path d="M3110 3925 c0 -11 -12 -15 -45 -15 l-45 0 0 -145 0 -145 50 0 c47 0
50 -2 50 -25 0 -23 -3 -25 -50 -25 l-50 0 0 -450 0 -450 195 0 c167 0 195 -2
195 -15 0 -8 -9 -15 -20 -15 -16 0 -20 -7 -20 -35 0 -24 -5 -35 -15 -35 -10 0
-15 11 -15 35 l0 35 -160 0 -160 0 0 -160 0 -160 160 0 160 0 0 55 c0 42 3 55
15 55 12 0 15 -13 15 -55 l0 -55 85 0 85 0 0 -95 c0 -57 -4 -95 -10 -95 -6 0
-10 -30 -10 -70 0 -40 4 -70 10 -70 6 0 10 -16 10 -35 l0 -35 420 0 420 0 0
30 c0 20 5 30 15 30 10 0 15 -10 15 -30 l0 -30 245 0 245 0 0 175 0 175 -245
0 -245 0 0 -75 c0 -60 -3 -75 -15 -75 -12 0 -15 15 -15 75 l0 75 -150 0 -150
0 0 25 0 25 435 0 435 0 0 -140 0 -140 35 0 c24 0 35 -5 35 -15 0 -8 7 -15 15
-15 8 0 15 7 15 15 0 11 12 15 45 15 33 0 45 -4 45 -15 0 -8 7 -15 15 -15 8 0
15 7 15 15 0 11 12 15 45 15 33 0 45 -4 45 -15 0 -8 7 -15 15 -15 8 0 15 7 15
15 0 11 12 15 45 15 33 0 45 -4 45 -15 0 -8 7 -15 15 -15 8 0 15 7 15 15 0 11
12 15 45 15 33 0 45 -4 45 -15 0 -8 7 -15 15 -15 8 0 15 7 15 15 0 10 10 15
30 15 l30 0 0 710 0 710 -320 0 -320 0 0 -410 0 -410 -455 0 c-398 0 -455 2
-455 15 0 13 54 15 430 15 l430 0 0 450 0 450 -95 0 c-88 0 -95 1 -95 20 0 19
-7 20 -125 20 -118 0 -125 -1 -125 -20 0 -19 -7 -20 -215 -20 -208 0 -215 1
-215 20 0 19 -7 20 -125 20 -118 0 -125 -1 -125 -20 0 -19 -7 -20 -100 -20
l-100 0 0 -450 0 -450 160 0 c136 0 160 -2 160 -15 0 -13 -26 -15 -175 -15
l-175 0 0 465 0 465 -145 0 -145 0 0 25 0 25 210 0 210 0 0 40 c0 29 4 40 15
40 8 0 15 7 15 15 0 8 -7 15 -15 15 -11 0 -15 12 -15 45 0 33 4 45 15 45 8 0
15 7 15 15 0 8 -7 15 -15 15 -10 0 -15 10 -15 30 0 27 -3 30 -30 30 -20 0 -30
5 -30 15 0 8 -7 15 -15 15 -8 0 -15 -7 -15 -15 0 -11 -12 -15 -45 -15 -33 0
-45 4 -45 15 0 8 -7 15 -15 15 -8 0 -15 -7 -15 -15 0 -11 -12 -15 -45 -15 -33
0 -45 4 -45 15 0 8 -7 15 -15 15 -8 0 -15 -7 -15 -15 0 -11 -12 -15 -45 -15
-33 0 -45 4 -45 15 0 8 -7 15 -15 15 -8 0 -15 -7 -15 -15 0 -11 -12 -15 -45
-15 -33 0 -45 4 -45 15 0 8 -7 15 -15 15 -8 0 -15 -7 -15 -15z"/>
<path d="M1740 1885 c0 -13 -21 -15 -125 -15 l-125 0 0 -65 c0 -51 -3 -65 -15
-65 -12 0 -15 14 -15 65 l0 65 -335 0 -335 0 0 -625 0 -625 115 0 c108 0 115
-1 115 -20 0 -19 7 -20 125 -20 118 0 125 1 125 20 0 19 7 20 95 20 l95 0 0
490 c0 429 2 490 15 490 9 0 15 -9 15 -25 0 -25 0 -25 95 -25 78 0 95 -3 95
-15 0 -12 -17 -15 -95 -15 l-95 0 0 -450 0 -450 125 0 125 0 0 -25 0 -24 -145
-3 -144 -3 59 -98 c33 -54 60 -104 60 -111 0 -6 6 -18 12 -24 10 -10 10 -17 0
-32 -10 -17 -10 -21 3 -26 9 -4 19 -4 22 0 3 3 14 -8 24 -24 16 -25 25 -30 59
-30 29 0 40 -4 40 -15 0 -8 7 -15 15 -15 8 0 15 7 15 15 0 11 12 15 45 15 33
0 45 -4 45 -15 0 -8 7 -15 15 -15 8 0 15 7 15 15 0 11 12 15 44 15 36 0 47 5
61 26 9 15 22 23 30 20 18 -7 30 13 17 26 -13 13 8 58 87 188 l51 85 -145 3
-145 3 0 24 0 25 130 0 130 0 0 450 0 450 -160 0 c-136 0 -160 2 -160 15 0 13
26 15 175 15 l175 0 0 -90 c0 -89 0 -90 25 -90 16 0 25 -6 25 -15 0 -9 -9 -15
-25 -15 l-25 0 0 -360 0 -360 115 0 c108 0 115 -1 115 -20 0 -19 7 -20 125
-20 118 0 125 1 125 20 0 18 7 20 80 20 l80 0 0 360 0 360 -225 0 c-193 0
-225 2 -225 15 0 8 7 15 15 15 12 0 15 18 15 100 0 82 3 100 15 100 12 0 15
-18 15 -100 l0 -100 195 0 195 0 0 234 c0 129 -3 241 -6 250 -5 14 -32 16
-195 16 l-189 0 0 -80 c0 -64 -3 -80 -15 -80 -12 0 -15 16 -15 80 l0 80 -255
0 c-220 0 -255 2 -255 15 0 12 -14 15 -70 15 -56 0 -70 -3 -70 -15z"/>
<path d="M3280 1805 c0 -78 -3 -95 -15 -95 -12 0 -15 16 -15 80 l0 80 -195 0
-195 0 0 -250 0 -250 195 0 195 0 0 100 c0 82 3 100 15 100 12 0 15 -19 15
-115 l0 -115 -210 0 -210 0 0 -360 0 -360 80 0 c73 0 80 -2 80 -20 0 -19 7
-20 125 -20 118 0 125 1 125 20 0 19 7 20 95 20 l95 0 0 360 c0 353 0 360 -20
360 -11 0 -20 7 -20 15 0 17 23 20 51 5 18 -10 19 -25 19 -375 l0 -365 120 0
120 0 0 -25 0 -24 -145 -3 -144 -3 59 -98 c33 -54 60 -104 60 -111 0 -6 6 -18
12 -24 10 -10 10 -17 0 -32 -10 -17 -10 -21 3 -26 9 -4 19 -4 22 0 3 3 14 -8
24 -24 16 -25 25 -30 59 -30 29 0 40 -4 40 -15 0 -8 7 -15 15 -15 8 0 15 7 15
15 0 11 12 15 45 15 33 0 45 -4 45 -15 0 -8 7 -15 15 -15 8 0 15 7 15 15 0 11
12 15 44 15 36 0 47 5 61 26 9 15 22 23 30 20 18 -7 30 13 17 26 -13 13 8 58
87 188 l51 85 -145 3 -145 3 0 24 0 25 120 0 120 0 0 445 0 445 -232 2 c-174
2 -232 6 -236 16 -3 9 48 12 232 12 l236 0 0 50 c0 38 4 50 15 50 13 0 15 -63
15 -510 l0 -510 130 0 c123 0 130 -1 130 -20 0 -19 7 -20 125 -20 118 0 125 1
125 20 0 19 7 20 125 20 l125 0 0 625 0 625 -380 0 -380 0 0 -45 c0 -33 -4
-45 -15 -45 -11 0 -15 12 -15 45 l0 45 -345 0 c-300 0 -345 2 -345 15 0 12
-14 15 -70 15 l-70 0 0 -95z"/>
</g>
</svg>
