<?xml version="1.0" standalone="no"?>
<!DOCTYPE svg PUBLIC "-//W3C//DTD SVG 20010904//EN"
 "http://www.w3.org/TR/2001/REC-SVG-20010904/DTD/svg10.dtd">
<svg version="1.0" xmlns="http://www.w3.org/2000/svg"
 width="534.000000pt" height="413.000000pt" viewBox="0 0 534.000000 413.000000"
 preserveAspectRatio="xMidYMid meet">
<metadata>
Created by potrace 1.11, written by Peter Selinger 2001-2013
</metadata>
<g transform="translate(0.000000,413.000000) scale(0.100000,-0.100000)"
fill="#000000" stroke="none">
<path d="M1520 4030 c0 -5 -13 -10 -30 -10 -27 0 -30 -3 -30 -30 0 -16 -4 -30
-10 -30 -5 0 -10 -11 -10 -25 0 -14 5 -25 10 -25 6 0 10 -16 10 -35 0 -19 -4
-35 -10 -35 -5 0 -10 -11 -10 -25 0 -14 5 -25 10 -25 6 0 10 -18 10 -40 l0
-40 115 0 c96 0 115 -3 115 -15 0 -12 -19 -15 -110 -15 l-110 0 0 -514 0 -515
38 -4 c20 -2 -57 -3 -173 -3 -191 0 -195 1 -42 3 l167 3 0 515 0 515 -115 0
c-96 0 -115 3 -115 15 0 13 -21 15 -125 15 -104 0 -125 -2 -125 -15 0 -12 -19
-15 -115 -15 l-115 0 0 -515 0 -514 113 -4 112 -3 -117 -2 -118 -2 0 520 0
520 -350 0 -350 0 0 -690 0 -690 350 0 349 0 4 93 3 92 2 -92 2 -93 85 0 c69
0 85 -3 85 -15 0 -13 -23 -15 -150 -15 l-149 0 -4 -82 -3 -83 -2 83 -2 82
-285 0 -285 0 0 -200 0 -200 284 0 285 0 4 43 c3 36 4 34 5 -15 l2 -58 -290 0
-290 0 0 -690 0 -690 110 0 c91 0 110 -3 110 -15 0 -13 21 -15 125 -15 104 0
125 2 125 15 0 13 27 15 185 15 l185 0 0 690 0 690 -50 0 c-38 0 -50 4 -50 15
0 13 44 15 335 15 l335 0 0 70 c0 39 3 70 8 70 4 0 7 36 7 80 0 44 -3 80 -7
80 -5 0 -8 29 -8 65 l0 65 170 0 169 0 4 58 3 57 2 -57 2 -58 170 0 170 0 0
170 0 170 -169 0 -170 0 -4 -37 -4 -38 -1 37 c-2 37 -2 37 -49 41 -27 2 52 4
175 5 l222 2 0 515 0 515 -145 0 c-122 0 -145 2 -145 15 0 13 23 15 145 15
l145 0 0 155 0 155 -45 0 c-25 0 -45 5 -45 10 0 6 -11 10 -25 10 -14 0 -25 -4
-25 -10 0 -5 -16 -10 -35 -10 -19 0 -35 5 -35 10 0 6 -11 10 -25 10 -14 0 -25
-4 -25 -10 0 -5 -16 -10 -35 -10 -19 0 -35 5 -35 10 0 6 -11 10 -25 10 -14 0
-25 -4 -25 -10 0 -5 -16 -10 -35 -10 -19 0 -35 5 -35 10 0 6 -11 10 -25 10
-14 0 -25 -4 -25 -10 0 -5 -16 -10 -35 -10 -19 0 -35 5 -35 10 0 6 -11 10 -25
10 -14 0 -25 -4 -25 -10z"/>
<path d="M3280 4030 c0 -5 -20 -10 -45 -10 l-45 0 0 -155 0 -155 145 0 c122 0
145 -2 145 -15 0 -13 -23 -15 -145 -15 l-145 0 0 -515 0 -515 223 -2 c122 -1
201 -3 175 -5 -46 -4 -47 -5 -51 -41 l-4 -37 -1 38 -2 37 -170 0 -170 0 0
-170 0 -170 170 0 169 0 4 58 3 57 2 -57 2 -58 230 0 230 0 0 -65 c0 -36 -3
-65 -7 -65 -5 0 -8 -36 -8 -80 0 -44 3 -80 8 -80 4 0 7 -31 7 -70 l0 -70 265
0 c229 0 265 -2 265 -15 0 -11 -11 -15 -40 -15 l-40 0 0 -690 0 -690 125 0
c104 0 125 -2 125 -15 0 -13 21 -15 125 -15 104 0 125 2 125 15 0 13 26 15
170 15 l170 0 0 690 0 690 -300 0 c-260 0 -300 2 -300 15 0 8 4 15 9 15 6 0
12 19 14 43 l4 42 1 -42 2 -43 285 0 285 0 0 200 0 200 -285 0 -284 0 -4 -82
-3 -83 -2 83 -2 82 -145 0 c-122 0 -145 2 -145 15 0 12 16 15 80 15 l79 0 4
93 3 92 2 -92 2 -93 350 0 350 0 0 690 0 690 -120 0 c-100 0 -120 3 -120 15 0
13 -21 15 -125 15 -104 0 -125 -2 -125 -15 0 -12 -18 -15 -105 -15 l-105 0 0
-520 0 -520 -117 2 -118 2 113 3 112 4 0 514 0 515 -115 0 c-96 0 -115 3 -115
15 0 13 -21 15 -125 15 -104 0 -125 -2 -125 -15 0 -12 -19 -15 -115 -15 l-115
0 0 -515 0 -515 168 -3 c152 -2 148 -3 -43 -3 -115 0 -193 1 -172 3 l37 4 0
515 0 514 -110 0 c-91 0 -110 3 -110 15 0 12 19 15 115 15 l115 0 0 40 c0 22
5 40 10 40 6 0 10 11 10 25 0 14 -4 25 -10 25 -5 0 -10 16 -10 35 0 19 5 35
10 35 6 0 10 11 10 25 0 14 -4 25 -10 25 -5 0 -10 14 -10 30 0 27 -3 30 -30
30 -16 0 -30 5 -30 10 0 6 -11 10 -25 10 -14 0 -25 -4 -25 -10 0 -5 -16 -10
-35 -10 -19 0 -35 5 -35 10 0 6 -11 10 -25 10 -14 0 -25 -4 -25 -10 0 -5 -16
-10 -35 -10 -19 0 -35 5 -35 10 0 6 -11 10 -25 10 -14 0 -25 -4 -25 -10 0 -5
-16 -10 -35 -10 -19 0 -35 5 -35 10 0 6 -11 10 -25 10 -14 0 -25 -4 -25 -10 0
-5 -16 -10 -35 -10 -19 0 -35 5 -35 10 0 6 -11 10 -25 10 -14 0 -25 -4 -25
-10z"/>
<path d="M2010 1845 c0 -13 -33 -15 -235 -15 l-235 0 0 -55 c0 -42 -3 -55 -15
-55 -12 0 -15 13 -15 55 l0 55 -305 0 -305 0 0 -680 0 -680 45 0 c38 0 45 -3
45 -20 0 -19 7 -20 125 -20 118 0 125 1 125 20 0 19 7 20 135 20 l135 0 0 555
c0 487 2 555 15 555 11 0 15 -12 15 -50 l0 -50 140 0 c118 0 140 -2 140 -15 0
-13 -22 -15 -140 -15 l-140 0 0 -490 0 -490 105 0 c98 0 105 -1 105 -20 0 -19
7 -20 125 -20 118 0 125 1 125 20 0 19 7 20 125 20 l125 0 0 490 0 490 -145 0
c-122 0 -145 2 -145 15 0 13 24 15 160 15 l160 0 0 -100 c0 -60 4 -100 10
-100 6 0 10 -7 10 -15 0 -8 -4 -15 -10 -15 -6 0 -10 -137 -10 -390 l0 -390
175 0 175 0 0 -25 0 -25 -165 0 -165 0 0 -40 c0 -29 -4 -40 -15 -40 -8 0 -15
-7 -15 -15 0 -8 7 -15 15 -15 11 0 15 -12 15 -45 0 -33 -4 -45 -15 -45 -8 0
-15 -7 -15 -15 0 -8 7 -15 15 -15 10 0 15 -10 15 -30 0 -27 3 -30 30 -30 20 0
30 -5 30 -15 0 -8 7 -15 15 -15 8 0 15 7 15 15 0 11 12 15 45 15 33 0 45 -4
45 -15 0 -8 7 -15 15 -15 8 0 15 7 15 15 0 11 12 15 45 15 33 0 45 -4 45 -15
0 -8 7 -15 15 -15 8 0 15 7 15 15 0 11 12 15 45 15 33 0 45 -4 45 -15 0 -8 7
-15 15 -15 8 0 15 7 15 15 0 11 12 15 45 15 33 0 45 -4 45 -15 0 -8 7 -15 15
-15 8 0 15 7 15 15 0 11 12 15 45 15 l45 0 0 145 0 145 -85 0 c-84 0 -85 0
-85 25 0 25 1 25 85 25 l85 0 0 390 0 390 -260 0 c-224 0 -260 2 -260 15 0 8
5 15 10 15 6 0 10 43 10 110 0 91 3 110 15 110 12 0 15 -19 15 -110 l0 -110
235 0 235 0 0 275 0 275 -235 0 -235 0 0 -95 c0 -78 -3 -95 -15 -95 -12 0 -15
17 -15 95 l0 95 -155 0 c-131 0 -155 2 -155 15 0 12 -14 15 -70 15 -56 0 -70
-3 -70 -15z"/>
<path d="M3590 1845 c0 -11 -11 -15 -40 -15 l-40 0 0 -95 c0 -78 -3 -95 -15
-95 -12 0 -15 17 -15 95 l0 95 -235 0 -235 0 0 -275 0 -275 235 0 235 0 0 110
c0 91 3 110 15 110 13 0 15 -21 15 -125 l0 -125 -250 0 -250 0 0 -390 0 -390
85 0 c84 0 85 0 85 -25 0 -25 -1 -25 -85 -25 l-85 0 0 -145 0 -145 45 0 c33 0
45 -4 45 -15 0 -8 7 -15 15 -15 8 0 15 7 15 15 0 11 12 15 45 15 33 0 45 -4
45 -15 0 -8 7 -15 15 -15 8 0 15 7 15 15 0 11 12 15 45 15 33 0 45 -4 45 -15
0 -8 7 -15 15 -15 8 0 15 7 15 15 0 11 12 15 45 15 33 0 45 -4 45 -15 0 -8 7
-15 15 -15 8 0 15 7 15 15 0 11 12 15 45 15 33 0 45 -4 45 -15 0 -8 7 -15 15
-15 8 0 15 7 15 15 0 10 10 15 30 15 27 0 30 3 30 30 0 20 5 30 15 30 8 0 15
7 15 15 0 8 -7 15 -15 15 -11 0 -15 12 -15 45 0 33 4 45 15 45 8 0 15 7 15 15
0 8 -7 15 -15 15 -11 0 -15 11 -15 40 l0 40 -165 0 -165 0 0 25 0 25 315 0
c308 0 315 0 315 -20 0 -19 7 -20 125 -20 118 0 125 1 125 20 0 19 7 20 105
20 l105 0 0 680 0 680 -350 0 c-304 0 -350 2 -350 15 0 12 -14 15 -70 15 -56
0 -70 -3 -70 -15z"/>
</g>
</svg>
