<?xml version="1.0" standalone="no"?>
<!DOCTYPE svg PUBLIC "-//W3C//DTD SVG 20010904//EN"
 "http://www.w3.org/TR/2001/REC-SVG-20010904/DTD/svg10.dtd">
<svg version="1.0" xmlns="http://www.w3.org/2000/svg"
 width="534.000000pt" height="413.000000pt" viewBox="0 0 534.000000 413.000000"
 preserveAspectRatio="xMidYMid meet">
<metadata>
Created by potrace 1.11, written by Peter Selinger 2001-2013
</metadata>
<g transform="translate(0.000000,413.000000) scale(0.100000,-0.100000)"
fill="#000000" stroke="none">
<path d="M250 3700 c0 -19 -7 -20 -100 -20 l-100 0 0 -190 0 -190 100 0 c82 0
100 -3 100 -15 0 -12 -18 -15 -100 -15 l-100 0 0 -60 c0 -53 -2 -60 -20 -60
-19 0 -20 -7 -20 -125 0 -118 1 -125 20 -125 20 0 20 -7 20 -290 l0 -290 495
0 495 0 0 -25 0 -25 -205 0 -205 0 0 -80 c0 -64 -3 -80 -15 -80 -12 0 -15 16
-15 80 l0 80 -275 0 -275 0 0 -190 0 -190 275 0 275 0 0 40 c0 29 4 40 15 40
11 0 15 -11 15 -40 l0 -40 205 0 205 0 0 -25 0 -25 -495 0 -495 0 0 -680 0
-680 105 0 c98 0 105 -1 105 -20 0 -19 7 -20 125 -20 118 0 125 1 125 20 0 19
7 20 240 20 233 0 240 -1 240 -20 0 -19 7 -20 125 -20 118 0 125 1 125 20 0
19 7 20 255 20 248 0 255 -1 255 -20 0 -19 7 -20 125 -20 118 0 125 1 125 20
0 19 7 20 190 20 l190 0 0 170 0 170 95 0 c78 0 95 -3 95 -15 0 -12 -16 -15
-80 -15 l-80 0 0 -155 0 -155 80 0 c64 0 80 -3 80 -15 0 -12 18 -15 100 -15
82 0 100 3 100 15 0 12 17 15 95 15 l95 0 0 155 0 155 -95 0 c-78 0 -95 3 -95
15 0 12 17 15 95 15 l95 0 0 320 0 320 25 0 c20 0 25 -5 25 -25 l0 -25 150 0
150 0 0 215 0 215 -150 0 -150 0 0 -120 0 -120 -25 0 -25 0 0 120 0 120 -585
0 -585 0 0 25 0 25 170 0 170 0 0 190 0 190 -170 0 -170 0 0 25 0 25 170 0
170 0 0 680 0 680 -90 0 c-83 0 -90 1 -90 20 0 19 -7 20 -125 20 -118 0 -125
-1 -125 -20 0 -19 -7 -20 -235 -20 -228 0 -235 1 -235 20 0 19 -7 20 -125 20
-118 0 -125 -1 -125 -20 0 -19 -7 -20 -170 -20 l-170 0 0 -205 0 -205 -95 0
c-78 0 -95 3 -95 15 0 12 16 15 80 15 l80 0 0 190 0 190 -80 0 c-73 0 -80 2
-80 20 0 19 -7 20 -100 20 -93 0 -100 -1 -100 -20z"/>
<path d="M3380 3700 c0 -19 -7 -20 -90 -20 l-90 0 0 -680 0 -680 275 0 275 0
0 -25 0 -25 -275 0 -275 0 0 -190 0 -190 275 0 275 0 0 -25 0 -25 -205 0 -205
0 0 -230 0 -230 -165 0 -165 0 0 -450 0 -450 115 0 c108 0 115 -1 115 -20 0
-19 7 -20 125 -20 118 0 125 1 125 20 0 19 7 20 240 20 233 0 240 -1 240 -20
0 -19 7 -20 125 -20 118 0 125 1 125 20 0 19 7 20 240 20 233 0 240 -1 240
-20 0 -19 7 -20 125 -20 118 0 125 1 125 20 0 19 7 20 165 20 l165 0 0 680 0
680 -390 0 -390 0 0 25 0 25 100 0 100 0 0 40 c0 29 4 40 15 40 11 0 15 -11
15 -40 l0 -40 275 0 275 0 0 190 0 190 -275 0 -275 0 0 -80 c0 -64 -3 -80 -15
-80 -12 0 -15 16 -15 80 l0 80 -100 0 -100 0 0 25 0 25 390 0 390 0 0 475 0
475 -100 0 c-82 0 -100 3 -100 15 0 12 18 15 100 15 l100 0 0 190 0 190 -105
0 c-98 0 -105 1 -105 20 0 19 -7 20 -100 20 -93 0 -100 -1 -100 -20 0 -18 -7
-20 -75 -20 l-75 0 0 -190 0 -190 80 0 c64 0 80 -3 80 -15 0 -12 -17 -15 -95
-15 l-95 0 0 205 0 205 -170 0 c-163 0 -170 1 -170 20 0 19 -7 20 -125 20
-118 0 -125 -1 -125 -20 0 -19 -7 -20 -235 -20 -228 0 -235 1 -235 20 0 19 -7
20 -125 20 -118 0 -125 -1 -125 -20z"/>
</g>
</svg>
