<?xml version="1.0" standalone="no"?>
<!DOCTYPE svg PUBLIC "-//W3C//DTD SVG 20010904//EN"
 "http://www.w3.org/TR/2001/REC-SVG-20010904/DTD/svg10.dtd">
<svg version="1.0" xmlns="http://www.w3.org/2000/svg"
 width="534.000000pt" height="431.000000pt" viewBox="0 0 534.000000 431.000000"
 preserveAspectRatio="xMidYMid meet">
<metadata>
Created by potrace 1.11, written by Peter Selinger 2001-2013
</metadata>
<g transform="translate(0.000000,431.000000) scale(0.100000,-0.100000)"
fill="#000000" stroke="none">
<path d="M480 3870 c0 -19 -7 -20 -190 -20 l-190 0 0 -305 c0 -298 0 -305 -20
-305 -19 0 -20 -7 -20 -125 0 -118 1 -125 20 -125 20 0 20 -7 20 -270 0 -263
0 -270 -20 -270 -19 0 -20 -7 -20 -125 0 -118 1 -125 20 -125 19 0 20 -7 20
-125 l0 -125 825 0 825 0 0 80 c0 64 3 80 15 80 12 0 15 14 15 70 0 56 -3 70
-15 70 -11 0 -15 12 -15 50 l0 50 -215 0 -215 0 0 35 c0 24 5 35 15 35 8 0 15
-9 15 -20 0 -19 7 -20 200 -20 l200 0 0 90 0 90 -215 0 -215 0 0 75 c0 60 3
75 15 75 12 0 15 -13 15 -60 l0 -60 200 0 200 0 0 225 0 225 -200 0 -200 0 0
-95 c0 -78 -3 -95 -15 -95 -12 0 -15 19 -15 110 l0 110 215 0 215 0 0 390 0
390 -125 0 c-118 0 -125 1 -125 20 0 19 -7 20 -125 20 -118 0 -125 -1 -125
-20 0 -19 -7 -20 -260 -20 -253 0 -260 1 -260 20 0 19 -7 20 -125 20 -118 0
-125 -1 -125 -20z"/>
<path d="M1800 1915 c0 -13 -101 -15 -850 -15 l-850 0 0 -115 c0 -108 -1 -115
-20 -115 -19 0 -20 -7 -20 -125 0 -118 1 -125 20 -125 20 0 20 -7 20 -465 l0
-465 180 0 c173 0 180 -1 180 -20 0 -19 7 -20 125 -20 118 0 125 1 125 20 0
19 7 20 265 20 258 0 265 -1 265 -20 0 -19 7 -20 125 -20 118 0 125 1 125 20
0 19 7 20 235 20 228 0 235 -1 235 -20 0 -19 7 -20 125 -20 118 0 125 1 125
20 0 19 7 20 100 20 l100 0 0 355 0 355 -235 0 c-217 0 -235 1 -235 18 0 16
17 17 235 14 l235 -3 0 81 0 81 -235 -3 -235 -3 0 83 c0 66 3 82 15 82 12 0
15 -14 15 -65 l0 -65 220 0 220 0 0 240 0 240 -220 0 -220 0 0 -105 c0 -87 -3
-105 -15 -105 -12 0 -15 20 -15 120 l0 120 -70 0 c-56 0 -70 -3 -70 -15z"/>
<path d="M3080 1915 c0 -12 -15 -15 -75 -15 l-75 0 0 -105 c0 -87 -3 -105 -15
-105 -12 0 -15 18 -15 105 l0 105 -220 0 -220 0 0 -270 0 -270 220 0 220 0 0
95 c0 78 3 95 15 95 12 0 15 -19 15 -110 l0 -110 -235 0 -235 0 0 -420 0 -420
165 0 c158 0 165 -1 165 -20 0 -19 7 -20 125 -20 118 0 125 1 125 20 0 19 7
20 160 20 l160 0 0 705 0 705 -70 0 c-56 0 -70 3 -70 15 0 12 -14 15 -70 15
-56 0 -70 -3 -70 -15z"/>
</g>
</svg>
