<?xml version="1.0" standalone="no"?>
<!DOCTYPE svg PUBLIC "-//W3C//DTD SVG 20010904//EN"
 "http://www.w3.org/TR/2001/REC-SVG-20010904/DTD/svg10.dtd">
<svg version="1.0" xmlns="http://www.w3.org/2000/svg"
 width="534.000000pt" height="413.000000pt" viewBox="0 0 534.000000 413.000000"
 preserveAspectRatio="xMidYMid meet">
<metadata>
Created by potrace 1.11, written by Peter Selinger 2001-2013
</metadata>
<g transform="translate(0.000000,413.000000) scale(0.100000,-0.100000)"
fill="#000000" stroke="none">
<path d="M1520 3570 c0 -19 -7 -20 -223 -20 l-223 0 -292 -312 -291 -313 -1
-312 0 -313 95 0 c95 0 95 0 95 -25 0 -25 0 -25 -95 -25 l-95 0 0 -175 0 -175
95 0 c95 0 95 0 95 -25 0 -25 0 -25 -95 -25 l-95 0 0 -625 0 -625 235 0 c228
0 235 -1 235 -20 0 -19 7 -20 125 -20 118 0 125 1 125 20 0 19 7 20 230 20
223 0 230 -1 230 -20 0 -19 7 -20 125 -20 118 0 125 1 125 20 0 19 7 20 155
20 l155 0 0 40 c0 29 4 40 15 40 11 0 15 -11 15 -40 l0 -40 45 0 c33 0 45 -4
45 -15 0 -12 18 -15 100 -15 82 0 100 3 100 15 0 12 18 15 100 15 l100 0 0
160 0 160 -245 0 -245 0 0 -50 c0 -38 -4 -50 -15 -50 -12 0 -15 14 -15 65 l0
65 260 0 260 0 0 450 0 450 -95 0 c-95 0 -95 0 -95 25 l0 25 175 0 175 0 0
245 0 245 -300 0 -300 0 0 55 0 55 -195 0 -195 0 0 -300 0 -300 250 0 250 0 0
-25 0 -25 -470 0 -470 0 0 60 c0 47 3 60 15 60 10 0 15 -11 15 -35 l0 -35 190
0 190 0 0 175 0 175 -190 0 -190 0 0 -70 c0 -56 -3 -70 -15 -70 -12 0 -15 17
-15 95 l0 95 195 0 195 0 0 625 0 625 -50 0 c-43 0 -50 3 -50 20 0 19 -7 20
-125 20 -118 0 -125 -1 -125 -20z"/>
<path d="M3110 3570 c0 -18 -7 -20 -75 -20 l-75 0 0 -625 0 -625 260 0 c167 0
260 -4 260 -10 0 -6 28 -10 65 -10 51 0 65 -3 65 -15 0 -12 -14 -15 -65 -15
l-65 0 0 -70 c0 -56 -3 -70 -15 -70 -12 0 -15 14 -15 70 l0 70 -255 0 -255 0
0 -175 0 -175 255 0 255 0 0 35 c0 24 5 35 15 35 12 0 15 -13 15 -60 l0 -60
-340 0 -340 0 0 -450 0 -450 285 0 285 0 0 -65 c0 -51 -3 -65 -15 -65 -11 0
-15 12 -15 50 l0 50 -270 0 -270 0 0 -160 0 -160 100 0 c82 0 100 -3 100 -15
0 -12 18 -15 100 -15 82 0 100 3 100 15 0 12 14 15 70 15 l70 0 0 40 c0 29 4
40 15 40 11 0 15 -11 15 -40 l0 -40 135 0 c128 0 135 -1 135 -20 0 -19 7 -20
125 -20 118 0 125 1 125 20 0 19 7 20 225 20 218 0 225 -1 225 -20 0 -19 7
-20 125 -20 118 0 125 1 125 20 0 19 7 20 125 20 l125 0 0 625 0 625 -260 0
-260 0 0 55 c0 42 3 55 15 55 10 0 15 -10 15 -30 l0 -30 245 0 245 0 0 175 0
175 -245 0 -245 0 0 -75 c0 -60 -3 -75 -15 -75 -12 0 -15 15 -15 75 l0 75 -65
0 c-51 0 -65 3 -65 15 0 12 14 15 65 15 37 0 65 4 65 10 0 6 93 10 260 10
l260 0 0 625 0 625 -95 0 c-88 0 -95 1 -95 20 0 19 -7 20 -125 20 -118 0 -125
-1 -125 -20 0 -19 -7 -20 -215 -20 -208 0 -215 1 -215 20 0 19 -7 20 -125 20
-118 0 -125 -1 -125 -20 0 -19 -7 -20 -180 -20 -173 0 -180 1 -180 20 0 19 -7
20 -125 20 -118 0 -125 -1 -125 -20z m950 -1295 l0 -25 -160 0 -160 0 0 25 0
25 160 0 160 0 0 -25z m0 -400 l0 -25 -160 0 -160 0 0 25 0 25 160 0 160 0 0
-25z"/>
</g>
</svg>
