<?xml version="1.0" standalone="no"?>
<!DOCTYPE svg PUBLIC "-//W3C//DTD SVG 20010904//EN"
 "http://www.w3.org/TR/2001/REC-SVG-20010904/DTD/svg10.dtd">
<svg version="1.0" xmlns="http://www.w3.org/2000/svg"
 width="533.000000pt" height="412.000000pt" viewBox="0 0 533.000000 412.000000"
 preserveAspectRatio="xMidYMid meet">
<metadata>
Created by potrace 1.11, written by Peter Selinger 2001-2013
</metadata>
<g transform="translate(0.000000,412.000000) scale(0.100000,-0.100000)"
fill="#000000" stroke="none">
<path d="M1830 4073 c-70 -5 -209 -23 -225 -29 -12 -5 -15 -34 -15 -160 0
-153 0 -154 -22 -154 -13 1 -165 -1 -338 -4 -270 -4 -324 -8 -380 -24 l-65
-19 -3 -211 -2 -212 -25 0 -25 0 0 170 c0 179 -2 187 -44 155 -26 -20 -44 -19
-48 1 -3 14 -7 13 -28 -6 -16 -13 -19 -20 -8 -16 29 9 28 -21 -2 -49 -26 -25
-30 -26 -36 -11 -5 12 -10 14 -20 5 -10 -8 -10 -15 -2 -29 9 -14 7 -23 -8 -42
-10 -13 -27 -22 -37 -20 -18 4 -24 -13 -7 -23 14 -9 -17 -65 -36 -65 -11 0
-13 -6 -9 -19 9 -30 -5 -68 -28 -76 -19 -6 -20 -8 -4 -12 18 -5 20 -15 11 -51
-4 -14 -12 -21 -20 -18 -9 3 -14 -2 -14 -14 0 -13 5 -18 15 -14 11 5 15 -1 15
-25 0 -24 -4 -31 -20 -31 -11 0 -20 -6 -20 -14 0 -9 7 -12 20 -9 16 4 20 0 20
-21 l0 -26 155 0 155 0 0 70 c0 68 1 70 25 70 25 0 25 0 25 -95 l0 -95 -270 0
-270 0 0 -285 0 -285 455 0 c448 0 455 0 455 20 0 20 7 20 320 20 278 0 320
-2 320 -15 0 -12 16 -15 80 -15 64 0 80 3 80 15 0 11 12 15 45 15 l45 0 0 115
0 115 -155 0 -155 0 0 70 c0 56 3 70 15 70 12 0 15 -13 15 -55 l0 -55 140 0
140 0 0 185 0 185 -140 0 -140 0 0 -80 c0 -64 -3 -80 -15 -80 -12 0 -15 18
-15 98 l0 97 155 -3 155 -4 0 81 0 81 -140 0 c-133 0 -140 -1 -140 -20 0 -11
-7 -20 -15 -20 -10 0 -15 11 -15 35 l0 35 155 0 155 0 0 405 0 405 -82 -2
c-46 -1 -103 -3 -128 -5z"/>
<path d="M3290 3667 l0 -407 155 0 155 0 0 -35 c0 -24 -5 -35 -15 -35 -8 0
-15 9 -15 20 0 19 -7 20 -140 20 l-140 0 0 -81 0 -81 155 4 155 3 0 -97 c0
-80 -3 -98 -15 -98 -12 0 -15 16 -15 80 l0 80 -140 0 -140 0 0 -185 0 -185
140 0 140 0 0 55 c0 42 3 55 15 55 12 0 15 -14 15 -70 l0 -70 -155 0 -155 0 0
-115 0 -115 45 0 c33 0 45 -4 45 -15 0 -12 16 -15 80 -15 64 0 80 3 80 15 0
13 42 15 320 15 313 0 320 0 320 -20 0 -20 7 -20 455 -20 l455 0 0 285 0 285
-270 0 -270 0 0 95 c0 95 0 95 25 95 24 0 25 -2 25 -70 l0 -70 155 0 155 0 0
26 c0 21 4 25 20 21 15 -4 20 0 20 13 0 13 -5 17 -20 13 -17 -5 -20 0 -20 27
0 24 4 31 15 26 10 -4 15 1 15 14 0 12 -5 17 -14 14 -8 -3 -16 4 -20 18 -9 36
-7 46 12 51 15 4 14 6 -5 12 -23 8 -37 46 -28 76 4 13 2 19 -9 19 -19 0 -50
56 -36 65 17 11 11 28 -9 22 -24 -6 -58 47 -42 67 7 9 7 16 -1 24 -8 8 -14 8
-22 -3 -9 -12 -16 -9 -40 15 l-29 30 23 8 23 9 -24 17 c-21 14 -24 15 -27 1
-5 -20 -14 -19 -56 6 l-36 21 0 -176 0 -176 -25 0 -25 0 -2 212 -3 213 -65 19
c-57 17 -108 20 -402 23 l-338 5 0 153 c0 138 -2 154 -17 159 -47 14 -161 27
-290 33 l-143 6 0 -406z"/>
<path d="M157 2420 c-14 -11 -33 -20 -42 -20 -12 0 -15 -5 -11 -16 8 -20 -25
-76 -41 -70 -17 7 -28 -13 -15 -26 14 -14 -5 -68 -24 -68 -8 0 -14 -7 -14 -15
0 -8 5 -15 10 -15 6 0 10 -20 10 -45 0 -25 -4 -45 -10 -45 -5 0 -10 -7 -10
-15 0 -8 4 -15 9 -15 5 0 11 -16 13 -35 3 -24 0 -35 -9 -35 -7 0 -13 -7 -13
-15 0 -8 6 -12 14 -9 10 4 15 -5 18 -31 2 -20 0 -38 -4 -41 -13 -8 -9 -24 6
-24 15 0 30 -31 31 -62 0 -10 5 -18 10 -18 15 -2 55 -42 50 -51 -4 -6 48 -39
63 -39 3 0 2 32 -2 70 l-6 70 30 0 30 0 0 115 c0 108 1 115 20 115 19 0 20 -7
20 -140 l0 -140 -25 0 -25 0 0 -285 0 -285 266 0 267 0 -7 -37 c-3 -21 -6 -64
-6 -95 0 -51 -2 -58 -20 -58 -18 0 -20 7 -20 70 l0 70 -150 0 c-123 0 -150 -3
-150 -14 0 -8 -5 -16 -12 -18 -7 -3 -9 -11 -3 -24 4 -10 9 -50 11 -89 2 -38
11 -86 19 -106 7 -20 11 -39 8 -43 -3 -3 2 -15 13 -27 10 -11 19 -32 20 -47 1
-15 3 -31 3 -36 1 -4 7 -6 15 -3 13 5 21 -8 40 -65 3 -10 11 -18 18 -18 7 0
24 -16 37 -36 21 -31 91 -74 120 -74 7 0 11 51 11 150 0 143 1 150 20 150 19
0 20 -8 22 -182 l3 -182 70 -18 c60 -16 117 -19 412 -21 l343 -2 0 -176 0
-176 69 -12 c39 -6 142 -11 230 -11 l161 0 0 428 0 427 -160 -3 -160 -3 0 56
c0 42 3 55 15 55 11 0 15 -11 15 -39 l0 -40 145 -3 145 -3 0 110 0 110 -150
-3 c-141 -3 -150 -4 -150 -23 0 -10 -5 -19 -11 -19 -6 0 -9 14 -7 32 l3 33
157 0 157 0 0 263 0 262 -39 0 c-33 0 -40 3 -40 20 0 18 -7 20 -80 20 -73 0
-80 -2 -80 -20 0 -19 -7 -20 -205 -20 l-205 0 0 110 c0 91 3 110 15 110 12 0
15 -17 15 -95 l0 -95 145 0 144 0 1 300 0 300 -245 0 c-238 0 -245 -1 -245
-20 0 -16 -7 -20 -30 -20 l-31 0 3 -132 3 -133 78 -3 c108 -4 97 -22 -13 -22
l-90 0 0 145 0 145 -435 0 -435 0 0 -50 c0 -43 -3 -50 -20 -50 -16 0 -20 7
-20 35 0 28 -4 35 -19 35 -24 0 -33 34 -25 94 7 51 0 56 -39 26z"/>
<path d="M5133 2388 c8 -67 0 -98 -24 -98 -15 0 -19 -7 -19 -35 0 -28 -4 -35
-20 -35 -17 0 -20 7 -20 50 l0 50 -435 0 -435 0 0 -140 0 -140 -90 0 c-110 0
-121 18 -12 22 l77 3 3 128 3 127 -31 0 c-23 0 -30 4 -30 20 0 19 -7 20 -240
20 l-240 0 0 -92 c0 -51 -3 -184 -7 -295 l-6 -203 146 0 147 0 0 95 c0 78 3
95 15 95 12 0 15 -19 15 -110 l0 -110 -205 0 c-198 0 -205 1 -205 20 0 18 -7
20 -80 20 -73 0 -80 -2 -80 -20 0 -17 -7 -20 -41 -20 l-40 0 2 -144 c2 -115 5
-143 16 -139 8 3 13 -2 13 -12 0 -11 -5 -15 -15 -11 -13 5 -15 -18 -15 -172
l0 -177 150 3 150 3 0 170 0 169 -90 0 c-73 0 -90 3 -90 15 0 12 18 15 100 15
l100 0 0 -200 0 -201 -159 3 -160 3 -1 -482 0 -483 160 0 c89 0 192 5 231 11
l69 12 0 176 0 176 343 2 c295 2 352 5 412 21 l70 18 3 182 c2 174 3 182 22
182 19 0 20 -7 20 -150 0 -99 4 -150 11 -150 29 0 99 43 120 74 13 20 30 36
37 36 7 0 15 8 18 18 19 57 27 70 40 65 8 -3 14 -1 15 3 0 5 2 21 3 36 1 15
10 36 20 47 11 12 16 24 13 27 -3 4 1 23 8 43 8 20 17 68 19 106 2 39 7 79 11
89 6 13 4 21 -3 24 -7 2 -12 10 -12 18 0 11 -27 14 -150 14 l-150 0 0 -70 c0
-63 -2 -70 -20 -70 -18 0 -20 7 -20 58 0 31 -3 74 -6 95 l-7 37 267 0 266 0 0
285 0 285 -25 0 -25 0 0 140 c0 133 1 140 20 140 19 0 20 -7 20 -115 l0 -115
30 0 30 0 -6 -70 c-4 -38 -5 -70 -2 -70 15 0 67 33 63 39 -5 9 43 57 53 54 4
-2 7 5 7 15 1 31 16 62 31 62 15 0 19 16 6 24 -4 3 -6 21 -4 41 3 26 8 35 18
31 8 -3 14 1 14 9 0 8 -6 15 -13 15 -9 0 -12 11 -9 35 2 19 8 35 13 35 5 0 9
7 9 15 0 8 -4 15 -10 15 -5 0 -10 20 -10 45 0 25 5 45 10 45 6 0 10 7 10 15 0
8 -6 15 -14 15 -19 0 -38 54 -24 68 13 13 2 33 -15 26 -16 -6 -49 50 -41 70 4
11 1 16 -11 16 -9 0 -28 9 -42 20 -40 31 -46 26 -40 -32z"/>
<path d="M2590 1805 c0 -12 -18 -15 -100 -15 l-100 0 0 -100 c0 -82 -3 -100
-15 -100 -12 0 -15 18 -15 100 l0 100 -135 0 -135 0 0 -270 0 -270 135 0 135
0 0 120 c0 100 3 120 15 120 13 0 15 -22 15 -135 l0 -135 -75 0 c-43 0 -75 -4
-75 -10 0 -6 -32 -10 -75 -10 l-75 0 0 -360 0 -360 350 0 350 0 0 -25 0 -25
-350 0 -350 0 0 -95 0 -95 40 0 c29 0 40 -4 40 -15 0 -8 7 -15 15 -15 8 0 15
7 15 15 0 11 12 15 45 15 33 0 45 -4 45 -15 0 -8 7 -15 15 -15 8 0 15 7 15 15
0 27 77 19 114 -12 17 -14 30 -31 28 -36 -2 -6 0 -17 3 -25 4 -11 8 -12 20 -2
21 18 75 -27 68 -56 -3 -14 1 -24 11 -27 9 -4 16 -2 16 3 0 18 24 10 51 -16
l27 -26 34 25 c24 19 41 24 58 20 20 -5 22 -3 17 16 -4 16 2 27 24 44 17 12
40 22 52 22 15 0 21 5 19 17 -4 28 59 68 106 68 31 0 42 -4 42 -15 0 -8 7 -15
15 -15 8 0 15 7 15 15 0 11 12 15 45 15 33 0 45 -4 45 -15 0 -8 7 -15 15 -15
8 0 15 7 15 15 0 11 11 15 40 15 l40 0 0 95 0 95 -155 0 -155 0 0 25 0 25 155
0 155 0 0 655 0 655 -250 0 c-216 0 -250 2 -250 15 0 12 -15 15 -75 15 -60 0
-75 -3 -75 -15z"/>
</g>
</svg>
