<?xml version="1.0" standalone="no"?>
<!DOCTYPE svg PUBLIC "-//W3C//DTD SVG 20010904//EN"
 "http://www.w3.org/TR/2001/REC-SVG-20010904/DTD/svg10.dtd">
<svg version="1.0" xmlns="http://www.w3.org/2000/svg"
 width="620.000000pt" height="413.000000pt" viewBox="0 0 620.000000 413.000000"
 preserveAspectRatio="xMidYMid meet">
<metadata>
Created by potrace 1.11, written by Peter Selinger 2001-2013
</metadata>
<g transform="translate(0.000000,413.000000) scale(0.100000,-0.100000)"
fill="#000000" stroke="none">
<path d="M2550 3495 c0 -8 -7 -15 -15 -15 -12 0 -15 -14 -15 -70 l0 -70 55 0
c52 0 55 -1 55 -25 0 -24 -2 -25 -65 -25 l-65 0 0 -210 0 -210 -65 0 c-51 0
-65 3 -65 15 0 11 12 15 50 15 l50 0 0 280 0 280 -65 0 c-58 0 -65 2 -65 20 0
19 -7 20 -125 20 -118 0 -125 -1 -125 -20 0 -18 -7 -20 -55 -20 l-55 0 0 -280
0 -280 135 0 c113 0 135 -2 135 -15 0 -8 -9 -15 -20 -15 -13 0 -20 -7 -20 -20
0 -11 -7 -20 -15 -20 -8 0 -15 9 -15 20 0 19 -7 20 -100 20 l-100 0 0 -120 0
-120 100 0 100 0 0 40 c0 29 4 40 15 40 11 0 15 -11 15 -40 l0 -40 65 0 c51 0
65 -3 65 -15 0 -12 14 -15 70 -15 56 0 70 3 70 15 0 12 13 15 60 15 l60 0 0
40 c0 29 4 40 15 40 11 0 15 -11 15 -40 l0 -40 115 0 115 0 0 120 0 120 -115
0 c-108 0 -115 -1 -115 -20 0 -11 -7 -20 -15 -20 -10 0 -15 11 -15 35 l0 35
130 0 130 0 0 195 0 195 -55 0 c-52 0 -55 1 -55 25 0 24 2 25 65 25 63 0 65 1
65 25 0 16 6 25 15 25 8 0 15 7 15 15 0 8 -7 15 -15 15 -10 0 -15 10 -15 30 0
27 -3 30 -30 30 -20 0 -30 5 -30 15 0 8 -7 15 -15 15 -8 0 -15 -7 -15 -15 0
-11 -12 -15 -45 -15 -33 0 -45 4 -45 15 0 8 -7 15 -15 15 -8 0 -15 -7 -15 -15
0 -11 -12 -15 -45 -15 -33 0 -45 4 -45 15 0 8 -7 15 -15 15 -8 0 -15 -7 -15
-15z"/>
<path d="M600 3485 c0 -13 -24 -15 -155 -15 l-155 0 0 -190 0 -190 270 0 270
0 -2 -102 -2 -103 -3 98 -4 97 -279 0 -280 0 0 39 c0 22 -3 46 -6 55 -7 17
-54 22 -54 6 0 -5 -16 -10 -35 -10 -19 0 -35 5 -35 10 0 6 -11 10 -25 10 -14
0 -25 -4 -25 -10 0 -5 -13 -10 -30 -10 -27 0 -30 -3 -30 -30 0 -16 -4 -30 -10
-30 -5 0 -10 -11 -10 -25 0 -14 5 -25 10 -25 6 0 10 -16 10 -35 0 -19 -4 -35
-10 -35 -5 0 -10 -11 -10 -25 0 -14 5 -25 10 -25 6 0 10 -16 10 -35 0 -19 -4
-35 -10 -35 -5 0 -10 -11 -10 -25 0 -14 5 -25 10 -25 6 0 10 -16 10 -35 0 -19
-4 -35 -10 -35 -5 0 -10 -11 -10 -25 0 -14 5 -25 10 -25 6 0 10 -18 10 -40 l0
-40 120 0 120 0 0 160 c0 136 2 160 15 160 13 0 15 -24 15 -160 l0 -160 265 0
264 0 4 68 3 67 2 -67 2 -68 290 0 c225 0 290 -3 290 -12 0 -9 23 -13 80 -13
57 0 80 4 80 13 0 8 18 12 54 12 34 0 56 5 59 13 4 10 6 10 6 0 1 -10 33 -13
126 -13 l125 0 0 86 0 85 -130 -3 c-82 -2 -130 1 -130 7 0 6 48 9 130 7 l130
-3 0 115 0 116 -124 0 -125 0 -4 -42 -4 -43 -1 48 -2 47 130 0 130 0 0 215 0
215 -55 0 c-42 0 -55 3 -55 15 0 13 -21 15 -125 15 -104 0 -125 -2 -125 -15 0
-8 -9 -15 -20 -15 -20 0 -20 -7 -20 -280 l0 -280 -107 2 -108 2 103 3 102 4 0
274 0 275 -75 0 c-60 0 -75 3 -75 15 0 13 -21 15 -125 15 -104 0 -125 -2 -125
-15 0 -12 -15 -15 -75 -15 l-75 0 0 -275 0 -274 108 -4 107 -3 -112 -2 -113
-2 0 280 0 280 -60 0 c-47 0 -60 3 -60 15 0 13 -21 15 -125 15 -104 0 -125 -2
-125 -15z"/>
<path d="M4100 3095 c0 -10 -10 -15 -30 -15 l-30 0 0 -115 0 -115 125 0 125 0
0 -25 0 -25 -125 0 -125 0 0 -300 0 -300 138 0 c126 0 141 2 157 20 10 11 22
17 27 14 5 -3 0 -16 -11 -28 -12 -12 -21 -34 -21 -49 0 -17 -5 -27 -15 -27 -8
0 -15 9 -15 20 0 19 -7 20 -130 20 l-130 0 0 -100 0 -100 130 0 c123 0 130 1
130 20 0 11 7 20 15 20 8 0 15 -9 15 -20 0 -18 7 -20 65 -20 51 0 65 -3 65
-15 0 -12 14 -15 70 -15 56 0 70 3 70 15 0 17 2 18 178 15 l132 -2 0 72 0 72
-135 -4 c-130 -3 -135 -2 -135 17 0 19 5 20 135 17 l135 -4 0 121 0 121 -120
0 -120 0 0 -55 c0 -42 -3 -55 -15 -55 -12 0 -15 14 -15 70 l0 70 135 0 135 0
0 195 0 195 -40 0 c-36 0 -40 3 -40 25 0 23 4 25 40 25 l40 0 0 115 0 115 -30
0 c-20 0 -30 5 -30 15 0 8 -7 15 -15 15 -8 0 -15 -7 -15 -15 0 -11 -12 -15
-45 -15 -33 0 -45 4 -45 15 0 8 -7 15 -15 15 -8 0 -15 -7 -15 -15 0 -11 -12
-15 -45 -15 -33 0 -45 4 -45 15 0 8 -7 15 -15 15 -8 0 -15 -7 -15 -15 0 -11
-12 -15 -45 -15 -33 0 -45 4 -45 15 0 8 -7 15 -15 15 -8 0 -15 -7 -15 -15 0
-11 -12 -15 -45 -15 -33 0 -45 4 -45 15 0 8 -7 15 -15 15 -8 0 -15 -7 -15 -15
0 -11 -12 -15 -45 -15 -33 0 -45 4 -45 15 0 8 -7 15 -15 15 -8 0 -15 -7 -15
-15 0 -11 -12 -15 -45 -15 -33 0 -45 4 -45 15 0 8 -7 15 -15 15 -8 0 -15 -7
-15 -15z m610 -270 c0 -25 0 -25 -95 -25 l-95 0 0 -218 0 -218 -29 -28 c-35
-33 -55 -17 -22 18 20 21 21 33 21 234 l0 212 -40 0 c-36 0 -40 3 -40 25 l0
25 150 0 150 0 0 -25z"/>
<path d="M5020 3095 c0 -10 -10 -15 -30 -15 l-30 0 0 -115 0 -115 145 0 145 0
0 -25 0 -25 -145 0 -145 0 0 -195 0 -195 135 0 135 0 0 -70 c0 -56 -3 -70 -15
-70 -12 0 -15 13 -15 55 l0 55 -120 0 -120 0 0 -121 0 -121 135 4 c130 3 135
2 135 -17 0 -19 -5 -20 -135 -17 l-135 4 0 -72 0 -72 133 2 c175 3 177 2 177
-15 0 -12 14 -15 70 -15 56 0 70 3 70 15 0 12 13 15 55 15 l55 0 0 95 c0 78 3
95 15 95 12 0 15 -17 15 -95 l0 -95 305 0 305 0 0 55 c0 48 2 55 20 55 19 0
20 7 20 125 0 118 -1 125 -20 125 -16 0 -20 7 -20 30 l0 30 -305 0 -305 0 0
-55 c0 -42 -3 -55 -15 -55 -12 0 -15 14 -15 70 l0 70 320 0 320 0 0 190 0 190
-150 0 c-143 0 -150 1 -150 20 0 19 -7 20 -125 20 -118 0 -125 -1 -125 -20 0
-19 -7 -20 -105 -20 l-105 0 0 -210 0 -210 -25 0 c-16 0 -25 6 -25 15 0 8 5
15 10 15 6 0 10 80 10 220 l0 220 50 0 c28 0 50 5 50 10 0 6 7 10 15 10 8 0
15 7 15 15 0 8 -7 15 -15 15 -11 0 -15 12 -15 45 0 33 4 45 15 45 8 0 15 7 15
15 0 8 -7 15 -15 15 -10 0 -15 10 -15 30 0 27 -3 30 -30 30 -20 0 -30 5 -30
15 0 8 -7 15 -15 15 -8 0 -15 -7 -15 -15 0 -11 -12 -15 -45 -15 -33 0 -45 4
-45 15 0 8 -7 15 -15 15 -8 0 -15 -7 -15 -15 0 -11 -12 -15 -45 -15 -33 0 -45
4 -45 15 0 8 -7 15 -15 15 -8 0 -15 -7 -15 -15 0 -11 -12 -15 -45 -15 -33 0
-45 4 -45 15 0 8 -7 15 -15 15 -8 0 -15 -7 -15 -15z"/>
<path d="M50 2530 c0 -43 -3 -50 -20 -50 -19 0 -20 -7 -20 -125 0 -118 1 -125
20 -125 17 0 20 -7 20 -50 l0 -50 260 0 c253 0 260 1 260 20 0 11 7 20 15 20
12 0 15 -13 15 -55 0 -42 -3 -55 -15 -55 -8 0 -15 9 -15 20 0 19 -7 20 -260
20 l-260 0 0 -35 c0 -28 -4 -35 -20 -35 -19 0 -20 -7 -20 -105 0 -98 1 -105
20 -105 17 0 20 -7 20 -40 0 -33 -3 -40 -20 -40 -19 0 -20 -7 -20 -105 0 -98
1 -105 20 -105 16 0 20 -7 20 -35 l0 -35 260 0 260 0 0 240 c0 207 2 240 15
240 13 0 15 -36 15 -265 l0 -265 -50 0 c-27 0 -50 -4 -50 -10 0 -5 -7 -10 -15
-10 -8 0 -15 -7 -15 -15 0 -8 7 -15 15 -15 11 0 15 -12 15 -45 0 -33 -4 -45
-15 -45 -8 0 -15 -7 -15 -15 0 -8 7 -15 15 -15 10 0 15 -10 15 -30 0 -27 3
-30 30 -30 20 0 30 -5 30 -15 0 -8 7 -15 15 -15 8 0 15 7 15 15 0 11 12 15 45
15 33 0 45 -4 45 -15 0 -8 7 -15 15 -15 8 0 15 7 15 15 0 11 12 15 45 15 33 0
45 -4 45 -15 0 -8 7 -15 15 -15 8 0 15 7 15 15 0 11 12 15 45 15 33 0 45 -4
45 -15 0 -8 7 -15 15 -15 8 0 15 7 15 15 0 10 10 15 30 15 l30 0 0 115 0 115
-145 0 -145 0 0 25 0 25 145 0 145 0 0 190 0 190 -130 0 -130 0 0 70 c0 56 3
70 15 70 12 0 15 -13 15 -55 l0 -55 115 0 115 0 0 121 0 121 -130 -3 c-125 -4
-130 -3 -130 16 0 19 5 20 130 16 l130 -3 0 76 0 76 -115 0 c-70 0 -115 -4
-115 -10 0 -5 -7 -10 -15 -10 -9 0 -15 9 -15 25 l0 25 130 0 130 0 0 40 c0 29
4 40 15 40 12 0 15 14 15 70 0 56 -3 70 -15 70 -8 0 -15 9 -15 20 0 19 -7 20
-205 20 l-205 0 0 -145 c0 -122 -2 -145 -15 -145 -13 0 -15 23 -15 145 l0 145
-260 0 -260 0 0 -50z"/>
<path d="M1350 2305 c0 -8 -4 -15 -10 -15 -5 0 -10 -20 -10 -45 0 -33 -4 -45
-15 -45 -11 0 -15 12 -15 45 l0 45 -120 0 -120 0 0 -150 0 -150 120 0 120 0 0
45 c0 33 4 45 15 45 12 0 15 -13 15 -60 l0 -60 -135 0 -135 0 0 -250 0 -250
45 0 c41 0 45 -2 45 -25 0 -23 -4 -25 -45 -25 l-45 0 0 -115 0 -115 30 0 c20
0 30 -5 30 -15 0 -8 7 -15 15 -15 8 0 15 7 15 15 0 11 12 15 45 15 33 0 45 -4
45 -15 0 -8 7 -15 15 -15 8 0 15 7 15 15 0 11 12 15 45 15 33 0 45 -4 45 -15
0 -8 7 -15 15 -15 8 0 15 7 15 15 0 11 12 15 45 15 33 0 45 -4 45 -15 0 -8 7
-15 15 -15 8 0 15 7 15 15 0 11 12 15 45 15 33 0 45 -4 45 -15 0 -8 7 -15 15
-15 8 0 15 7 15 15 0 11 12 15 45 15 33 0 45 -4 45 -15 0 -8 7 -15 15 -15 8 0
15 7 15 15 0 11 12 15 45 15 33 0 45 -4 45 -15 0 -8 7 -15 15 -15 8 0 15 7 15
15 0 10 10 15 30 15 l30 0 0 115 0 115 -330 0 -330 0 0 25 c0 25 1 25 85 25
l85 0 0 259 0 259 74 66 c72 65 106 81 106 51 0 -8 -8 -15 -17 -15 -10 0 -43
-26 -75 -57 l-58 -57 0 -253 0 -253 235 0 235 0 0 310 0 310 -100 0 c-82 0
-100 3 -100 15 0 12 19 15 115 15 l115 0 0 -325 0 -325 115 0 115 0 0 -25 0
-25 -110 0 -110 0 0 -115 0 -115 30 0 c20 0 30 -5 30 -15 0 -8 7 -15 15 -15 8
0 15 7 15 15 0 11 12 15 45 15 33 0 45 -4 45 -15 0 -8 7 -15 15 -15 8 0 15 7
15 15 0 11 12 15 45 15 33 0 45 -4 45 -15 0 -8 7 -15 15 -15 8 0 15 7 15 15 0
11 12 15 45 15 33 0 45 -4 45 -15 0 -8 7 -15 15 -15 8 0 15 7 15 15 0 10 10
15 30 15 27 0 30 3 30 30 0 20 5 30 15 30 8 0 15 7 15 15 0 8 -7 15 -15 15
-11 0 -15 12 -15 45 0 33 4 45 15 45 8 0 15 7 15 15 0 8 -7 15 -15 15 -8 0
-15 5 -15 10 0 6 -35 10 -85 10 -84 0 -85 0 -85 25 0 21 5 25 30 25 l30 0 0
310 0 310 -145 0 -145 0 0 105 0 105 -300 0 c-260 0 -300 2 -300 15 0 12 -14
15 -70 15 -56 0 -70 -3 -70 -15z"/>
<path d="M5510 1725 c0 -167 -2 -195 -15 -195 -12 0 -15 13 -15 60 l0 60 -45
0 c-25 0 -45 5 -45 10 0 15 -137 13 -142 -2 -3 -8 -44 -11 -146 -9 l-142 2 0
-71 0 -72 130 3 c125 4 130 3 130 -16 0 -19 -5 -20 -130 -16 l-130 3 0 -121 0
-121 115 0 115 0 0 55 c0 42 3 55 15 55 12 0 15 -14 15 -70 l0 -70 -130 0
-130 0 0 -265 0 -265 45 0 c38 0 45 -3 45 -20 0 -19 7 -20 125 -20 118 0 125
1 125 20 0 15 7 20 25 20 l25 0 2 278 c2 220 6 277 16 277 11 0 13 -55 12
-277 l-1 -278 71 0 c63 0 70 -2 70 -20 0 -19 7 -20 125 -20 118 0 125 1 125
20 0 18 7 20 70 20 l70 0 0 326 0 325 -220 -3 c-180 -2 -219 -1 -215 10 3 8 5
27 5 43 0 19 5 29 15 29 9 0 15 -9 15 -25 l0 -25 200 0 200 0 0 60 c0 57 1 60
25 60 22 0 25 -4 25 -37 0 -21 3 -48 6 -60 7 -26 34 -32 34 -8 0 11 12 15 45
15 33 0 45 -4 45 -15 0 -8 7 -15 15 -15 8 0 15 7 15 15 0 10 10 15 30 15 27 0
30 3 30 30 0 17 5 30 10 30 6 0 10 7 10 15 0 8 -4 15 -10 15 -5 0 -10 20 -10
45 0 25 5 45 10 45 6 0 10 7 10 15 0 8 -4 15 -10 15 -5 0 -10 20 -10 45 0 25
5 45 10 45 6 0 10 7 10 15 0 8 -4 15 -10 15 -5 0 -10 20 -10 45 0 25 5 45 10
45 6 0 10 7 10 15 0 8 -4 15 -10 15 -5 0 -10 18 -10 40 l0 40 -110 0 -110 0 0
-160 0 -160 -25 0 -25 0 0 160 0 160 -200 0 -200 0 0 -195z"/>
<path d="M4330 1653 c0 -10 -70 -13 -314 -13 l-315 0 -4 -42 -4 -43 -1 43 -2
42 -190 0 -190 0 0 -400 0 -400 55 0 c42 0 55 -3 55 -15 0 -12 -14 -15 -65
-15 -63 0 -65 -1 -65 -25 0 -14 -4 -25 -10 -25 -5 0 -10 -11 -10 -25 0 -14 5
-25 10 -25 6 0 10 -13 10 -30 0 -27 3 -30 30 -30 17 0 30 -4 30 -10 0 -5 11
-10 25 -10 14 0 25 5 25 10 0 6 16 10 35 10 19 0 35 -4 35 -10 0 -5 11 -10 25
-10 14 0 25 5 25 10 0 6 16 10 35 10 19 0 35 -4 35 -10 0 -5 11 -10 25 -10 14
0 25 5 25 10 0 6 7 10 15 10 12 0 15 16 15 80 l0 80 -55 0 c-42 0 -55 3 -55
15 0 12 14 15 65 15 l65 0 2 293 c1 160 3 275 5 255 l4 -37 87 -4 87 -3 -87
-2 -88 -2 0 -335 0 -335 40 0 c29 0 40 -4 40 -15 0 -12 18 -15 105 -15 87 0
105 3 105 15 0 11 12 15 45 15 l45 0 0 334 0 335 -37 4 c-21 2 -2 4 42 4 44 0
63 -2 43 -4 l-38 -4 0 -335 0 -334 45 0 c33 0 45 -4 45 -15 0 -12 18 -15 105
-15 87 0 105 3 105 15 0 11 11 15 40 15 l40 0 0 335 0 334 -87 4 -88 3 93 2
92 2 0 -74 c0 -69 2 -75 23 -79 l22 -4 -22 -2 -23 -1 0 -260 0 -260 45 0 c33
0 45 -4 45 -15 0 -13 21 -15 125 -15 104 0 125 2 125 15 0 11 12 15 50 15 l50
0 0 260 0 260 -130 0 -130 0 2 63 2 62 3 -57 4 -58 124 0 125 0 0 131 0 130
-130 -3 c-82 -2 -130 1 -130 7 0 6 48 9 130 7 l130 -3 0 85 0 86 -124 0 c-90
0 -126 -3 -129 -12 -4 -10 -6 -10 -6 0 -1 8 -25 12 -86 12 -61 0 -85 3 -85 13
0 8 -23 12 -80 12 -57 0 -80 -4 -80 -12z"/>
</g>
</svg>
