<?xml version="1.0" standalone="no"?>
<!DOCTYPE svg PUBLIC "-//W3C//DTD SVG 20010904//EN"
 "http://www.w3.org/TR/2001/REC-SVG-20010904/DTD/svg10.dtd">
<svg version="1.0" xmlns="http://www.w3.org/2000/svg"
 width="553.000000pt" height="413.000000pt" viewBox="0 0 553.000000 413.000000"
 preserveAspectRatio="xMidYMid meet">
<metadata>
Created by potrace 1.11, written by Peter Selinger 2001-2013
</metadata>
<g transform="translate(0.000000,413.000000) scale(0.100000,-0.100000)"
fill="#000000" stroke="none">
<path d="M1730 3745 c0 -9 -9 -15 -24 -15 -14 0 -30 -10 -40 -25 -19 -29 -36
-33 -36 -7 0 14 -4 12 -20 -8 -18 -24 -18 -34 1 -36 5 -1 12 -2 15 -3 5 -1
-48 -105 -96 -183 l-22 -38 111 0 111 0 0 -25 0 -25 -130 0 -130 0 0 -510 0
-510 290 0 290 0 0 510 0 510 -90 0 c-89 0 -90 0 -90 25 0 24 0 24 115 27
l115 3 -45 73 c-25 39 -45 78 -45 85 0 7 -5 18 -11 24 -14 14 -4 47 11 38 17
-10 11 9 -11 35 -13 15 -19 18 -15 8 9 -29 -18 -26 -36 4 -12 19 -26 28 -43
28 -16 0 -25 6 -25 15 0 8 -7 15 -15 15 -8 0 -15 -7 -15 -15 0 -11 -12 -15
-45 -15 -33 0 -45 4 -45 15 0 8 -7 15 -15 15 -8 0 -15 -7 -15 -15z"/>
<path d="M3340 3745 c0 -9 -9 -15 -24 -15 -14 0 -30 -10 -40 -25 -19 -29 -36
-33 -36 -7 0 14 -4 12 -20 -8 -18 -24 -18 -34 1 -36 5 -1 11 -2 14 -3 5 -1
-52 -113 -95 -183 l-22 -38 116 0 116 0 0 -25 c0 -25 0 -25 -95 -25 l-95 0 0
-510 1 -510 249 0 c216 0 250 -2 250 -15 0 -12 14 -15 70 -15 56 0 70 3 70 15
0 13 20 15 120 15 l120 0 0 510 0 510 -30 0 c-23 0 -30 4 -30 20 0 19 -7 20
-125 20 -118 0 -125 -1 -125 -20 0 -19 -7 -20 -120 -20 l-120 0 0 25 c0 24 0
24 110 27 l110 3 -42 70 c-24 39 -49 85 -55 104 -13 35 -9 56 8 46 16 -10 9 9
-12 35 -14 16 -19 19 -15 8 8 -27 -19 -22 -38 7 -10 16 -26 25 -41 25 -16 0
-25 6 -25 15 0 8 -7 15 -15 15 -8 0 -15 -7 -15 -15 0 -11 -12 -15 -45 -15 -33
0 -45 4 -45 15 0 8 -7 15 -15 15 -8 0 -15 -7 -15 -15z"/>
<path d="M2220 3400 c0 -18 -7 -20 -70 -20 l-70 0 0 -340 0 -340 130 0 c109 0
130 -2 130 -15 0 -13 -21 -15 -130 -15 l-130 0 0 -155 0 -155 230 0 c198 0
230 -2 230 -15 0 -12 14 -15 70 -15 56 0 70 3 70 15 0 13 31 15 215 15 l215 0
0 510 0 510 -65 0 c-58 0 -65 2 -65 20 0 19 -7 20 -125 20 -118 0 -125 -1
-125 -20 0 -18 -7 -20 -55 -20 l-55 0 0 -355 0 -355 -80 0 c-64 0 -80 3 -80
15 0 12 14 15 65 15 l65 0 0 340 0 340 -60 0 c-53 0 -60 2 -60 20 0 19 -7 20
-125 20 -118 0 -125 -1 -125 -20z"/>
<path d="M4290 3400 c0 -19 -7 -20 -100 -20 l-100 0 0 -310 0 -310 70 0 c56 0
70 -3 70 -15 0 -12 -14 -15 -70 -15 l-70 0 0 -185 0 -185 155 0 155 0 0 185 0
185 -25 0 c-16 0 -25 6 -25 15 0 11 12 15 50 15 38 0 50 -4 50 -15 0 -8 -4
-15 -10 -15 -6 0 -10 -77 -10 -210 l0 -210 -170 0 -170 0 0 -35 c0 -19 -4 -35
-10 -35 -6 0 -10 -30 -10 -70 0 -40 4 -70 10 -70 6 0 10 -11 10 -25 l0 -25
130 0 130 0 0 -25 c0 -20 5 -25 25 -25 16 0 25 -6 25 -15 0 -9 -9 -15 -25 -15
l-25 0 0 -225 0 -225 110 0 110 0 0 225 0 225 -25 0 c-16 0 -25 6 -25 15 0 9
9 15 25 15 23 0 25 4 25 40 0 29 4 40 15 40 13 0 15 -38 15 -280 l0 -280 275
0 275 0 0 40 c0 33 3 40 20 40 19 0 20 7 20 125 0 118 -1 125 -20 125 -19 0
-20 7 -20 140 l0 140 25 0 c24 0 24 0 27 -115 l3 -115 73 45 c39 25 78 45 85
45 7 0 18 5 24 11 14 14 47 4 38 -11 -10 -17 9 -11 35 11 15 13 18 19 8 15
-29 -9 -26 18 4 36 19 12 28 26 28 43 0 16 6 25 15 25 8 0 15 7 15 15 0 8 -7
15 -15 15 -11 0 -15 12 -15 45 0 33 4 45 15 45 8 0 15 7 15 15 0 8 -7 15 -15
15 -9 0 -15 9 -15 24 0 14 -10 30 -25 40 -29 19 -33 36 -7 36 14 0 12 4 -8 20
-24 18 -34 18 -36 -1 -1 -5 -2 -12 -3 -15 -1 -5 -105 48 -183 96 l-38 22 0
-121 0 -121 -25 0 c-21 0 -25 5 -25 30 l0 30 -275 0 -275 0 0 -55 c0 -42 -3
-55 -15 -55 -13 0 -15 29 -15 205 0 176 2 205 15 205 13 0 15 -21 15 -125 l0
-125 275 0 275 0 0 95 c0 88 1 95 20 95 19 0 20 7 20 125 0 118 -1 125 -20
125 -19 0 -20 7 -20 120 0 113 1 120 20 120 19 0 20 7 20 125 0 118 -1 125
-20 125 -17 0 -20 7 -20 45 l0 45 -275 0 -275 0 0 -325 c0 -282 -2 -325 -15
-325 -13 0 -15 43 -15 325 0 282 -2 325 -15 325 -8 0 -15 9 -15 20 0 19 -7 20
-125 20 -118 0 -125 -1 -125 -20z"/>
<path d="M3660 2023 c0 -10 -24 -13 -84 -13 l-85 0 -4 -52 -3 -53 -2 53 -2 52
-165 0 -165 0 0 -200 0 -200 165 0 164 0 4 83 3 82 2 -82 2 -82 63 -4 c34 -2
-43 -4 -170 -5 l-233 -2 0 -325 0 -325 120 0 c100 0 120 -2 120 -15 0 -12 -20
-15 -120 -15 l-120 0 0 -105 c0 -98 1 -105 20 -105 11 0 20 -4 20 -10 0 -5 11
-10 25 -10 14 0 25 5 25 10 0 6 16 10 35 10 19 0 35 -4 35 -10 0 -5 11 -10 25
-10 14 0 25 5 25 10 0 6 16 10 35 10 19 0 35 -4 35 -10 0 -5 11 -10 25 -10 14
0 25 5 25 10 0 6 16 10 35 10 19 0 35 -4 35 -10 0 -5 11 -10 25 -10 14 0 25 5
25 10 0 6 16 10 35 10 19 0 35 -4 35 -10 0 -15 39 -12 56 4 10 11 14 41 14
115 l0 101 -95 0 c-78 0 -95 3 -95 15 0 13 34 15 250 15 l250 0 0 325 0 324
-97 4 -98 3 103 2 102 2 0 -330 0 -330 55 0 c42 0 55 -3 55 -15 0 -13 -29 -15
-200 -15 l-200 0 0 -260 0 -260 430 0 430 0 0 120 c0 100 3 120 15 120 13 0
15 -20 15 -120 l0 -120 145 0 145 0 0 25 c0 14 5 25 10 25 6 0 10 11 10 25 0
14 -4 25 -10 25 -5 0 -10 16 -10 35 0 19 5 35 10 35 6 0 10 11 10 25 0 14 -4
25 -10 25 -5 0 -10 16 -10 35 0 19 5 35 10 35 6 0 10 11 10 25 0 14 -4 25 -10
25 -5 0 -10 16 -10 35 0 19 5 35 10 35 6 0 10 11 10 25 0 14 -4 25 -10 25 -5
0 -10 14 -10 30 l0 30 -145 0 -145 0 0 -70 c0 -56 -3 -70 -15 -70 -12 0 -15
14 -15 70 l0 70 -160 0 -160 0 2 133 2 132 3 -118 4 -117 419 0 420 0 0 80 c0
64 3 80 15 80 13 0 15 21 15 125 0 104 -2 125 -15 125 -12 0 -15 13 -15 60 l0
60 -420 0 -419 0 -4 -82 c-1 -46 -4 73 -5 265 l-2 347 -245 0 c-189 0 -245 3
-245 13 0 8 -23 12 -80 12 -57 0 -80 -4 -80 -12z"/>
<path d="M1210 2015 c0 -8 -9 -15 -20 -15 -19 0 -20 -7 -20 -120 0 -100 -2
-120 -15 -120 -12 0 -15 20 -15 120 l0 120 -355 0 -355 0 0 -85 c0 -84 0 -85
-25 -85 -25 0 -25 1 -25 85 l0 85 -110 0 -110 0 0 -45 c0 -33 -4 -45 -15 -45
-8 0 -15 -7 -15 -15 0 -8 7 -15 15 -15 11 0 15 -12 15 -45 0 -33 -4 -45 -15
-45 -8 0 -15 -7 -15 -15 0 -8 7 -15 15 -15 11 0 15 -12 15 -45 0 -33 -4 -45
-15 -45 -8 0 -15 -7 -15 -15 0 -8 7 -15 15 -15 11 0 15 -12 15 -45 0 -33 -4
-45 -15 -45 -8 0 -15 -7 -15 -15 0 -8 7 -15 15 -15 10 0 15 -10 15 -30 0 -27
3 -30 30 -30 20 0 30 -5 30 -15 0 -8 7 -15 15 -15 8 0 15 7 15 15 0 11 12 15
45 15 33 0 45 -4 45 -15 0 -24 27 -18 34 8 3 12 6 75 6 140 l0 117 25 0 c25 0
25 -1 25 -80 l0 -80 355 0 355 0 0 45 c0 33 4 45 15 45 12 0 15 -15 15 -75 0
-60 -3 -75 -15 -75 -8 0 -15 7 -15 15 0 13 -46 15 -355 15 l-355 0 0 -80 c0
-73 -2 -80 -20 -80 -19 0 -20 -7 -20 -125 0 -118 1 -125 20 -125 19 0 20 -7
20 -130 l0 -130 115 0 c108 0 115 -1 115 -20 0 -19 7 -20 125 -20 118 0 125 1
125 20 0 19 7 20 115 20 l115 0 0 260 c0 224 2 260 15 260 8 0 15 -7 15 -15 0
-11 12 -15 50 -15 38 0 50 -4 50 -15 0 -11 -12 -15 -50 -15 l-50 0 0 -230 0
-230 175 0 175 0 0 230 0 230 -65 0 c-51 0 -65 3 -65 15 0 12 14 15 65 15 l65
0 0 330 0 330 -85 0 c-69 0 -85 3 -85 15 0 12 -14 15 -70 15 -56 0 -70 -3 -70
-15z"/>
<path d="M2540 2015 c0 -13 -35 -15 -255 -15 l-255 0 0 -75 c0 -60 -3 -75 -15
-75 -12 0 -15 15 -15 75 l0 75 -225 0 -225 0 0 -330 c0 -213 4 -330 10 -330 6
0 10 -70 10 -190 l0 -190 65 0 c58 0 65 -2 65 -20 0 -19 7 -20 125 -20 118 0
125 1 125 20 0 15 7 20 25 20 l25 0 0 385 c0 336 2 385 15 385 8 0 15 -9 15
-20 0 -19 7 -20 155 -20 131 0 155 -2 155 -15 0 -13 -24 -15 -155 -15 l-155 0
0 -350 0 -350 110 0 c103 0 110 -1 110 -20 0 -19 7 -20 125 -20 118 0 125 1
125 20 0 15 7 20 25 20 l25 0 0 350 0 350 -45 0 c-33 0 -45 4 -45 15 0 12 13
15 60 15 l60 0 0 -365 0 -365 70 0 c68 0 70 -1 70 -25 0 -24 -2 -25 -70 -25
l-70 0 0 -95 c0 -57 4 -95 10 -95 6 0 10 -7 10 -15 0 -8 7 -15 15 -15 8 0 15
7 15 15 0 11 12 15 45 15 33 0 45 -4 45 -15 0 -8 7 -15 15 -15 8 0 15 7 15 15
0 11 12 15 45 15 33 0 45 -4 45 -15 0 -8 7 -15 15 -15 8 0 15 7 15 15 0 11 12
15 45 15 33 0 45 -4 45 -15 0 -8 7 -15 15 -15 8 0 15 7 15 15 0 11 12 15 45
15 33 0 45 -4 45 -15 0 -8 7 -15 15 -15 12 0 15 19 15 110 l0 110 -125 0 -125
0 0 25 0 25 125 0 125 0 0 315 0 315 -205 0 c-176 0 -205 2 -205 15 0 10 11
15 35 15 l35 0 0 80 c0 64 3 80 15 80 12 0 15 -16 15 -80 l0 -80 155 0 155 0
0 190 0 190 -155 0 -155 0 0 -50 c0 -38 -4 -50 -15 -50 -11 0 -15 12 -15 50
l0 50 -45 0 c-33 0 -45 4 -45 15 0 12 -14 15 -70 15 -56 0 -70 -3 -70 -15z"/>
</g>
</svg>
