<?xml version="1.0" standalone="no"?>
<!DOCTYPE svg PUBLIC "-//W3C//DTD SVG 20010904//EN"
 "http://www.w3.org/TR/2001/REC-SVG-20010904/DTD/svg10.dtd">
<svg version="1.0" xmlns="http://www.w3.org/2000/svg"
 width="534.000000pt" height="443.000000pt" viewBox="0 0 534.000000 443.000000"
 preserveAspectRatio="xMidYMid meet">
<metadata>
Created by potrace 1.11, written by Peter Selinger 2001-2013
</metadata>
<g transform="translate(0.000000,443.000000) scale(0.100000,-0.100000)"
fill="#000000" stroke="none">
<path d="M2030 4305 c0 -68 -2 -75 -20 -75 -19 0 -20 -7 -20 -125 0 -118 1
-125 20 -125 18 0 20 -7 20 -80 l0 -80 470 0 470 0 0 50 c0 38 4 50 15 50 13
0 15 -63 15 -510 l0 -510 40 0 c22 0 40 -4 40 -10 0 -6 30 -10 70 -10 40 0 70
4 70 10 0 6 25 10 55 10 l55 0 0 360 0 360 25 0 25 0 0 -230 0 -230 85 0 85 0
0 165 0 165 -25 0 c-16 0 -25 6 -25 15 0 12 15 15 75 15 60 0 75 -3 75 -15 0
-10 -11 -15 -35 -15 l-35 0 0 -165 0 -165 180 0 180 0 0 165 0 165 -85 0 c-69
0 -85 3 -85 15 0 12 16 15 85 15 78 0 85 2 85 20 0 11 7 20 15 20 13 0 15 -29
15 -200 l0 -200 320 0 320 0 0 50 c0 47 2 50 25 50 23 0 25 -3 25 -50 l0 -50
186 0 187 0 -6 30 c-5 22 -3 30 8 30 22 0 18 31 -5 37 -13 3 -20 14 -20 28 0
13 -3 30 -6 39 -4 11 -1 16 10 16 23 0 20 31 -4 37 -13 3 -20 14 -20 28 0 13
-3 30 -6 39 -4 11 -1 16 10 16 23 0 20 27 -4 33 -13 3 -20 14 -20 30 0 14 -3
32 -6 41 -4 11 -1 16 10 16 23 0 20 27 -4 33 -13 3 -20 14 -20 30 0 14 -3 32
-6 41 -4 11 -1 16 10 16 9 0 16 7 16 15 0 8 -7 15 -15 15 -9 0 -18 12 -21 30
l-6 30 -134 0 -134 0 0 -205 0 -205 -25 0 -25 0 0 180 0 180 -320 0 -320 0 0
-30 c0 -20 -5 -30 -15 -30 -10 0 -15 10 -15 30 l0 30 -75 0 c-60 0 -75 3 -75
15 0 13 52 15 410 15 l410 0 0 105 c0 98 1 105 20 105 19 0 20 7 20 125 0 118
-1 125 -20 125 -18 0 -20 7 -20 75 l0 75 -510 0 -510 0 0 -130 c0 -109 -2
-130 -15 -130 -13 0 -15 21 -15 130 l0 130 -90 0 -90 0 0 -305 0 -305 90 0 90
0 0 115 c0 96 3 115 15 115 12 0 15 -19 15 -115 l0 -115 40 0 c29 0 40 -4 40
-15 0 -13 -26 -15 -170 -15 l-170 0 0 150 0 150 -180 0 -180 0 0 60 c0 47 3
60 15 60 11 0 15 -12 15 -45 l0 -45 165 0 165 0 0 155 0 155 -165 0 -165 0 0
-50 c0 -38 -4 -50 -15 -50 -11 0 -15 12 -15 50 l0 50 -470 0 -470 0 0 -75z"/>
<path d="M360 3290 c0 -5 -7 -10 -15 -10 -13 0 -15 -22 -15 -140 l0 -140 65 0
c51 0 65 -3 65 -15 0 -12 -14 -15 -65 -15 l-65 0 0 -455 0 -455 218 -1 c119
-1 207 -4 195 -6 -14 -3 -23 -13 -26 -31 l-4 -27 -2 28 -1 27 -190 0 -190 0 0
-165 0 -165 190 0 189 0 4 73 3 72 2 -87 2 -88 -195 0 -195 0 0 -480 0 -480
180 0 c153 0 180 -2 180 -15 0 -13 -28 -15 -190 -15 l-190 0 0 -140 0 -140 30
0 c17 0 30 -4 30 -10 0 -5 11 -10 25 -10 14 0 25 5 25 10 0 6 16 10 35 10 19
0 35 -4 35 -10 0 -5 11 -10 25 -10 14 0 25 5 25 10 0 6 16 10 35 10 19 0 35
-4 35 -10 0 -5 11 -10 25 -10 14 0 25 5 25 10 0 6 16 10 35 10 19 0 35 -4 35
-10 0 -5 11 -10 25 -10 14 0 25 5 25 10 0 6 16 10 35 10 19 0 35 -4 35 -10 0
-5 11 -10 25 -10 14 0 25 5 25 10 0 6 14 10 30 10 l30 0 0 140 0 140 -65 0
c-51 0 -65 3 -65 15 0 12 14 15 65 15 l65 0 0 480 0 480 -50 0 c-38 0 -50 4
-50 15 0 13 58 15 465 15 l465 0 0 40 c0 22 3 40 8 40 4 0 7 36 7 80 0 44 -3
80 -7 80 -5 0 -8 18 -8 40 l0 40 99 0 100 0 4 33 4 32 1 -32 2 -33 220 0 220
0 0 185 0 185 -220 0 -220 0 -1 -87 c-1 -49 -4 -78 -6 -66 -4 22 -9 23 -136
26 l-132 3 133 2 132 2 0 340 0 340 -65 0 c-51 0 -65 3 -65 15 0 13 -21 15
-125 15 -104 0 -125 -2 -125 -15 0 -11 -11 -15 -40 -15 l-40 0 0 -339 0 -340
33 -4 32 -4 -32 -1 -33 -2 0 -115 0 -115 -102 2 -103 2 98 3 97 4 0 454 0 455
-105 0 c-87 0 -105 3 -105 15 0 13 -21 15 -125 15 -104 0 -125 -2 -125 -15 0
-12 -15 -15 -75 -15 l-75 0 0 -455 0 -454 143 -4 142 -3 -147 -2 -148 -2 0
460 0 460 -150 0 c-127 0 -150 2 -150 15 0 13 26 15 175 15 l175 0 0 25 c0 14
5 25 10 25 6 0 10 11 10 25 0 14 -4 25 -10 25 -5 0 -10 16 -10 35 0 19 5 35
10 35 6 0 10 11 10 25 0 14 -4 25 -10 25 -5 0 -10 14 -10 30 0 27 -3 30 -30
30 -16 0 -30 5 -30 10 0 6 -11 10 -25 10 -14 0 -25 -4 -25 -10 0 -5 -16 -10
-35 -10 -19 0 -35 5 -35 10 0 6 -11 10 -25 10 -14 0 -25 -4 -25 -10 0 -5 -16
-10 -35 -10 -19 0 -35 5 -35 10 0 6 -11 10 -25 10 -14 0 -25 -4 -25 -10 0 -5
-16 -10 -35 -10 -19 0 -35 5 -35 10 0 6 -11 10 -25 10 -14 0 -25 -4 -25 -10 0
-5 -16 -10 -35 -10 -19 0 -35 5 -35 10 0 6 -11 10 -25 10 -14 0 -25 -4 -25
-10z"/>
<path d="M3380 2945 l0 -165 90 0 c73 0 90 -3 90 -15 0 -12 -17 -15 -90 -15
l-90 0 0 -60 c0 -47 -3 -60 -15 -60 -12 0 -15 -14 -15 -70 0 -56 3 -70 15 -70
13 0 15 -33 15 -240 l0 -240 150 0 150 0 0 150 c0 127 2 150 15 150 13 0 15
-23 15 -150 l0 -150 450 0 450 0 0 55 c0 48 2 55 20 55 19 0 20 7 20 125 0
118 -1 125 -20 125 -19 0 -20 7 -20 95 l0 95 -450 0 -450 0 0 -65 c0 -51 -3
-65 -15 -65 -12 0 -15 16 -15 80 l0 80 465 0 465 0 0 150 0 150 25 0 25 0 0
-205 0 -205 134 0 134 0 6 30 c3 18 12 30 21 30 8 0 15 7 15 15 0 8 -6 15 -13
15 -22 0 -9 81 14 87 23 6 25 33 3 33 -11 0 -14 5 -10 16 3 9 6 27 6 41 0 16
7 27 20 30 24 6 27 33 4 33 -11 0 -14 5 -10 16 3 9 6 26 6 39 0 14 7 25 20 28
24 6 27 37 4 37 -11 0 -14 5 -10 16 3 9 6 27 6 40 0 14 6 24 14 24 20 0 29 30
11 36 -10 4 -12 15 -8 35 l6 29 -187 0 -186 0 0 -50 c0 -47 -2 -50 -25 -50
-23 0 -25 3 -25 50 l0 50 -320 0 -320 0 0 -180 0 -180 -145 0 c-122 0 -145 2
-145 15 0 13 21 15 130 15 l130 0 0 165 0 165 -280 0 -280 0 0 -165z"/>
<path d="M3380 1965 c0 -8 -7 -15 -15 -15 -12 0 -15 -14 -15 -70 0 -56 3 -70
15 -70 12 0 15 -14 15 -70 l0 -70 95 0 c78 0 95 -3 95 -15 0 -12 -17 -15 -95
-15 l-95 0 0 -265 0 -265 165 0 165 0 0 265 c0 170 -4 265 -10 265 -5 0 -10 7
-10 15 0 9 9 15 25 15 l25 0 0 -295 0 -295 -180 0 -180 0 0 -315 0 -315 80 0
c73 0 80 -2 80 -20 0 -19 7 -20 125 -20 118 0 125 1 125 20 0 18 7 20 80 20
l80 0 0 315 0 315 -45 0 c-33 0 -45 4 -45 15 0 11 12 15 45 15 l45 0 0 305 c0
264 2 305 15 305 13 0 15 -41 15 -305 l0 -305 315 0 315 0 0 155 c0 148 1 155
20 155 19 0 20 7 20 125 0 118 -1 125 -20 125 -19 0 -20 7 -20 155 l0 155
-315 0 -315 0 0 -70 c0 -56 -3 -70 -15 -70 -12 0 -15 14 -15 70 l0 70 -285 0
c-247 0 -285 -2 -285 -15z"/>
<path d="M1860 1695 c0 -13 -34 -15 -250 -15 l-250 0 0 -115 c0 -96 -3 -115
-15 -115 -12 0 -15 19 -15 115 l0 115 -165 0 -165 0 0 -265 0 -265 165 0 165
0 0 90 c0 73 3 90 15 90 12 0 15 -18 15 -105 l0 -105 -180 0 -180 0 0 -335 0
-335 80 0 c73 0 80 -2 80 -20 0 -19 7 -20 125 -20 118 0 125 1 125 20 0 18 7
20 80 20 l80 0 0 335 0 335 -45 0 c-33 0 -45 4 -45 15 0 11 12 15 45 15 l45 0
0 115 0 115 90 0 c73 0 90 -3 90 -15 0 -12 -15 -15 -75 -15 l-75 0 0 -450 0
-450 75 0 c73 0 75 -1 75 -25 l0 -25 -120 0 -120 0 0 -134 0 -133 31 -7 c21
-4 29 -10 26 -20 -4 -9 3 -16 17 -18 18 -4 22 -1 19 12 -4 14 2 16 39 11 33
-5 43 -11 42 -24 -1 -10 5 -17 17 -17 11 0 19 7 19 15 0 11 8 13 33 9 52 -9
59 -13 53 -29 -4 -10 1 -15 14 -15 12 0 20 7 20 16 0 11 5 14 16 10 9 -3 27
-6 40 -6 17 0 24 -6 24 -20 0 -13 7 -20 20 -20 12 0 20 7 20 16 0 11 5 14 16
10 9 -3 26 -6 39 -6 14 0 25 -7 28 -20 6 -23 37 -27 37 -5 0 11 8 13 30 8 l30
-6 0 187 0 186 -135 0 -135 0 0 25 0 25 140 0 140 0 0 450 0 450 -140 0 c-118
0 -140 2 -140 15 0 13 22 15 140 15 l140 0 0 150 0 150 -75 0 c-60 0 -75 3
-75 15 0 12 -14 15 -70 15 -56 0 -70 -3 -70 -15z"/>
<path d="M2500 1695 c0 -13 -24 -15 -160 -15 l-160 0 0 -150 0 -150 140 0
c118 0 140 -2 140 -15 0 -13 -22 -15 -140 -15 l-140 0 0 -450 0 -450 140 0
140 0 0 -25 0 -25 -135 0 -135 0 0 -186 0 -187 30 6 c22 5 30 3 30 -8 0 -22
31 -18 37 5 3 13 14 20 28 20 13 0 30 3 39 6 11 4 16 1 16 -10 0 -9 8 -16 20
-16 13 0 20 7 20 20 0 14 7 20 24 20 13 0 31 3 40 6 11 4 16 1 16 -10 0 -9 8
-16 20 -16 13 0 18 5 14 15 -6 16 1 20 54 29 24 4 32 2 32 -9 0 -8 8 -15 19
-15 12 0 18 7 17 17 -1 13 9 19 42 24 37 5 43 3 39 -11 -3 -13 1 -16 19 -12
14 2 21 9 17 18 -3 10 5 16 26 20 l31 7 0 133 0 134 -120 0 -120 0 0 25 c0 24
2 25 75 25 l75 0 0 450 0 450 -75 0 c-60 0 -75 3 -75 15 0 12 17 15 90 15 l90
0 0 -115 0 -115 45 0 c33 0 45 -4 45 -15 0 -11 -12 -15 -45 -15 l-45 0 0 -335
0 -335 80 0 c73 0 80 -2 80 -20 0 -19 7 -20 125 -20 118 0 125 1 125 20 0 18
7 20 80 20 l80 0 0 335 0 335 -180 0 -180 0 0 105 c0 87 3 105 15 105 12 0 15
-17 15 -90 l0 -90 165 0 165 0 0 265 0 265 -165 0 -165 0 0 -115 c0 -96 -3
-115 -15 -115 -12 0 -15 19 -15 115 l0 115 -165 0 c-140 0 -165 2 -165 15 0
12 -14 15 -70 15 -56 0 -70 -3 -70 -15z"/>
<path d="M4000 765 c0 -190 4 -295 10 -295 6 0 10 -7 10 -15 0 -8 7 -15 15
-15 8 0 15 7 15 15 0 11 12 15 45 15 33 0 45 -4 45 -15 0 -8 7 -15 15 -15 8 0
15 7 15 15 0 11 12 15 45 15 33 0 45 -4 45 -15 0 -8 7 -15 15 -15 8 0 15 7 15
15 0 11 12 15 45 15 33 0 45 -4 45 -15 0 -8 7 -15 15 -15 8 0 15 7 15 15 0 11
12 15 45 15 33 0 45 -4 45 -15 0 -8 7 -15 15 -15 11 0 15 12 15 45 l0 45 45 0
c33 0 45 4 45 15 0 8 -7 15 -15 15 -11 0 -15 12 -15 45 0 33 4 45 15 45 8 0
15 7 15 15 0 8 -7 15 -15 15 -11 0 -15 12 -15 45 0 33 4 45 15 45 8 0 15 7 15
15 0 8 -7 15 -15 15 -11 0 -15 12 -15 45 0 33 4 45 15 45 8 0 15 7 15 15 0 8
-7 15 -15 15 -11 0 -15 12 -15 45 0 33 4 45 15 45 8 0 15 7 15 15 0 8 -7 15
-15 15 -8 0 -15 5 -15 10 0 6 -105 10 -295 10 l-295 0 0 -295z"/>
</g>
</svg>
