<?xml version="1.0" standalone="no"?>
<!DOCTYPE svg PUBLIC "-//W3C//DTD SVG 20010904//EN"
 "http://www.w3.org/TR/2001/REC-SVG-20010904/DTD/svg10.dtd">
<svg version="1.0" xmlns="http://www.w3.org/2000/svg"
 width="534.000000pt" height="413.000000pt" viewBox="0 0 534.000000 413.000000"
 preserveAspectRatio="xMidYMid meet">
<metadata>
Created by potrace 1.11, written by Peter Selinger 2001-2013
</metadata>
<g transform="translate(0.000000,413.000000) scale(0.100000,-0.100000)"
fill="#000000" stroke="none">
<path d="M1280 3925 c0 -10 -10 -15 -30 -15 -27 0 -30 -3 -30 -30 0 -20 -5
-30 -15 -30 -8 0 -15 -7 -15 -15 0 -8 7 -15 15 -15 11 0 15 -12 15 -45 0 -33
-4 -45 -15 -45 -8 0 -15 -7 -15 -15 0 -8 7 -15 15 -15 11 0 15 -11 15 -40 l0
-40 210 0 210 0 0 -25 0 -25 -570 0 -570 0 0 -180 c0 -173 -1 -180 -20 -180
-19 0 -20 -7 -20 -125 0 -118 1 -125 20 -125 20 0 20 -7 20 -320 l0 -320 230
0 230 0 0 -25 0 -25 -230 0 -230 0 0 -175 0 -175 430 0 430 0 0 35 c0 19 5 35
10 35 6 0 10 30 10 70 0 40 -4 70 -10 70 -6 0 -10 38 -10 95 l0 95 30 0 30 0
0 130 c0 109 2 130 15 130 13 0 15 -21 15 -130 l0 -130 215 0 215 0 0 245 0
245 -215 0 -215 0 0 -45 c0 -33 -4 -45 -15 -45 -12 0 -15 13 -15 60 l0 60 230
0 230 0 0 365 0 365 -50 0 c-47 0 -50 2 -50 25 0 23 3 25 50 25 l50 0 0 145 0
145 -45 0 c-33 0 -45 4 -45 15 0 8 -7 15 -15 15 -8 0 -15 -7 -15 -15 0 -11
-12 -15 -45 -15 -33 0 -45 4 -45 15 0 8 -7 15 -15 15 -8 0 -15 -7 -15 -15 0
-11 -12 -15 -45 -15 -33 0 -45 4 -45 15 0 8 -7 15 -15 15 -8 0 -15 -7 -15 -15
0 -11 -12 -15 -45 -15 -33 0 -45 4 -45 15 0 8 -7 15 -15 15 -8 0 -15 -7 -15
-15 0 -11 -12 -15 -45 -15 -33 0 -45 4 -45 15 0 8 -7 15 -15 15 -8 0 -15 -7
-15 -15z"/>
<path d="M3050 3930 c0 -5 -20 -10 -45 -10 l-45 0 0 -155 0 -155 50 0 c38 0
50 -4 50 -15 0 -11 -12 -15 -50 -15 l-50 0 0 -460 0 -460 198 -1 c108 -1 187
-4 175 -6 -17 -3 -23 -13 -26 -41 l-4 -37 -1 38 -2 37 -170 0 -170 0 0 -170 0
-170 170 0 169 0 4 58 3 57 2 -57 2 -58 85 0 85 0 0 -85 c0 -47 -3 -85 -7 -85
-5 0 -8 -36 -8 -80 0 -44 3 -80 8 -80 4 0 7 -16 7 -35 l0 -35 300 0 300 0 0
-650 0 -650 135 0 c113 0 135 -2 135 -15 0 -13 21 -15 125 -15 104 0 125 2
125 15 0 13 21 15 130 15 l130 0 0 635 0 635 -310 0 c-269 0 -310 2 -310 15 0
11 12 15 49 15 49 0 50 1 54 33 l4 32 1 -32 2 -33 255 0 255 0 0 185 0 185
-255 0 -254 0 -4 -77 -3 -78 -2 78 -2 77 -150 0 c-127 0 -150 2 -150 15 0 12
15 15 75 15 l74 0 4 92 3 93 2 -92 2 -93 330 0 330 0 0 635 0 635 -100 0 c-82
0 -100 3 -100 15 0 13 -21 15 -125 15 -104 0 -125 -2 -125 -15 0 -12 -18 -15
-105 -15 l-105 0 0 -465 0 -465 -102 2 -103 2 98 3 97 4 0 459 0 460 -105 0
c-87 0 -105 3 -105 15 0 13 -21 15 -125 15 -104 0 -125 -2 -125 -15 0 -12 -18
-15 -105 -15 l-105 0 0 -460 0 -460 163 -3 162 -3 -167 -2 -168 -2 0 465 0
465 -145 0 c-122 0 -145 2 -145 15 0 13 30 15 210 15 l210 0 0 40 c0 22 5 40
10 40 6 0 10 11 10 25 0 14 -4 25 -10 25 -5 0 -10 16 -10 35 0 19 5 35 10 35
6 0 10 11 10 25 0 14 -4 25 -10 25 -5 0 -10 14 -10 30 0 27 -3 30 -30 30 -16
0 -30 5 -30 10 0 6 -11 10 -25 10 -14 0 -25 -4 -25 -10 0 -5 -16 -10 -35 -10
-19 0 -35 5 -35 10 0 6 -11 10 -25 10 -14 0 -25 -4 -25 -10 0 -5 -16 -10 -35
-10 -19 0 -35 5 -35 10 0 6 -11 10 -25 10 -14 0 -25 -4 -25 -10 0 -5 -16 -10
-35 -10 -19 0 -35 5 -35 10 0 6 -11 10 -25 10 -14 0 -25 -4 -25 -10 0 -5 -16
-10 -35 -10 -19 0 -35 5 -35 10 0 6 -11 10 -25 10 -14 0 -25 -4 -25 -10z"/>
<path d="M1690 1885 c0 -13 -21 -15 -125 -15 l-125 0 0 -65 c0 -51 -3 -65 -15
-65 -12 0 -15 14 -15 65 l0 65 -455 0 -455 0 0 -625 0 -625 235 0 c228 0 235
-1 235 -20 0 -19 7 -20 125 -20 118 0 125 1 125 20 0 19 7 20 95 20 l95 0 0
490 c0 429 2 490 15 490 9 0 15 -9 15 -25 0 -25 0 -25 95 -25 78 0 95 -3 95
-15 0 -12 -17 -15 -95 -15 l-95 0 0 -450 0 -450 125 0 125 0 0 -25 0 -24 -145
-3 -144 -3 59 -98 c33 -54 60 -104 60 -111 0 -6 6 -18 12 -24 10 -10 10 -17 0
-32 -10 -17 -10 -21 3 -26 9 -4 19 -4 22 0 3 3 14 -8 24 -24 16 -25 25 -30 59
-30 29 0 40 -4 40 -15 0 -8 7 -15 15 -15 8 0 15 7 15 15 0 11 12 15 45 15 33
0 45 -4 45 -15 0 -8 7 -15 15 -15 8 0 15 7 15 15 0 11 12 15 44 15 36 0 47 5
61 26 9 15 22 23 30 20 18 -7 30 13 17 26 -13 13 8 58 87 188 l51 85 -145 3
-145 3 0 24 0 25 130 0 130 0 0 450 0 450 -160 0 c-136 0 -160 2 -160 15 0 13
26 15 175 15 l175 0 0 -90 c0 -89 0 -90 25 -90 16 0 25 -6 25 -15 0 -9 -9 -15
-25 -15 l-25 0 0 -360 0 -360 115 0 c108 0 115 -1 115 -20 0 -19 7 -20 125
-20 118 0 125 1 125 20 0 18 7 20 80 20 l80 0 0 360 0 360 -225 0 c-193 0
-225 2 -225 15 0 8 7 15 15 15 12 0 15 18 15 100 0 82 3 100 15 100 12 0 15
-18 15 -100 l0 -100 195 0 195 0 0 250 0 250 -195 0 -195 0 0 -80 c0 -64 -3
-80 -15 -80 -12 0 -15 16 -15 80 l0 80 -255 0 c-220 0 -255 2 -255 15 0 12
-14 15 -70 15 -56 0 -70 -3 -70 -15z"/>
<path d="M3230 1805 c0 -78 -3 -95 -15 -95 -12 0 -15 16 -15 80 l0 80 -195 0
-195 0 0 -250 0 -250 195 0 195 0 0 100 c0 82 3 100 15 100 12 0 15 -19 15
-115 l0 -115 -210 0 -210 0 0 -360 0 -360 80 0 c73 0 80 -2 80 -20 0 -19 7
-20 125 -20 118 0 125 1 125 20 0 19 7 20 230 20 l230 0 0 -25 0 -24 -145 -3
-146 -3 58 -95 c67 -110 87 -158 73 -175 -12 -14 -3 -25 21 -25 9 0 24 -11 33
-25 13 -20 25 -25 56 -25 29 0 40 -4 40 -15 0 -8 7 -15 15 -15 8 0 15 7 15 15
0 11 12 15 45 15 33 0 45 -4 45 -15 0 -8 7 -15 15 -15 8 0 15 7 15 15 0 11 12
15 44 15 36 0 47 5 61 26 9 15 22 23 30 20 18 -7 31 12 17 26 -12 12 14 67 89
192 l49 81 -145 3 -145 3 0 24 0 25 120 0 120 0 0 625 0 625 -345 0 c-300 0
-345 2 -345 15 0 12 -14 15 -70 15 l-70 0 0 -95z"/>
</g>
</svg>
