<?xml version="1.0" standalone="no"?>
<!DOCTYPE svg PUBLIC "-//W3C//DTD SVG 20010904//EN"
 "http://www.w3.org/TR/2001/REC-SVG-20010904/DTD/svg10.dtd">
<svg version="1.0" xmlns="http://www.w3.org/2000/svg"
 width="534.000000pt" height="413.000000pt" viewBox="0 0 534.000000 413.000000"
 preserveAspectRatio="xMidYMid meet">
<metadata>
Created by potrace 1.11, written by Peter Selinger 2001-2013
</metadata>
<g transform="translate(0.000000,413.000000) scale(0.100000,-0.100000)"
fill="#000000" stroke="none">
<path d="M1840 4083 c-59 -4 -200 -23 -222 -29 -16 -5 -18 -21 -18 -159 l0
-153 -25 -4 -25 -5 0 153 c0 104 -4 154 -11 154 -6 0 -86 -25 -177 -55 -170
-57 -395 -160 -509 -234 l-63 -40 0 -221 0 -220 -25 0 -25 0 0 200 c0 182 -5
222 -24 191 -3 -5 -16 -7 -28 -3 -16 4 -20 2 -15 -10 7 -20 -38 -63 -66 -63
-14 0 -22 -6 -21 -17 2 -21 -51 -73 -74 -73 -9 0 -16 -6 -14 -13 4 -21 -36
-70 -61 -74 -14 -2 -21 -9 -19 -20 4 -22 -35 -75 -59 -81 -12 -3 -16 -11 -12
-25 3 -14 -6 -31 -32 -56 -20 -21 -34 -40 -31 -43 7 -7 -32 -83 -43 -83 -5 0
-11 -12 -13 -27 -3 -16 -9 -36 -13 -45 -7 -17 9 -18 259 -18 l266 0 0 70 c0
68 1 70 25 70 25 0 25 0 25 -95 l0 -95 -270 0 -270 0 0 -160 0 -160 -25 0 -25
0 0 175 c0 117 -4 175 -11 175 -5 0 -9 -8 -8 -17 4 -25 -20 -93 -32 -93 -6 0
-9 -8 -8 -17 4 -23 -10 -74 -24 -91 -6 -8 -12 -33 -13 -58 -1 -24 -7 -51 -15
-60 -7 -8 -13 -38 -13 -65 -1 -27 -6 -53 -12 -57 -8 -4 -10 -26 -7 -59 l6 -53
68 0 69 0 0 35 c0 31 3 35 25 35 23 0 25 -4 25 -45 l0 -45 450 0 450 0 0 25
c0 23 3 25 50 25 28 0 50 -4 50 -10 0 -6 98 -10 275 -10 238 0 275 -2 275 -15
0 -12 16 -15 80 -15 64 0 80 3 80 15 0 11 12 15 45 15 l45 0 0 115 0 115 -155
0 -155 0 0 70 c0 56 3 70 15 70 12 0 15 -13 15 -55 l0 -55 140 0 140 0 0 185
0 185 -140 0 -140 0 0 -80 c0 -64 -3 -80 -15 -80 -12 0 -15 18 -15 98 l0 97
155 -3 155 -4 0 81 0 81 -140 0 c-133 0 -140 -1 -140 -20 0 -11 -7 -20 -15
-20 -10 0 -15 11 -15 35 l0 35 155 0 155 0 0 405 0 405 -82 -2 c-46 -1 -103
-3 -128 -5z"/>
<path d="M3300 3687 l0 -407 155 0 155 0 0 -35 c0 -24 -5 -35 -15 -35 -8 0
-15 9 -15 20 0 19 -7 20 -140 20 l-140 0 0 -81 0 -81 155 4 155 3 0 -97 c0
-80 -3 -98 -15 -98 -12 0 -15 16 -15 80 l0 80 -140 0 -140 0 0 -185 0 -185
140 0 140 0 0 55 c0 42 3 55 15 55 12 0 15 -14 15 -70 l0 -70 -155 0 -155 0 0
-115 0 -115 45 0 c33 0 45 -4 45 -15 0 -12 16 -15 80 -15 64 0 80 3 80 15 0
13 37 15 275 15 177 0 275 4 275 10 0 6 23 10 50 10 47 0 50 -2 50 -25 l0 -25
450 0 450 0 0 45 c0 41 2 45 25 45 22 0 25 -4 25 -35 l0 -35 69 0 68 0 6 53
c3 33 1 55 -7 59 -6 4 -11 30 -12 57 0 27 -6 57 -13 65 -8 9 -14 36 -15 60 -1
25 -7 50 -13 58 -14 17 -28 68 -24 91 1 9 -2 17 -8 17 -12 0 -36 68 -32 93 1
9 -3 17 -8 17 -7 0 -11 -58 -11 -175 l0 -175 -25 0 -25 0 0 160 0 160 -270 0
-270 0 0 95 c0 95 0 95 25 95 24 0 25 -2 25 -70 l0 -70 266 0 c250 0 266 1
259 18 -4 9 -10 29 -13 45 -2 15 -8 27 -13 27 -11 0 -50 76 -43 83 3 3 -11 22
-31 43 -26 25 -35 42 -32 56 4 14 0 22 -12 25 -24 6 -63 59 -59 81 2 11 -5 18
-19 20 -25 4 -65 53 -61 74 2 7 -5 13 -14 13 -23 0 -76 52 -74 73 1 11 -7 17
-21 17 -28 0 -73 43 -66 63 5 12 1 14 -15 10 -12 -4 -25 -2 -28 3 -19 31 -24
-9 -24 -191 l0 -200 -25 0 -25 0 0 220 0 221 -62 40 c-115 74 -340 177 -510
234 -91 30 -171 55 -177 55 -7 0 -11 -50 -11 -154 l0 -153 -25 5 -25 4 0 154
c0 151 0 154 -22 159 -62 14 -166 25 -290 31 l-138 7 0 -406z"/>
<path d="M37 2383 c16 -6 6 -84 -11 -95 -8 -5 -7 -13 2 -28 18 -29 15 -77 -5
-89 -15 -8 -16 -12 -4 -35 10 -17 12 -41 7 -75 -4 -33 -3 -51 4 -51 15 0 13
-77 -3 -83 -9 -3 -9 -9 0 -28 18 -37 26 -89 14 -89 -16 0 -13 -29 4 -46 17
-17 21 -74 5 -74 -16 0 -12 -28 5 -38 19 -10 33 -82 16 -82 -18 0 -13 -28 8
-39 22 -12 34 -61 19 -78 -12 -15 -3 -47 11 -39 14 9 36 -63 23 -76 -13 -13
-4 -38 12 -38 14 0 36 -41 36 -65 0 -8 5 -15 10 -15 6 0 10 38 10 95 0 95 0
95 25 95 25 0 25 -1 25 -85 l0 -85 266 0 267 0 -7 -37 c-3 -21 -6 -64 -6 -95
0 -55 -1 -58 -25 -58 -24 0 -25 2 -25 70 l0 70 -256 0 -256 0 7 -22 c4 -13 8
-36 9 -53 1 -19 7 -31 17 -33 16 -3 42 -44 45 -72 0 -8 2 -21 3 -29 0 -7 7
-11 14 -8 16 6 51 -48 52 -78 0 -11 6 -20 13 -20 19 0 61 -55 55 -71 -3 -8 5
-18 18 -23 30 -11 64 -48 64 -69 0 -9 9 -18 20 -20 26 -5 55 -31 66 -59 5 -13
17 -23 27 -23 20 0 55 -34 66 -63 3 -10 12 -17 19 -15 9 4 13 51 15 181 l2
177 25 0 25 0 0 -190 0 -190 48 -34 c71 -53 244 -149 362 -201 113 -51 323
-125 352 -125 17 0 18 13 18 170 l0 170 25 0 25 0 0 -179 0 -179 75 -11 c42
-6 143 -11 225 -11 l150 0 0 425 0 425 -155 0 -155 0 0 55 c0 42 3 55 15 55
11 0 15 -11 15 -40 l0 -40 140 0 140 0 0 105 0 105 -140 0 c-133 0 -140 -1
-140 -20 0 -11 -7 -20 -16 -20 -11 0 -14 8 -12 33 l3 32 153 3 152 3 0 259 0
260 -35 0 c-28 0 -35 4 -35 20 0 18 -7 20 -80 20 -73 0 -80 -2 -80 -20 0 -19
-7 -20 -205 -20 l-205 0 0 110 c0 91 3 110 15 110 12 0 15 -17 15 -95 l0 -95
140 0 140 0 0 300 0 300 -235 0 c-202 0 -235 -2 -235 -15 0 -10 -10 -15 -30
-15 l-30 0 0 -140 0 -140 75 0 c43 0 75 -4 75 -10 0 -6 -37 -10 -90 -10 l-90
0 0 150 0 150 -435 0 -435 0 0 -55 c0 -52 -1 -55 -25 -55 -22 0 -25 4 -25 35
0 28 -4 35 -20 35 -17 0 -20 7 -20 40 l0 40 -87 -1 c-49 0 -82 -3 -76 -6z
m263 -433 l0 -140 -25 0 c-24 0 -25 -2 -25 -75 0 -73 -1 -75 -25 -75 l-25 0 0
100 0 100 25 0 25 0 0 115 0 115 25 0 25 0 0 -140z"/>
<path d="M5150 2350 c0 -33 -3 -40 -20 -40 -16 0 -20 -7 -20 -35 0 -31 -3 -35
-25 -35 -24 0 -25 3 -25 55 l0 55 -435 0 -435 0 0 -150 0 -150 -90 0 c-53 0
-90 4 -90 10 0 6 32 10 75 10 l75 0 0 140 0 140 -30 0 c-20 0 -30 5 -30 15 0
13 -33 15 -235 15 l-235 0 0 -300 0 -300 140 0 140 0 0 95 c0 78 3 95 15 95
12 0 15 -19 15 -110 l0 -110 -205 0 c-198 0 -205 1 -205 20 0 18 -7 20 -80 20
-73 0 -80 -2 -80 -20 0 -16 -7 -20 -35 -20 l-35 0 0 -140 c0 -87 4 -140 10
-140 6 0 10 -7 10 -15 0 -8 -4 -15 -10 -15 -6 0 -10 -63 -10 -170 l0 -170 140
0 140 0 0 170 0 170 -85 0 c-69 0 -85 3 -85 15 0 12 18 15 100 15 l100 0 0
-200 0 -200 -155 0 -155 0 0 -480 0 -480 150 0 c82 0 183 5 225 11 l75 11 0
179 0 179 25 0 25 0 0 -170 c0 -157 1 -170 18 -170 32 0 243 76 362 130 127
58 279 142 353 196 l47 34 0 190 0 190 25 0 25 0 2 -177 c3 -150 5 -178 18
-178 8 0 15 7 15 15 0 19 47 60 69 60 9 0 20 10 25 23 11 28 40 54 66 59 11 2
20 11 20 20 0 21 34 58 64 69 13 5 21 15 18 23 -6 16 36 71 55 71 7 0 13 9 13
20 1 30 36 84 52 78 7 -3 14 1 14 8 1 8 3 21 3 29 3 28 29 69 45 72 10 2 16
14 17 33 1 17 5 40 9 53 l7 22 -256 0 -256 0 0 -70 c0 -68 -1 -70 -25 -70 -24
0 -25 3 -25 58 0 31 -3 74 -6 94 l-7 38 267 0 266 0 0 85 c0 84 0 85 25 85 25
0 25 0 25 -95 0 -57 4 -95 10 -95 6 0 10 7 10 15 0 24 22 65 36 65 16 0 25 25
13 37 -14 14 4 79 20 75 16 -3 25 26 13 41 -15 17 -3 66 19 78 21 11 26 39 8
39 -17 0 -3 72 16 82 17 10 21 38 5 38 -16 0 -12 57 5 74 17 17 20 46 4 46
-12 0 -4 52 14 89 9 19 9 25 0 28 -16 6 -17 80 -2 85 7 2 7 22 1 60 -7 45 -6
58 5 62 18 7 17 32 -2 40 -18 7 -20 58 -2 86 8 15 9 23 1 28 -18 12 -28 84
-12 93 7 5 -23 9 -74 9 l-88 0 0 -40z m-50 -375 l0 -115 25 0 25 0 0 -100 0
-100 -25 0 c-24 0 -25 2 -25 75 0 73 -1 75 -25 75 l-25 0 0 140 0 140 25 0 25
0 0 -115z"/>
<path d="M2600 1815 c0 -12 -18 -15 -100 -15 l-100 0 0 -100 c0 -82 -3 -100
-15 -100 -12 0 -15 18 -15 100 l0 100 -135 0 -135 0 0 -270 0 -270 135 0 135
0 0 120 c0 100 3 120 15 120 13 0 15 -22 15 -135 l0 -135 -75 0 c-43 0 -75 -4
-75 -10 0 -6 -32 -10 -75 -10 l-75 0 0 -360 0 -360 115 0 115 0 0 -25 0 -25
-115 0 -115 0 0 -95 0 -95 40 0 c29 0 40 -4 40 -15 0 -8 7 -15 15 -15 8 0 15
7 15 15 0 11 12 15 45 15 33 0 45 -4 45 -15 0 -8 7 -15 15 -15 8 0 15 7 15 15
0 27 77 19 114 -12 17 -14 30 -31 28 -36 -2 -6 0 -17 3 -25 4 -11 8 -12 20 -2
23 19 75 -27 68 -59 -5 -22 -3 -23 21 -17 21 5 34 1 58 -19 l30 -25 39 31 c21
17 39 26 39 20 0 -6 7 -11 16 -11 11 0 15 6 11 20 -6 24 47 70 78 67 14 -1 19
3 17 15 -4 28 59 68 106 68 31 0 42 -4 42 -15 0 -8 7 -15 15 -15 8 0 15 7 15
15 0 11 12 15 45 15 33 0 45 -4 45 -15 0 -8 7 -15 15 -15 8 0 15 7 15 15 0 11
11 15 40 15 l40 0 0 95 0 95 -155 0 -155 0 0 25 0 25 155 0 155 0 0 655 0 655
-250 0 c-216 0 -250 2 -250 15 0 12 -15 15 -75 15 -60 0 -75 -3 -75 -15z"/>
</g>
</svg>
