<?xml version="1.0" standalone="no"?>
<!DOCTYPE svg PUBLIC "-//W3C//DTD SVG 20010904//EN"
 "http://www.w3.org/TR/2001/REC-SVG-20010904/DTD/svg10.dtd">
<svg version="1.0" xmlns="http://www.w3.org/2000/svg"
 width="537.000000pt" height="413.000000pt" viewBox="0 0 537.000000 413.000000"
 preserveAspectRatio="xMidYMid meet">
<metadata>
Created by potrace 1.11, written by Peter Selinger 2001-2013
</metadata>
<g transform="translate(0.000000,413.000000) scale(0.100000,-0.100000)"
fill="#000000" stroke="none">
<path d="M1831 4079 c-63 -4 -138 -13 -168 -19 l-53 -11 0 -160 0 -159 -25 0
-25 0 0 155 0 155 -27 -6 c-69 -16 -300 -97 -395 -139 -58 -25 -156 -76 -219
-114 l-114 -68 -3 -221 -2 -222 -25 0 -25 0 0 200 c0 183 -1 200 -16 192 -9
-5 -26 -7 -37 -4 -16 4 -19 2 -14 -12 8 -21 -36 -61 -68 -61 -12 -1 -20 -7
-19 -17 2 -21 -51 -73 -74 -73 -11 0 -16 -7 -14 -19 4 -22 -45 -76 -63 -70
-16 6 -29 -12 -15 -21 14 -8 -29 -65 -58 -76 -13 -5 -20 -14 -16 -20 9 -16
-27 -77 -49 -83 -13 -3 -18 -10 -13 -21 5 -15 -15 -58 -38 -80 -6 -5 -16 -29
-22 -52 l-11 -43 263 0 264 0 0 70 c0 68 1 70 25 70 25 0 25 0 25 -95 l0 -95
-299 0 -300 0 -29 -77 c-46 -120 -102 -345 -102 -408 l0 -25 870 0 870 0 0
-25 c0 -25 1 -25 80 -25 79 0 80 0 80 25 0 23 4 25 45 25 l45 0 0 125 0 125
-155 0 -155 0 0 50 c0 38 4 50 15 50 10 0 15 -11 15 -35 l0 -35 140 0 140 0 0
175 0 175 -140 0 -140 0 0 -90 c0 -73 -3 -90 -15 -90 -13 0 -15 21 -15 125 0
104 2 125 15 125 8 0 15 -9 15 -20 0 -19 7 -20 140 -20 l140 0 0 100 0 100
-140 0 -140 0 0 -30 c0 -20 -5 -30 -15 -30 -11 0 -15 12 -15 45 l0 45 155 0
155 0 -2 373 -3 372 -55 1 c-30 1 -106 -2 -169 -7z"/>
<path d="M3317 4083 c-4 -3 -7 -172 -7 -375 l0 -368 155 0 155 0 0 -45 c0 -33
-4 -45 -15 -45 -10 0 -15 10 -15 30 l0 30 -140 0 -140 0 0 -100 0 -100 140 0
c133 0 140 1 140 20 0 11 7 20 15 20 13 0 15 -21 15 -125 0 -104 -2 -125 -15
-125 -12 0 -15 17 -15 90 l0 90 -140 0 -140 0 0 -175 0 -175 140 0 140 0 0 35
c0 24 5 35 15 35 11 0 15 -12 15 -50 l0 -50 -155 0 -155 0 0 -125 0 -125 45 0
c41 0 45 -2 45 -25 0 -25 1 -25 80 -25 79 0 80 0 80 25 l0 25 870 0 870 0 0
25 c0 63 -56 288 -102 408 l-29 77 -300 0 -299 0 0 95 c0 95 0 95 25 95 24 0
25 -2 25 -70 l0 -70 264 0 263 0 -11 43 c-6 23 -16 47 -22 52 -23 22 -43 65
-38 80 5 11 0 18 -13 21 -22 6 -58 67 -49 83 4 6 -3 15 -16 20 -29 11 -72 68
-58 76 14 9 1 27 -15 21 -18 -6 -67 48 -63 70 2 12 -3 19 -14 19 -23 0 -76 52
-74 73 1 10 -7 16 -19 17 -32 0 -76 40 -68 61 5 14 2 16 -14 12 -11 -3 -28 -1
-37 4 -15 8 -16 -9 -16 -192 l0 -200 -25 0 -25 0 -2 222 -3 221 -114 68 c-63
38 -161 89 -219 114 -95 42 -326 123 -394 139 l-28 6 0 -155 0 -155 -25 0 -25
0 0 159 0 160 -52 10 c-29 6 -116 15 -193 21 -166 12 -190 12 -198 3z"/>
<path d="M45 2283 c-10 -155 0 -431 20 -563 20 -128 65 -304 102 -402 l29 -73
292 -3 292 -2 0 -95 c0 -95 0 -95 -25 -95 -24 0 -25 2 -25 70 l0 70 -256 0
-255 0 7 -22 c5 -13 8 -36 9 -53 0 -19 6 -31 16 -33 18 -3 53 -58 45 -71 -9
-14 4 -40 18 -35 14 5 50 -52 51 -81 0 -12 6 -19 15 -18 18 3 52 -42 54 -71 1
-12 9 -22 20 -24 23 -5 61 -49 61 -72 0 -8 7 -15 17 -15 21 0 58 -34 69 -62 5
-13 16 -23 25 -23 22 0 69 -41 69 -60 0 -8 7 -15 15 -15 13 0 15 28 18 178 l2
177 25 0 25 0 2 -192 3 -191 80 -55 c141 -95 458 -241 643 -296 l52 -15 0 175
0 174 25 0 25 0 2 -177 3 -177 30 -9 c17 -5 117 -11 223 -14 l192 -5 0 396 0
396 -155 0 -155 0 0 50 c0 38 4 50 15 50 10 0 15 -11 15 -35 l0 -35 140 0 140
0 0 110 0 110 -140 0 -140 0 0 -25 c0 -16 -6 -25 -15 -25 -11 0 -15 11 -15 40
l0 40 155 0 155 0 0 310 0 310 -35 0 c-24 0 -35 5 -35 15 0 12 -16 15 -80 15
-64 0 -80 -3 -80 -15 0 -13 -26 -15 -170 -15 -144 0 -170 2 -170 15 0 12 14
15 65 15 l65 0 0 140 0 140 55 0 55 0 0 145 0 145 -235 0 -235 0 0 -25 c0 -22
-4 -25 -35 -25 l-35 0 0 -250 0 -250 35 0 c19 0 35 -4 35 -10 0 -6 28 -10 65
-10 51 0 65 -3 65 -15 0 -12 -14 -15 -65 -15 -63 0 -65 -1 -65 -25 0 -23 -3
-25 -50 -25 l-50 0 0 325 0 325 -425 0 -425 0 0 -25 c0 -23 -3 -25 -50 -25
-47 0 -50 2 -50 25 0 25 -1 25 -79 25 l-79 0 -7 -117z"/>
<path d="M3640 2255 l0 -145 55 0 55 0 0 -140 0 -140 65 0 c51 0 65 -3 65 -15
0 -13 -26 -15 -170 -15 -144 0 -170 2 -170 15 0 12 -16 15 -80 15 -64 0 -80
-3 -80 -15 0 -10 -11 -15 -35 -15 l-35 0 0 -140 c0 -118 2 -140 15 -140 8 0
15 -7 15 -15 0 -8 -7 -15 -15 -15 -13 0 -15 -28 -15 -195 l0 -195 140 0 140 0
0 195 0 195 -75 0 c-60 0 -75 3 -75 15 0 12 17 15 90 15 l90 0 0 -225 0 -225
-155 0 -155 0 0 -481 0 -481 193 5 c105 3 206 9 222 14 l30 9 3 177 2 177 25
0 25 0 0 -174 0 -175 53 15 c184 55 501 201 642 296 l80 55 3 191 2 192 25 0
25 0 2 -178 c3 -149 5 -177 18 -177 8 0 15 7 15 15 0 19 47 60 69 60 9 0 20
10 25 23 11 28 48 62 69 62 10 0 17 7 17 15 0 23 38 67 61 72 11 2 19 12 20
24 2 29 36 74 54 71 9 -1 15 6 15 18 1 29 37 86 51 81 14 -5 27 21 18 35 -8
13 27 68 45 71 10 2 16 14 16 33 1 17 4 40 9 53 l7 22 -255 0 -256 0 0 -70 c0
-68 -1 -70 -25 -70 -25 0 -25 0 -25 95 l0 95 292 2 292 3 29 73 c37 98 82 274
102 402 20 132 30 408 20 563 l-7 117 -79 0 c-78 0 -79 0 -79 -25 0 -23 -3
-25 -50 -25 -47 0 -50 2 -50 25 l0 25 -425 0 -425 0 0 -325 0 -325 -50 0 c-47
0 -50 2 -50 25 0 24 -2 25 -65 25 -51 0 -65 3 -65 15 0 12 14 15 65 15 37 0
65 4 65 10 0 6 16 10 35 10 l35 0 0 250 0 250 -35 0 c-31 0 -35 3 -35 25 l0
25 -235 0 -235 0 0 -145z"/>
<path d="M2610 1815 c0 -12 -18 -15 -100 -15 l-100 0 0 -100 c0 -82 -3 -100
-15 -100 -12 0 -15 18 -15 100 l0 100 -135 0 -135 0 0 -270 0 -270 135 0 135
0 0 120 c0 100 3 120 15 120 13 0 15 -22 15 -135 l0 -135 -75 0 c-43 0 -75 -4
-75 -10 0 -6 -32 -10 -75 -10 l-75 0 0 -360 0 -360 115 0 115 0 0 -25 0 -25
-115 0 -115 0 0 -95 0 -95 40 0 c29 0 40 -4 40 -15 0 -8 7 -15 15 -15 8 0 15
7 15 15 0 11 12 15 45 15 33 0 45 -4 45 -15 0 -8 7 -15 15 -15 8 0 15 7 15 15
0 27 77 19 114 -12 17 -14 30 -31 28 -36 -2 -6 0 -17 3 -25 4 -11 8 -12 20 -2
22 18 75 -27 68 -57 -4 -16 -1 -23 10 -23 9 0 19 5 22 10 4 6 21 -2 41 -20
l35 -30 37 30 c24 19 40 26 46 20 16 -16 29 -11 23 9 -6 26 36 65 71 66 19 0
26 5 24 17 -5 29 54 68 104 68 32 0 44 -4 44 -15 0 -8 7 -15 15 -15 8 0 15 7
15 15 0 11 12 15 45 15 33 0 45 -4 45 -15 0 -8 7 -15 15 -15 8 0 15 7 15 15 0
11 11 15 40 15 l40 0 0 95 0 95 -150 0 -150 0 0 25 0 25 150 0 150 0 0 655 0
655 -250 0 c-216 0 -250 2 -250 15 0 12 -15 15 -75 15 -60 0 -75 -3 -75 -15z"/>
</g>
</svg>
