<?xml version="1.0" standalone="no"?>
<!DOCTYPE svg PUBLIC "-//W3C//DTD SVG 20010904//EN"
 "http://www.w3.org/TR/2001/REC-SVG-20010904/DTD/svg10.dtd">
<svg version="1.0" xmlns="http://www.w3.org/2000/svg"
 width="534.000000pt" height="431.000000pt" viewBox="0 0 534.000000 431.000000"
 preserveAspectRatio="xMidYMid meet">
<metadata>
Created by potrace 1.11, written by Peter Selinger 2001-2013
</metadata>
<g transform="translate(0.000000,431.000000) scale(0.100000,-0.100000)"
fill="#000000" stroke="none">
<path d="M480 3875 c0 -13 -28 -15 -195 -15 l-195 0 0 -315 c0 -273 -2 -315
-15 -315 -12 0 -15 -20 -15 -120 0 -113 1 -120 20 -120 19 0 20 -7 20 -175 l0
-175 225 0 225 0 0 -180 c0 -153 -2 -180 -15 -180 -12 0 -15 13 -15 60 l0 60
-105 0 c-87 0 -105 3 -105 15 0 12 18 15 105 15 l105 0 0 90 0 90 -210 0 -210
0 0 -90 0 -90 35 0 c24 0 35 -5 35 -15 0 -11 -12 -15 -50 -15 l-50 0 0 -100
c0 -82 3 -100 15 -100 13 0 15 -21 15 -125 l0 -125 210 0 210 0 0 95 c0 78 3
95 15 95 12 0 15 -17 15 -95 l0 -95 600 0 600 0 0 80 c0 79 0 80 25 80 l25 0
0 -105 0 -105 -850 0 -850 0 0 -115 c0 -108 -1 -115 -20 -115 -19 0 -20 -7
-20 -125 0 -118 1 -125 20 -125 20 0 20 -7 20 -465 l0 -465 180 0 c173 0 180
-1 180 -20 0 -19 7 -20 125 -20 118 0 125 1 125 20 0 19 7 20 265 20 258 0
265 -1 265 -20 0 -19 7 -20 125 -20 118 0 125 1 125 20 0 19 7 20 235 20 228
0 235 -1 235 -20 0 -19 7 -20 125 -20 118 0 125 1 125 20 0 19 7 20 100 20
l100 0 0 355 0 355 -235 0 c-217 0 -235 1 -235 18 0 16 17 17 235 14 l235 -3
0 81 0 81 -235 -3 -235 -3 0 83 c0 66 3 82 15 82 12 0 15 -14 15 -65 l0 -65
220 0 220 0 0 240 0 240 -220 0 -220 0 0 -105 c0 -87 -3 -105 -15 -105 -13 0
-15 21 -15 130 l0 130 570 0 570 0 0 -25 0 -25 -310 0 -310 0 0 -705 0 -705
165 0 c158 0 165 -1 165 -20 0 -19 7 -20 125 -20 118 0 125 1 125 20 0 19 7
20 160 20 l160 0 0 705 0 705 -70 0 c-68 0 -70 1 -70 25 l0 25 170 0 170 0 0
210 0 210 -880 0 -880 0 0 -60 c0 -58 -1 -60 -26 -60 l-26 0 7 805 8 805 -132
0 c-110 0 -131 2 -131 15 0 13 -21 15 -125 15 -104 0 -125 -2 -125 -15 0 -13
-36 -15 -260 -15 -224 0 -260 2 -260 15 0 13 -21 15 -125 15 -104 0 -125 -2
-125 -15z"/>
</g>
</svg>
