<?xml version="1.0" standalone="no"?>
<!DOCTYPE svg PUBLIC "-//W3C//DTD SVG 20010904//EN"
 "http://www.w3.org/TR/2001/REC-SVG-20010904/DTD/svg10.dtd">
<svg version="1.0" xmlns="http://www.w3.org/2000/svg"
 width="537.000000pt" height="414.000000pt" viewBox="0 0 537.000000 414.000000"
 preserveAspectRatio="xMidYMid meet">
<metadata>
Created by potrace 1.11, written by Peter Selinger 2001-2013
</metadata>
<g transform="translate(0.000000,414.000000) scale(0.100000,-0.100000)"
fill="#000000" stroke="none">
<path d="M3310 1975 l0 -175 -280 0 c-242 0 -280 2 -280 15 0 12 -15 15 -75
15 -60 0 -75 -3 -75 -15 0 -8 -9 -15 -20 -15 -19 0 -20 -7 -20 -180 l0 -180
-90 0 c-73 0 -90 3 -90 15 0 12 15 15 75 15 l75 0 0 165 0 165 -225 0 -225 0
0 -165 0 -165 100 0 c82 0 100 -3 100 -15 0 -12 -19 -15 -115 -15 l-115 0 0
250 0 250 -121 0 -122 0 7 -87 c11 -138 53 -402 86 -546 31 -135 95 -342 130
-419 l20 -43 0 193 0 192 25 0 25 0 0 -252 0 -251 33 -61 c19 -34 51 -87 71
-118 36 -56 38 -58 81 -58 41 0 45 -2 45 -25 0 -20 -5 -25 -26 -25 l-25 0 22
-32 c35 -51 197 -215 269 -273 107 -86 100 -85 183 -22 92 70 189 163 263 252
l58 70 -62 3 c-58 3 -62 4 -62 27 0 23 3 24 82 27 l83 3 36 55 c20 30 52 87
73 126 l36 70 0 242 0 242 25 0 25 0 0 -177 c0 -109 4 -173 9 -168 16 17 87
234 119 365 60 241 96 493 108 748 l7 152 -122 0 -121 0 0 -175z"/>
</g>
</svg>
